<svg width="16" height="16" viewBox="0 0 16 16" fill="none" xmlns="http://www.w3.org/2000/svg">
<path d="M15.6063 7.04917L8.95086 0.393693C8.42594 -0.131231 7.5746 -0.131231 7.04967 0.393693C6.52475 0.918618 6.52475 1.76996 7.04967 2.29489L12.7539 7.9991L7.04967 13.7033C6.52475 14.2282 6.52475 15.0796 7.04967 15.6045C7.5746 16.1294 8.42594 16.1294 8.95086 15.6045L15.6063 8.94903C16.1312 8.42541 16.1312 7.57409 15.6063 7.04917ZM7.6039 6.64615L2.32005 1.07717C1.78911 0.518291 0.92914 0.518291 0.398203 1.07717C-0.132734 1.63606 -0.132734 2.5427 0.398203 3.10226L4.72149 7.65869L0.398203 12.2151C-0.132734 12.774 -0.132734 13.6813 0.398203 14.2402C0.92914 14.7991 1.78911 14.7991 2.32005 14.2402L7.6039 8.67123C8.13484 8.11235 8.13484 7.20571 7.6039 6.64615Z" fill="#444D56"/>
</svg>
