<svg width="24" height="23" viewBox="0 0 24 23" fill="none" xmlns="http://www.w3.org/2000/svg">
<mask id="path-1-outside-1" maskUnits="userSpaceOnUse" x="0" y="0" width="24" height="22" fill="black">
<rect fill="white" width="24" height="22"/>
<path d="M21.1667 3.2H19.3333V2.46667C19.3333 2.07768 19.1788 1.70463 18.9038 1.42958C18.6287 1.15452 18.2556 1 17.8667 1C17.4777 1 17.1046 1.15452 16.8296 1.42958C16.5545 1.70463 16.4 2.07768 16.4 2.46667V3.2H13.4667V2.46667C13.4667 2.07768 13.3121 1.70463 13.0371 1.42958C12.762 1.15452 12.389 1 12 1C11.611 1 11.238 1.15452 10.9629 1.42958C10.6879 1.70463 10.5333 2.07768 10.5333 2.46667V3.2H7.6V2.46667C7.6 2.07768 7.44548 1.70463 7.17042 1.42958C6.89537 1.15452 6.52232 1 6.13333 1C5.74435 1 5.3713 1.15452 5.09624 1.42958C4.82119 1.70463 4.66667 2.07768 4.66667 2.46667V3.2H2.83333C2.3471 3.2 1.88079 3.39315 1.53697 3.73697C1.19315 4.08079 1 4.5471 1 5.03333V19.7C1 20.1862 1.19315 20.6525 1.53697 20.9964C1.88079 21.3402 2.3471 21.5333 2.83333 21.5333H13.1C13.1972 21.5333 13.2905 21.4947 13.3593 21.4259C13.428 21.3572 13.4667 21.2639 13.4667 21.1667C13.4667 21.0694 13.428 20.9762 13.3593 20.9074C13.2905 20.8386 13.1972 20.8 13.1 20.8H2.83333C2.54186 20.7991 2.26258 20.683 2.05648 20.4769C1.85038 20.2708 1.7342 19.9915 1.73333 19.7V8.33333H22.2667V14.5667C22.2667 14.6639 22.3053 14.7572 22.3741 14.8259C22.4428 14.8947 22.5361 14.9333 22.6333 14.9333C22.7306 14.9333 22.8238 14.8947 22.8926 14.8259C22.9614 14.7572 23 14.6639 23 14.5667V5.03333C23 4.5471 22.8068 4.08079 22.463 3.73697C22.1192 3.39315 21.6529 3.2 21.1667 3.2ZM17.1333 2.46667C17.1333 2.27217 17.2106 2.08565 17.3481 1.94812C17.4856 1.81059 17.6722 1.73333 17.8667 1.73333C18.0612 1.73333 18.2477 1.81059 18.3852 1.94812C18.5227 2.08565 18.6 2.27217 18.6 2.46667V4.66667C18.6 4.86116 18.5227 5.04768 18.3852 5.18521C18.2477 5.32274 18.0612 5.4 17.8667 5.4C17.6722 5.4 17.4856 5.32274 17.3481 5.18521C17.2106 5.04768 17.1333 4.86116 17.1333 4.66667V2.46667ZM11.2667 2.46667C11.2667 2.27217 11.3439 2.08565 11.4815 1.94812C11.619 1.81059 11.8055 1.73333 12 1.73333C12.1945 1.73333 12.381 1.81059 12.5185 1.94812C12.6561 2.08565 12.7333 2.27217 12.7333 2.46667V4.66667C12.7333 4.86116 12.6561 5.04768 12.5185 5.18521C12.381 5.32274 12.1945 5.4 12 5.4C11.8055 5.4 11.619 5.32274 11.4815 5.18521C11.3439 5.04768 11.2667 4.86116 11.2667 4.66667V2.46667ZM5.4 2.46667C5.4 2.27217 5.47726 2.08565 5.61479 1.94812C5.75231 1.81059 5.93884 1.73333 6.13333 1.73333C6.32782 1.73333 6.51435 1.81059 6.65188 1.94812C6.7894 2.08565 6.86667 2.27217 6.86667 2.46667V4.66667C6.86667 4.86116 6.7894 5.04768 6.65188 5.18521C6.51435 5.32274 6.32782 5.4 6.13333 5.4C5.93884 5.4 5.75231 5.32274 5.61479 5.18521C5.47726 5.04768 5.4 4.86116 5.4 4.66667V2.46667ZM22.2667 7.6H1.73333V5.03333C1.7342 4.74186 1.85038 4.46258 2.05648 4.25648C2.26258 4.05037 2.54186 3.9342 2.83333 3.93333H4.66667V4.66667C4.66667 5.05565 4.82119 5.4287 5.09624 5.70376C5.3713 5.97881 5.74435 6.13333 6.13333 6.13333C6.52232 6.13333 6.89537 5.97881 7.17042 5.70376C7.44548 5.4287 7.6 5.05565 7.6 4.66667V3.93333H10.5333V4.66667C10.5333 5.05565 10.6879 5.4287 10.9629 5.70376C11.238 5.97881 11.611 6.13333 12 6.13333C12.389 6.13333 12.762 5.97881 13.0371 5.70376C13.3121 5.4287 13.4667 5.05565 13.4667 4.66667V3.93333H16.4V4.66667C16.4 5.05565 16.5545 5.4287 16.8296 5.70376C17.1046 5.97881 17.4777 6.13333 17.8667 6.13333C18.2556 6.13333 18.6287 5.97881 18.9038 5.70376C19.1788 5.4287 19.3333 5.05565 19.3333 4.66667V3.93333H21.1667C21.4581 3.9342 21.7374 4.05037 21.9435 4.25648C22.1496 4.46258 22.2658 4.74186 22.2667 5.03333V7.6Z"/>
</mask>
<path d="M21.1667 3.2H19.3333V2.46667C19.3333 2.07768 19.1788 1.70463 18.9038 1.42958C18.6287 1.15452 18.2556 1 17.8667 1C17.4777 1 17.1046 1.15452 16.8296 1.42958C16.5545 1.70463 16.4 2.07768 16.4 2.46667V3.2H13.4667V2.46667C13.4667 2.07768 13.3121 1.70463 13.0371 1.42958C12.762 1.15452 12.389 1 12 1C11.611 1 11.238 1.15452 10.9629 1.42958C10.6879 1.70463 10.5333 2.07768 10.5333 2.46667V3.2H7.6V2.46667C7.6 2.07768 7.44548 1.70463 7.17042 1.42958C6.89537 1.15452 6.52232 1 6.13333 1C5.74435 1 5.3713 1.15452 5.09624 1.42958C4.82119 1.70463 4.66667 2.07768 4.66667 2.46667V3.2H2.83333C2.3471 3.2 1.88079 3.39315 1.53697 3.73697C1.19315 4.08079 1 4.5471 1 5.03333V19.7C1 20.1862 1.19315 20.6525 1.53697 20.9964C1.88079 21.3402 2.3471 21.5333 2.83333 21.5333H13.1C13.1972 21.5333 13.2905 21.4947 13.3593 21.4259C13.428 21.3572 13.4667 21.2639 13.4667 21.1667C13.4667 21.0694 13.428 20.9762 13.3593 20.9074C13.2905 20.8386 13.1972 20.8 13.1 20.8H2.83333C2.54186 20.7991 2.26258 20.683 2.05648 20.4769C1.85038 20.2708 1.7342 19.9915 1.73333 19.7V8.33333H22.2667V14.5667C22.2667 14.6639 22.3053 14.7572 22.3741 14.8259C22.4428 14.8947 22.5361 14.9333 22.6333 14.9333C22.7306 14.9333 22.8238 14.8947 22.8926 14.8259C22.9614 14.7572 23 14.6639 23 14.5667V5.03333C23 4.5471 22.8068 4.08079 22.463 3.73697C22.1192 3.39315 21.6529 3.2 21.1667 3.2ZM17.1333 2.46667C17.1333 2.27217 17.2106 2.08565 17.3481 1.94812C17.4856 1.81059 17.6722 1.73333 17.8667 1.73333C18.0612 1.73333 18.2477 1.81059 18.3852 1.94812C18.5227 2.08565 18.6 2.27217 18.6 2.46667V4.66667C18.6 4.86116 18.5227 5.04768 18.3852 5.18521C18.2477 5.32274 18.0612 5.4 17.8667 5.4C17.6722 5.4 17.4856 5.32274 17.3481 5.18521C17.2106 5.04768 17.1333 4.86116 17.1333 4.66667V2.46667ZM11.2667 2.46667C11.2667 2.27217 11.3439 2.08565 11.4815 1.94812C11.619 1.81059 11.8055 1.73333 12 1.73333C12.1945 1.73333 12.381 1.81059 12.5185 1.94812C12.6561 2.08565 12.7333 2.27217 12.7333 2.46667V4.66667C12.7333 4.86116 12.6561 5.04768 12.5185 5.18521C12.381 5.32274 12.1945 5.4 12 5.4C11.8055 5.4 11.619 5.32274 11.4815 5.18521C11.3439 5.04768 11.2667 4.86116 11.2667 4.66667V2.46667ZM5.4 2.46667C5.4 2.27217 5.47726 2.08565 5.61479 1.94812C5.75231 1.81059 5.93884 1.73333 6.13333 1.73333C6.32782 1.73333 6.51435 1.81059 6.65188 1.94812C6.7894 2.08565 6.86667 2.27217 6.86667 2.46667V4.66667C6.86667 4.86116 6.7894 5.04768 6.65188 5.18521C6.51435 5.32274 6.32782 5.4 6.13333 5.4C5.93884 5.4 5.75231 5.32274 5.61479 5.18521C5.47726 5.04768 5.4 4.86116 5.4 4.66667V2.46667ZM22.2667 7.6H1.73333V5.03333C1.7342 4.74186 1.85038 4.46258 2.05648 4.25648C2.26258 4.05037 2.54186 3.9342 2.83333 3.93333H4.66667V4.66667C4.66667 5.05565 4.82119 5.4287 5.09624 5.70376C5.3713 5.97881 5.74435 6.13333 6.13333 6.13333C6.52232 6.13333 6.89537 5.97881 7.17042 5.70376C7.44548 5.4287 7.6 5.05565 7.6 4.66667V3.93333H10.5333V4.66667C10.5333 5.05565 10.6879 5.4287 10.9629 5.70376C11.238 5.97881 11.611 6.13333 12 6.13333C12.389 6.13333 12.762 5.97881 13.0371 5.70376C13.3121 5.4287 13.4667 5.05565 13.4667 4.66667V3.93333H16.4V4.66667C16.4 5.05565 16.5545 5.4287 16.8296 5.70376C17.1046 5.97881 17.4777 6.13333 17.8667 6.13333C18.2556 6.13333 18.6287 5.97881 18.9038 5.70376C19.1788 5.4287 19.3333 5.05565 19.3333 4.66667V3.93333H21.1667C21.4581 3.9342 21.7374 4.05037 21.9435 4.25648C22.1496 4.46258 22.2658 4.74186 22.2667 5.03333V7.6Z" fill="#444D56"/>
<path d="M21.1667 3.2H19.3333V2.46667C19.3333 2.07768 19.1788 1.70463 18.9038 1.42958C18.6287 1.15452 18.2556 1 17.8667 1C17.4777 1 17.1046 1.15452 16.8296 1.42958C16.5545 1.70463 16.4 2.07768 16.4 2.46667V3.2H13.4667V2.46667C13.4667 2.07768 13.3121 1.70463 13.0371 1.42958C12.762 1.15452 12.389 1 12 1C11.611 1 11.238 1.15452 10.9629 1.42958C10.6879 1.70463 10.5333 2.07768 10.5333 2.46667V3.2H7.6V2.46667C7.6 2.07768 7.44548 1.70463 7.17042 1.42958C6.89537 1.15452 6.52232 1 6.13333 1C5.74435 1 5.3713 1.15452 5.09624 1.42958C4.82119 1.70463 4.66667 2.07768 4.66667 2.46667V3.2H2.83333C2.3471 3.2 1.88079 3.39315 1.53697 3.73697C1.19315 4.08079 1 4.5471 1 5.03333V19.7C1 20.1862 1.19315 20.6525 1.53697 20.9964C1.88079 21.3402 2.3471 21.5333 2.83333 21.5333H13.1C13.1972 21.5333 13.2905 21.4947 13.3593 21.4259C13.428 21.3572 13.4667 21.2639 13.4667 21.1667C13.4667 21.0694 13.428 20.9762 13.3593 20.9074C13.2905 20.8386 13.1972 20.8 13.1 20.8H2.83333C2.54186 20.7991 2.26258 20.683 2.05648 20.4769C1.85038 20.2708 1.7342 19.9915 1.73333 19.7V8.33333H22.2667V14.5667C22.2667 14.6639 22.3053 14.7572 22.3741 14.8259C22.4428 14.8947 22.5361 14.9333 22.6333 14.9333C22.7306 14.9333 22.8238 14.8947 22.8926 14.8259C22.9614 14.7572 23 14.6639 23 14.5667V5.03333C23 4.5471 22.8068 4.08079 22.463 3.73697C22.1192 3.39315 21.6529 3.2 21.1667 3.2ZM17.1333 2.46667C17.1333 2.27217 17.2106 2.08565 17.3481 1.94812C17.4856 1.81059 17.6722 1.73333 17.8667 1.73333C18.0612 1.73333 18.2477 1.81059 18.3852 1.94812C18.5227 2.08565 18.6 2.27217 18.6 2.46667V4.66667C18.6 4.86116 18.5227 5.04768 18.3852 5.18521C18.2477 5.32274 18.0612 5.4 17.8667 5.4C17.6722 5.4 17.4856 5.32274 17.3481 5.18521C17.2106 5.04768 17.1333 4.86116 17.1333 4.66667V2.46667ZM11.2667 2.46667C11.2667 2.27217 11.3439 2.08565 11.4815 1.94812C11.619 1.81059 11.8055 1.73333 12 1.73333C12.1945 1.73333 12.381 1.81059 12.5185 1.94812C12.6561 2.08565 12.7333 2.27217 12.7333 2.46667V4.66667C12.7333 4.86116 12.6561 5.04768 12.5185 5.18521C12.381 5.32274 12.1945 5.4 12 5.4C11.8055 5.4 11.619 5.32274 11.4815 5.18521C11.3439 5.04768 11.2667 4.86116 11.2667 4.66667V2.46667ZM5.4 2.46667C5.4 2.27217 5.47726 2.08565 5.61479 1.94812C5.75231 1.81059 5.93884 1.73333 6.13333 1.73333C6.32782 1.73333 6.51435 1.81059 6.65188 1.94812C6.7894 2.08565 6.86667 2.27217 6.86667 2.46667V4.66667C6.86667 4.86116 6.7894 5.04768 6.65188 5.18521C6.51435 5.32274 6.32782 5.4 6.13333 5.4C5.93884 5.4 5.75231 5.32274 5.61479 5.18521C5.47726 5.04768 5.4 4.86116 5.4 4.66667V2.46667ZM22.2667 7.6H1.73333V5.03333C1.7342 4.74186 1.85038 4.46258 2.05648 4.25648C2.26258 4.05037 2.54186 3.9342 2.83333 3.93333H4.66667V4.66667C4.66667 5.05565 4.82119 5.4287 5.09624 5.70376C5.3713 5.97881 5.74435 6.13333 6.13333 6.13333C6.52232 6.13333 6.89537 5.97881 7.17042 5.70376C7.44548 5.4287 7.6 5.05565 7.6 4.66667V3.93333H10.5333V4.66667C10.5333 5.05565 10.6879 5.4287 10.9629 5.70376C11.238 5.97881 11.611 6.13333 12 6.13333C12.389 6.13333 12.762 5.97881 13.0371 5.70376C13.3121 5.4287 13.4667 5.05565 13.4667 4.66667V3.93333H16.4V4.66667C16.4 5.05565 16.5545 5.4287 16.8296 5.70376C17.1046 5.97881 17.4777 6.13333 17.8667 6.13333C18.2556 6.13333 18.6287 5.97881 18.9038 5.70376C19.1788 5.4287 19.3333 5.05565 19.3333 4.66667V3.93333H21.1667C21.4581 3.9342 21.7374 4.05037 21.9435 4.25648C22.1496 4.46258 22.2658 4.74186 22.2667 5.03333V7.6Z" stroke="#444D56" stroke-width="0.2" mask="url(#path-1-outside-1)"/>
<path d="M11.2666 10.9C11.2666 10.7055 11.1893 10.519 11.0518 10.3814C10.9143 10.2439 10.7277 10.1667 10.5333 10.1667H9.06659C8.87209 10.1667 8.68557 10.2439 8.54804 10.3814C8.41051 10.519 8.33325 10.7055 8.33325 10.9V12C8.33325 12.1945 8.41051 12.381 8.54804 12.5185C8.68557 12.6561 8.87209 12.7333 9.06659 12.7333H10.5333C10.7277 12.7333 10.9143 12.6561 11.0518 12.5185C11.1893 12.381 11.2666 12.1945 11.2666 12V10.9ZM9.06659 12V10.9H10.5333V12H9.06659Z" fill="#444D56"/>
<path d="M6.86668 10.9C6.86668 10.7055 6.78942 10.519 6.65189 10.3814C6.51437 10.2439 6.32784 10.1667 6.13335 10.1667H4.66668C4.47219 10.1667 4.28566 10.2439 4.14814 10.3814C4.01061 10.519 3.93335 10.7055 3.93335 10.9V12C3.93335 12.1945 4.01061 12.381 4.14814 12.5185C4.28566 12.6561 4.47219 12.7333 4.66668 12.7333H6.13335C6.32784 12.7333 6.51437 12.6561 6.65189 12.5185C6.78942 12.381 6.86668 12.1945 6.86668 12V10.9ZM4.66668 12V10.9H6.13335V12H4.66668Z" fill="#444D56"/>
<path d="M19.3333 12.7333C19.5278 12.7333 19.7143 12.6561 19.8518 12.5185C19.9894 12.381 20.0666 12.1945 20.0666 12V10.9C20.0666 10.7055 19.9894 10.519 19.8518 10.3814C19.7143 10.2439 19.5278 10.1667 19.3333 10.1667H17.8666C17.6721 10.1667 17.4856 10.2439 17.3481 10.3814C17.2106 10.519 17.1333 10.7055 17.1333 10.9V12C17.1333 12.1945 17.2106 12.381 17.3481 12.5185C17.4856 12.6561 17.6721 12.7333 17.8666 12.7333H19.3333ZM17.8666 10.9H19.3333V12H17.8666V10.9Z" fill="#444D56"/>
<path d="M11.2666 14.2C11.2666 14.0055 11.1893 13.819 11.0518 13.6815C10.9143 13.5439 10.7277 13.4667 10.5333 13.4667H9.06659C8.87209 13.4667 8.68557 13.5439 8.54804 13.6815C8.41051 13.819 8.33325 14.0055 8.33325 14.2V15.3C8.33325 15.4945 8.41051 15.681 8.54804 15.8186C8.68557 15.9561 8.87209 16.0333 9.06659 16.0333H10.5333C10.7277 16.0333 10.9143 15.9561 11.0518 15.8186C11.1893 15.681 11.2666 15.4945 11.2666 15.3V14.2ZM9.06659 15.3V14.2H10.5333V15.3H9.06659Z" fill="#444D56"/>
<path d="M6.86668 14.2C6.86668 14.0055 6.78942 13.819 6.65189 13.6815C6.51437 13.5439 6.32784 13.4667 6.13335 13.4667H4.66668C4.47219 13.4667 4.28566 13.5439 4.14814 13.6815C4.01061 13.819 3.93335 14.0055 3.93335 14.2V15.3C3.93335 15.4945 4.01061 15.681 4.14814 15.8186C4.28566 15.9561 4.47219 16.0333 4.66668 16.0333H6.13335C6.32784 16.0333 6.51437 15.9561 6.65189 15.8186C6.78942 15.681 6.86668 15.4945 6.86668 15.3V14.2ZM4.66668 15.3V14.2H6.13335V15.3H4.66668Z" fill="#444D56"/>
<path d="M10.5333 16.7667H9.06659C8.87209 16.7667 8.68557 16.8439 8.54804 16.9815C8.41051 17.119 8.33325 17.3055 8.33325 17.5V18.6C8.33325 18.7945 8.41051 18.981 8.54804 19.1185C8.68557 19.2561 8.87209 19.3333 9.06659 19.3333H10.5333C10.7277 19.3333 10.9143 19.2561 11.0518 19.1185C11.1893 18.981 11.2666 18.7945 11.2666 18.6V17.5C11.2666 17.3055 11.1893 17.119 11.0518 16.9815C10.9143 16.8439 10.7277 16.7667 10.5333 16.7667ZM9.06659 18.6V17.5H10.5333V18.6H9.06659Z" fill="#444D56"/>
<path d="M13.4667 12.7333H14.9334C15.1279 12.7333 15.3144 12.6561 15.4519 12.5185C15.5895 12.381 15.6667 12.1945 15.6667 12V10.9C15.6667 10.7055 15.5895 10.519 15.4519 10.3814C15.3144 10.2439 15.1279 10.1667 14.9334 10.1667H13.4667C13.2722 10.1667 13.0857 10.2439 12.9482 10.3814C12.8107 10.519 12.7334 10.7055 12.7334 10.9V12C12.7334 12.1945 12.8107 12.381 12.9482 12.5185C13.0857 12.6561 13.2722 12.7333 13.4667 12.7333ZM13.4667 10.9H14.9334V12H13.4667V10.9Z" fill="#444D56"/>
<path d="M12.7334 15.3C12.7334 15.4945 12.8107 15.681 12.9482 15.8186C13.0857 15.9561 13.2722 16.0333 13.4667 16.0333C13.564 16.0333 13.6572 15.9947 13.726 15.9259C13.7948 15.8572 13.8334 15.7639 13.8334 15.6667C13.8334 15.5694 13.7948 15.4762 13.726 15.4074C13.6572 15.3386 13.564 15.3 13.4667 15.3V14.2H14.9334C15.0306 14.2 15.1239 14.1614 15.1927 14.0926C15.2614 14.0239 15.3001 13.9306 15.3001 13.8333C15.3001 13.7361 15.2614 13.6428 15.1927 13.5741C15.1239 13.5053 15.0306 13.4667 14.9334 13.4667H13.4667C13.2722 13.4667 13.0857 13.5439 12.9482 13.6815C12.8107 13.819 12.7334 14.0055 12.7334 14.2V15.3Z" fill="#444D56"/>
<path d="M6.13335 16.7667H4.66668C4.47219 16.7667 4.28566 16.8439 4.14814 16.9815C4.01061 17.119 3.93335 17.3055 3.93335 17.5V18.6C3.93335 18.7945 4.01061 18.981 4.14814 19.1185C4.28566 19.2561 4.47219 19.3333 4.66668 19.3333H6.13335C6.32784 19.3333 6.51437 19.2561 6.65189 19.1185C6.78942 18.981 6.86668 18.7945 6.86668 18.6V17.5C6.86668 17.3055 6.78942 17.119 6.65189 16.9815C6.51437 16.8439 6.32784 16.7667 6.13335 16.7667ZM4.66668 18.6V17.5H6.13335V18.6H4.66668Z" fill="#444D56"/>
<path d="M18.2333 13.4667C17.2906 13.4667 16.369 13.7462 15.5851 14.27C14.8013 14.7938 14.1903 15.5382 13.8295 16.4092C13.4687 17.2802 13.3743 18.2386 13.5583 19.1633C13.7422 20.0879 14.1962 20.9372 14.8628 21.6039C15.5294 22.2705 16.3788 22.7245 17.3034 22.9084C18.2281 23.0923 19.1865 22.9979 20.0575 22.6372C20.9285 22.2764 21.6729 21.6654 22.1967 20.8816C22.7204 20.0977 23 19.1761 23 18.2333C22.9985 16.9696 22.4959 15.758 21.6023 14.8644C20.7087 13.9708 19.4971 13.4681 18.2333 13.4667ZM18.2333 22.2667C17.4356 22.2667 16.6558 22.0301 15.9925 21.5869C15.3293 21.1437 14.8123 20.5138 14.507 19.7768C14.2018 19.0398 14.1219 18.2289 14.2775 17.4465C14.4331 16.6641 14.8173 15.9454 15.3813 15.3813C15.9454 14.8173 16.6641 14.4331 17.4465 14.2775C18.2289 14.1219 19.0398 14.2018 19.7768 14.507C20.5138 14.8123 21.1437 15.3293 21.5869 15.9925C22.0301 16.6558 22.2667 17.4356 22.2667 18.2333C22.2654 19.3027 21.8401 20.3278 21.0839 21.0839C20.3278 21.8401 19.3027 22.2654 18.2333 22.2667Z" fill="#444D56"/>
<path d="M20.3172 16.6603L20.3171 16.6603L20.3165 16.6609L17.5 19.4775L16.2392 18.2163L16.2392 18.2163L16.2385 18.2157C16.1599 18.1398 16.0547 18.0978 15.9454 18.0987C15.8362 18.0997 15.7317 18.1435 15.6544 18.2208C15.5772 18.298 15.5334 18.4025 15.5324 18.5118C15.5315 18.621 15.5735 18.7263 15.6494 18.8049L15.6494 18.8049L15.65 18.8055L17.2054 20.3612L17.2054 20.3612C17.2835 20.4394 17.3895 20.4832 17.5 20.4832C17.6104 20.4832 17.7164 20.4394 17.7945 20.3612L17.7945 20.3612L20.9057 17.2501L20.9057 17.2501L20.9063 17.2495C20.9822 17.1709 21.0242 17.0656 21.0233 16.9564C21.0223 16.8471 20.9785 16.7426 20.9012 16.6654C20.824 16.5881 20.7195 16.5443 20.6102 16.5433C20.501 16.5424 20.3957 16.5844 20.3172 16.6603Z" fill="#444D56" stroke="#444D56" stroke-width="0.1"/>
</svg>
