<svg width="24" height="16" viewBox="0 0 24 16" fill="none" xmlns="http://www.w3.org/2000/svg">
<path d="M22.5124 5.16055C22.4963 5.14194 22.4826 5.12381 22.4634 5.10569L21.6224 4.29407C22.3199 4.13585 23.0708 3.5515 23.0708 2.95197C23.0708 2.25349 22.1015 2.00565 21.2742 2.00565C20.4092 2.00565 20.3087 2.59832 20.2985 3.01712L18.1286 0.925112C17.6877 0.488686 16.8516 0.145325 16.2266 0.145325H12.0005H11.9995H7.7724C7.14788 0.145325 6.31226 0.488686 5.87093 0.925112L3.70154 3.01712C3.69027 2.59832 3.58986 2.00565 2.72583 2.00565C1.89755 2.00565 0.928691 2.25349 0.928691 2.95197C0.928691 3.5515 1.68007 4.13585 2.37757 4.29407L1.53655 5.10569C1.51745 5.12381 1.50422 5.14194 1.48757 5.16055C0.587779 5.92956 0 7.3559 0 8.39089V11.4664C0 12.2129 0.294379 12.8903 0.769991 13.3953V14.588C0.769991 15.2855 1.35385 15.8542 2.07192 15.8542H3.64619C4.36426 15.8542 4.94763 15.2865 4.94763 14.588V14.2829H11.9995H12.0005H19.0519V14.588C19.0519 15.2865 19.6348 15.8542 20.3538 15.8542H21.9276C22.6461 15.8542 23.229 15.2855 23.229 14.588V13.3953C23.7051 12.8903 23.999 12.2129 23.999 11.4664V8.39089C24 7.3559 23.4122 5.92956 22.5124 5.16055ZM6.66786 1.85478C6.97302 1.60057 7.50643 1.40758 7.7724 1.40758H11.9995H12.0005H16.2276C16.4936 1.40758 17.027 1.60057 17.3321 1.85478L20.1775 4.61245H12.0005H11.9995H3.82301L6.66786 1.85478ZM0.976203 7.92556C0.976203 7.1683 1.56888 6.55359 2.30067 6.55359C3.03196 6.55359 5.42177 7.95642 5.42177 8.71367C5.42177 9.47093 3.03196 9.29558 2.30067 9.29558C1.56888 9.29558 0.976203 8.68331 0.976203 7.92556ZM4.94812 12.9344H4.69587H4.44361L2.94722 12.9369C2.53186 12.8076 2.23895 12.6567 2.03176 12.4946C1.92694 12.4128 1.84661 12.3275 1.78391 12.2428C1.72072 12.1571 1.67468 12.0728 1.6448 11.9886C1.45867 11.4625 1.84318 10.9791 1.84318 10.9791H4.39708L6.09968 12.9334L4.94812 12.9344ZM15.6722 12.9354H12.0005H11.9995H8.32785C7.56227 12.9354 6.94069 12.3138 6.94069 11.5487H11.9995H12.0005H17.0593C17.0593 12.3148 16.4377 12.9354 15.6722 12.9354ZM15.9944 10.6024H12.0005H11.9995H8.00555C7.17286 10.6024 6.49692 9.57575 6.49692 8.30958H11.9995H12.0005H17.5031C17.5031 9.57624 16.8271 10.6024 15.9944 10.6024ZM22.3557 11.9896C22.3253 12.0738 22.2793 12.1581 22.2161 12.2433C22.1539 12.328 22.0736 12.4133 21.9682 12.4951C21.7615 12.6572 21.4681 12.809 21.0528 12.9374L19.5564 12.9349H19.3041H19.0519H17.8993L19.6029 10.9805H22.1563C22.1563 10.9801 22.5413 11.4625 22.3557 11.9896ZM21.6993 9.29558C20.9685 9.29558 18.5787 9.46995 18.5787 8.71367C18.5787 7.9574 20.9685 6.55359 21.6993 6.55359C22.4311 6.55359 23.0238 7.1683 23.0238 7.92556C23.0238 8.68233 22.4311 9.29558 21.6993 9.29558Z" fill="white"/>
</svg>
