<svg width="24" height="24" viewBox="0 0 24 24" fill="none" xmlns="http://www.w3.org/2000/svg">
<path d="M15.9636 1.65394V1.65406L20.0161 5.93092H20.0911V5.93087V1.65406V1.65394C20.0906 1.36757 19.9767 1.09306 19.7742 0.890568C19.5717 0.688075 19.2972 0.574112 19.0108 0.573651H19.0107L17.044 0.573651L17.0439 0.573651C16.7575 0.574112 16.483 0.688075 16.2805 0.890568C16.078 1.09306 15.964 1.36757 15.9636 1.65394ZM16.8447 1.45482C16.8976 1.40198 16.9693 1.3723 17.044 1.3723H19.0107C19.0854 1.3723 19.1571 1.40198 19.2099 1.45482C19.2627 1.50766 19.2924 1.57933 19.2924 1.65406V5.93092C19.2924 5.96792 19.2851 6.00456 19.271 6.03875C19.2568 6.07293 19.2361 6.10399 19.2099 6.13015C19.1837 6.15632 19.1527 6.17707 19.1185 6.19123C19.0843 6.20539 19.0477 6.21268 19.0107 6.21268H17.044C17.007 6.21268 16.9703 6.20539 16.9362 6.19123C16.902 6.17707 16.8709 6.15632 16.8447 6.13015C16.8186 6.10399 16.7978 6.07293 16.7837 6.03875C16.7695 6.00456 16.7622 5.96792 16.7622 5.93092V1.65406C16.7622 1.57933 16.7919 1.50766 16.8447 1.45482Z" fill="#444D56" stroke="#444D56" stroke-width="0.15"/>
<path d="M3.90901 1.65394V1.65406L7.96152 5.93092H8.03652V5.93087V1.65406V1.65394C8.03606 1.36757 7.92209 1.09306 7.7196 0.890568C7.51711 0.688075 7.2426 0.574112 6.95623 0.573651H6.95611L4.98941 0.573651L4.98929 0.573651C4.70292 0.574112 4.42842 0.688075 4.22593 0.890568C4.02343 1.09306 3.90947 1.36757 3.90901 1.65394ZM4.79018 1.45482C4.84302 1.40198 4.91469 1.3723 4.98941 1.3723H6.95611C6.99311 1.3723 7.02975 1.37959 7.06394 1.39375C7.09812 1.40791 7.12918 1.42866 7.15534 1.45482C7.18151 1.48099 7.20226 1.51205 7.21642 1.54623C7.23058 1.58042 7.23787 1.61706 7.23787 1.65406V5.93092C7.23787 5.96792 7.23058 6.00456 7.21642 6.03875C7.20226 6.07293 7.18151 6.10399 7.15534 6.13015C7.12918 6.15632 7.09812 6.17707 7.06394 6.19123C7.02975 6.20539 6.99311 6.21268 6.95611 6.21268H4.98941C4.95241 6.21268 4.91577 6.20539 4.88159 6.19123C4.84741 6.17707 4.81634 6.15632 4.79018 6.13015C4.76402 6.10399 4.74326 6.07293 4.7291 6.03875C4.71494 6.00456 4.70766 5.96792 4.70766 5.93092V1.65406C4.70766 1.57933 4.73734 1.50766 4.79018 1.45482Z" fill="#444D56" stroke="#444D56" stroke-width="0.15"/>
<path d="M19.0107 23.4263L19.0108 23.4263C19.2972 23.4259 19.5717 23.3119 19.7742 23.1094C19.9767 22.9069 20.0906 22.6324 20.0911 22.3461V22.3459V18.0691C20.0911 17.7825 19.9772 17.5077 19.7746 17.3051C19.572 17.1025 19.2972 16.9887 19.0107 16.9887H17.044C16.7574 16.9887 16.4826 17.1025 16.28 17.3051C16.0774 17.5077 15.9636 17.7825 15.9636 18.0691L15.9636 22.3459L15.9636 22.3461C15.964 22.6324 16.078 22.9069 16.2805 23.1094C16.483 23.3119 16.7575 23.4259 17.0439 23.4263H17.044L19.0107 23.4263ZM19.0106 17.7873H19.0107C19.0854 17.7873 19.1571 17.817 19.2099 17.8698C19.2627 17.9227 19.2924 17.9943 19.2924 18.0691V22.3459C19.2924 22.4207 19.2627 22.4923 19.2099 22.5452C19.1571 22.598 19.0854 22.6277 19.0107 22.6277H17.044C16.9693 22.6277 16.8976 22.598 16.8447 22.5452C16.7919 22.4923 16.7622 22.4207 16.7622 22.3459V18.0684C16.7622 17.9937 16.7919 17.922 16.8447 17.8692C16.8976 17.8164 16.9692 17.7867 17.044 17.7867C17.044 17.7867 17.044 17.7867 17.044 17.7867L19.0106 17.7873Z" fill="#444D56" stroke="#444D56" stroke-width="0.15"/>
<path d="M6.95612 23.4263L6.95624 23.4263C7.24261 23.4259 7.51711 23.3119 7.71961 23.1094C7.9221 22.9069 8.03606 22.6324 8.03652 22.3461V22.3459V18.0691C8.03652 17.7825 7.92269 17.5077 7.72008 17.3051C7.51746 17.1025 7.24266 16.9887 6.95612 16.9887H4.98941C4.70287 16.9887 4.42807 17.1025 4.22545 17.3051C4.02284 17.5077 3.90901 17.7825 3.90901 18.0691L3.90901 22.3459L3.90901 22.3461C3.90947 22.6324 4.02343 22.9069 4.22593 23.1094C4.42842 23.3119 4.70293 23.4259 4.98929 23.4263H4.98941L6.95612 23.4263ZM6.95609 17.7873H6.95612C6.99312 17.7873 7.02976 17.7946 7.06394 17.8088C7.09812 17.8229 7.12918 17.8437 7.15535 17.8698C7.18151 17.896 7.20227 17.9271 7.21643 17.9612C7.23059 17.9954 7.23787 18.0321 7.23787 18.0691V22.3459C7.23787 22.3829 7.23059 22.4196 7.21643 22.4538C7.20227 22.4879 7.18151 22.519 7.15535 22.5452C7.12919 22.5713 7.09812 22.5921 7.06394 22.6062C7.02976 22.6204 6.99312 22.6277 6.95612 22.6277H4.98941C4.91469 22.6277 4.84302 22.598 4.79018 22.5452C4.73734 22.4923 4.70766 22.4207 4.70766 22.3459V18.0684C4.70766 17.9937 4.73734 17.922 4.79018 17.8692C4.84302 17.8164 4.91467 17.7867 4.98939 17.7867C4.9894 17.7867 4.98941 17.7867 4.98941 17.7867L6.95609 17.7873Z" fill="#444D56" stroke="#444D56" stroke-width="0.15"/>
<path d="M7.63977 3.29731H7.56477V3.37231V4.02096V4.09596H7.63977H10.0002H10.0752V4.02096V3.37231V3.29731H10.0002H7.63977Z" fill="#444D56" stroke="#444D56" stroke-width="0.15"/>
<path d="M14.0001 3.29731H13.9251V3.37231V4.02096V4.09596H14.0001H16.3606H16.4356V4.02096V3.37231V3.29731H16.3606H14.0001Z" fill="#444D56" stroke="#444D56" stroke-width="0.15"/>
<path d="M7.63977 19.808H7.56477V19.883V20.5317V20.6067H7.63977H10.9268H11.0018V20.5317V19.883V19.808H10.9268H7.63977Z" fill="#444D56" stroke="#444D56" stroke-width="0.15"/>
<path d="M13.0731 19.808H12.9981V19.883V20.5317V20.6067H13.0731H16.3601H16.4351V20.5317V19.883V19.808H16.3601H13.0731Z" fill="#444D56" stroke="#444D56" stroke-width="0.15"/>
<path d="M9.12769 8.87507H9.05269V8.95007V20.207V20.282H9.12769H9.77633H9.85133V20.207V8.95007V8.87507H9.77633H9.12769Z" fill="#444D56" stroke="#444D56" stroke-width="0.15"/>
<path d="M14.2236 8.87507H14.1486V8.95007V20.207V20.282H14.2236H14.8723H14.9473V20.207V8.95007V8.87507H14.8723H14.2236Z" fill="#444D56" stroke="#444D56" stroke-width="0.15"/>
<path d="M14.1904 8.77879L14.1586 8.84672L14.2265 8.87851L14.8142 9.15353L14.8821 9.18532L14.9139 9.11739L16.7267 5.24373L16.7585 5.1758L16.6906 5.14401L16.1029 4.86899L16.035 4.8372L16.0032 4.90513L14.1904 8.77879Z" fill="#444D56" stroke="#444D56" stroke-width="0.15"/>
<path d="M7.31709 5.14795L7.24916 5.17974L7.28095 5.24767L9.09379 9.12134L9.12558 9.18927L9.19351 9.15748L9.78119 8.88245L9.84912 8.85066L9.81733 8.78273L8.00448 4.90906L7.97269 4.84113L7.90476 4.87292L7.31709 5.14795Z" fill="#444D56" stroke="#444D56" stroke-width="0.15"/>
<path d="M12 21.6795H12.0001C12.3904 21.6791 12.7646 21.5238 13.0405 21.2479C13.3165 20.9719 13.4717 20.5977 13.4722 20.2074V20.2074C13.4723 19.9161 13.3859 19.6314 13.2242 19.3892C13.0624 19.1469 12.8324 18.9582 12.5633 18.8467C12.2943 18.7352 11.9982 18.706 11.7125 18.7628C11.4268 18.8196 11.1644 18.9598 10.9585 19.1658C10.7525 19.3718 10.6123 19.6342 10.5555 19.9198C10.4986 20.2055 10.5278 20.5016 10.6393 20.7707C10.7508 21.0398 10.9396 21.2697 11.1818 21.4315C11.424 21.5933 11.7088 21.6796 12 21.6795ZM11.6255 19.6479C11.7364 19.5739 11.8667 19.5344 12 19.5345L12 19.4595L11.9999 19.5345C12.1785 19.5348 12.3497 19.6059 12.476 19.7322C12.6023 19.8585 12.6733 20.0298 12.6735 20.2084C12.6735 20.3417 12.634 20.4719 12.56 20.5827C12.4859 20.6935 12.3806 20.7799 12.2575 20.8309C12.1343 20.8819 11.9988 20.8952 11.8681 20.8692C11.7374 20.8432 11.6173 20.779 11.5231 20.6847C11.4289 20.5904 11.3647 20.4703 11.3387 20.3396C11.3128 20.2089 11.3262 20.0734 11.3772 19.9502C11.4282 19.8271 11.5147 19.7219 11.6255 19.6479Z" fill="#444D56" stroke="#444D56" stroke-width="0.15"/>
<path d="M11.6757 7.08156H11.6007V7.15656V10.6385V10.7135H11.6757H12.3243H12.3993V10.6385V7.15656V7.08156H12.3243H11.6757Z" fill="#444D56" stroke="#444D56" stroke-width="0.15"/>
<path d="M11.6757 16.1922H11.6007V16.2672V19.1338V19.2088H11.6757H12.3243H12.3993V19.1338V16.2672V16.1922H12.3243H11.6757Z" fill="#444D56" stroke="#444D56" stroke-width="0.15"/>
<path d="M10.4749 15.1414L10.4749 15.1415C10.4754 15.5458 10.6362 15.9334 10.9221 16.2193C11.208 16.5052 11.5956 16.666 11.9999 16.6664L12.0001 16.6664C12.4044 16.666 12.792 16.5052 13.0779 16.2193C13.3638 15.9334 13.5246 15.5458 13.525 15.1415V15.1414V11.7642C13.525 11.3597 13.3644 10.9718 13.0784 10.6858C12.7924 10.3998 12.4044 10.2391 12 10.2391C11.5955 10.2391 11.2076 10.3998 10.9216 10.6858C10.6356 10.9718 10.4749 11.3597 10.4749 11.7642L10.4749 15.1414ZM11.4866 11.2502C11.6228 11.114 11.8074 11.0374 12 11.0371C12.1927 11.0374 12.3774 11.1141 12.5135 11.2504C12.6498 11.3867 12.7263 11.5715 12.7264 11.7642C12.7264 11.7642 12.7264 11.7642 12.7264 11.7642V15.1414C12.7264 15.334 12.6499 15.5188 12.5136 15.655C12.3774 15.7913 12.1926 15.8678 12 15.8678C11.8073 15.8678 11.6226 15.7913 11.4863 15.655C11.3501 15.5188 11.2736 15.334 11.2736 15.1414L11.2736 11.7636C11.2736 11.7636 11.2736 11.7636 11.2736 11.7636C11.2738 11.571 11.3504 11.3864 11.4866 11.2502Z" fill="#444D56" stroke="#444D56" stroke-width="0.15"/>
<path d="M13.198 7.47318H13.2443L13.265 7.43186L14.3924 5.18818L14.4004 5.17229V5.1545L14.4004 3.48585L14.4004 3.48577C14.4 3.15401 14.2681 2.83593 14.0335 2.6013C13.799 2.36668 13.4809 2.23466 13.1491 2.2342H13.149L10.8509 2.2342L10.8508 2.2342C10.519 2.23466 10.201 2.36668 9.96642 2.6013C9.73186 2.83593 9.59993 3.15401 9.59956 3.48577V3.48585V5.1545V5.17229L9.60754 5.18818L10.7349 7.43186L10.7557 7.47318H10.8019H13.198ZM13.6017 4.98267L12.7519 6.67453H11.2481L10.3982 4.98267V3.4859C10.3983 3.36582 10.446 3.25067 10.5309 3.16573C10.6158 3.08079 10.7309 3.033 10.851 3.03285H13.149C13.149 3.03285 13.149 3.03285 13.149 3.03285C13.2691 3.03301 13.3842 3.0808 13.469 3.16573C13.5539 3.25067 13.6016 3.36582 13.6017 3.4859V4.98267Z" fill="#444D56" stroke="#444D56" stroke-width="0.15"/>
</svg>
