<svg width="24" height="24" viewBox="0 0 24 24" fill="none" xmlns="http://www.w3.org/2000/svg">
<path d="M13.8636 21.0033V21.0532L13.9136 21.0533C16.0269 21.0537 18.0799 20.3486 19.747 19.0497C21.4141 17.7508 22.5997 15.9325 23.116 13.8832C23.6323 11.8339 23.4496 9.67085 22.5969 7.73718C21.7441 5.8035 20.2703 4.20986 18.4089 3.20902C16.5476 2.20817 14.4054 1.85741 12.3221 2.21236C10.2388 2.56731 8.33358 3.60765 6.90869 5.16839C5.4838 6.72914 4.62078 8.72093 4.4565 10.8279C4.29222 12.9348 4.83608 15.0363 6.00184 16.7991L6.02947 16.8408L6.0712 16.8131L6.61152 16.4544L6.6531 16.4268L6.62557 16.3852C5.55203 14.7614 5.05132 12.8258 5.20284 10.8851C5.35436 8.9445 6.14945 7.11 7.46201 5.67256C8.77457 4.23513 10.5295 3.27704 12.4484 2.95026C14.3673 2.62347 16.3404 2.94669 18.0547 3.86865C19.7691 4.79061 21.1266 6.25853 21.9119 8.03963C22.6972 9.82072 22.8654 11.813 22.3899 13.7006C21.9143 15.5881 20.8221 17.2629 19.2866 18.4592C17.7511 19.6556 15.8602 20.305 13.9136 20.3046L13.8636 20.3046V20.3546V21.0033Z" fill="#444D56" stroke="#444D56" stroke-width="0.1"/>
<path d="M13.9146 21.0532H13.9646V21.0032V20.3546V20.3046H13.9146H2.87467V16.9664H13.9146H13.9646V16.9164V16.2678V16.2178H13.9146H2.17603H2.12603V16.2678V21.0032V21.0532H2.17603H13.9146Z" fill="#444D56" stroke="#444D56" stroke-width="0.1"/>
<path d="M13.8889 16.9408H13.8889C15.3138 16.9394 16.6799 16.3727 17.6875 15.3652C18.695 14.3577 19.2618 12.9916 19.2633 11.5668V11.5667C19.2634 10.5037 18.9482 9.46461 18.3577 8.58074C17.7672 7.69688 16.9279 7.00797 15.9458 6.60114C14.9638 6.19432 13.8831 6.08784 12.8406 6.29517C11.798 6.50251 10.8404 7.01435 10.0887 7.76597C9.33705 8.51758 8.82515 9.47522 8.61775 10.5178C8.41035 11.5603 8.51676 12.6409 8.92353 13.623C9.3303 14.6051 10.0192 15.4445 10.903 16.035C11.7868 16.6256 12.8259 16.9408 13.8889 16.9408ZM11.3189 7.72051C12.0796 7.21222 12.974 6.94092 13.8889 6.94092C15.1153 6.94229 16.2911 7.43009 17.1583 8.2973C18.0255 9.16452 18.5133 10.3403 18.5147 11.5668C18.5147 12.4816 18.2434 13.376 17.7351 14.1367C17.2268 14.8974 16.5044 15.4903 15.6591 15.8404C14.8138 16.1905 13.8838 16.2821 12.9864 16.1036C12.0891 15.9251 11.2649 15.4846 10.618 14.8376C9.97104 14.1907 9.53047 13.3665 9.35199 12.4692C9.1735 11.5718 9.26511 10.6417 9.61522 9.7965C9.96534 8.95124 10.5582 8.22879 11.3189 7.72051Z" fill="#444D56" stroke="#444D56" stroke-width="0.1"/>
<path d="M14.9411 11.5668V11.5667C14.9412 11.3587 14.8796 11.1553 14.7641 10.9823C14.6485 10.8093 14.4843 10.6744 14.2921 10.5947C14.1 10.5151 13.8885 10.4942 13.6844 10.5347C13.4804 10.5752 13.2929 10.6753 13.1458 10.8224C12.9986 10.9694 12.8984 11.1568 12.8577 11.3608C12.8171 11.5649 12.8378 11.7764 12.9174 11.9686C12.9969 12.1608 13.1317 12.3251 13.3046 12.4408C13.4776 12.5564 13.6809 12.6182 13.889 12.6182H13.889C14.1679 12.6181 14.4353 12.5074 14.6326 12.3102C14.8299 12.1131 14.9409 11.8457 14.9411 11.5668ZM13.7206 11.3148C13.7705 11.2814 13.829 11.2636 13.889 11.2635C13.9694 11.2635 14.0466 11.2955 14.1035 11.3523C14.1604 11.4092 14.1924 11.4863 14.1925 11.5668C14.1925 11.6267 14.1747 11.6853 14.1414 11.7351C14.1081 11.785 14.0608 11.8238 14.0054 11.8468C13.95 11.8698 13.8891 11.8758 13.8302 11.8641C13.7714 11.8524 13.7174 11.8236 13.675 11.7812C13.6326 11.7388 13.6037 11.6848 13.592 11.626C13.5802 11.5672 13.5862 11.5063 13.6091 11.4509C13.632 11.3955 13.6708 11.3481 13.7206 11.3148Z" fill="#444D56" stroke="#444D56" stroke-width="0.1"/>
<path d="M13.889 15.685H13.889C14.9809 15.6839 16.0278 15.2497 16.7999 14.4776C17.5721 13.7055 18.0064 12.6587 18.0076 11.5668V11.5667C18.0077 10.7521 17.7662 9.95578 17.3137 9.27843C16.8611 8.60108 16.2179 8.07313 15.4653 7.76135C14.7127 7.44957 13.8846 7.36796 13.0857 7.52684C12.2867 7.68572 11.5528 8.07796 10.9768 8.65395C10.4007 9.22994 10.0084 9.96381 9.84948 10.7628C9.69053 11.5617 9.77207 12.3899 10.0838 13.1425C10.3955 13.8951 10.9234 14.5383 11.6007 14.9909C12.278 15.4435 13.0744 15.685 13.889 15.685ZM12.0167 8.76466C12.5709 8.39436 13.2224 8.19672 13.889 8.19672C14.7825 8.19766 15.6391 8.55302 16.2709 9.18481C16.9027 9.81662 17.258 10.6733 17.259 11.5668C17.259 12.2333 17.0613 12.8848 16.691 13.439C16.3207 13.9932 15.7944 14.4251 15.1786 14.6802C14.5628 14.9353 13.8852 15.002 13.2315 14.872C12.5778 14.7419 11.9773 14.421 11.506 13.9497C11.0347 13.4784 10.7137 12.8779 10.5837 12.2242C10.4537 11.5705 10.5204 10.8929 10.7755 10.2771C11.0306 9.66129 11.4625 9.13496 12.0167 8.76466Z" fill="#444D56" stroke="#444D56" stroke-width="0.1"/>
<path d="M13.563 12.1929H13.513V12.2429V15.3094V15.3594H13.563H14.2116H14.2616V15.3094V12.2429V12.1929H14.2116H13.563Z" fill="#444D56" stroke="#444D56" stroke-width="0.1"/>
<path d="M13.563 7.77401H13.513V7.82401V10.8905V10.9405H13.563H14.2116H14.2616V10.8905V7.82401V7.77401H14.2116H13.563Z" fill="#444D56" stroke="#444D56" stroke-width="0.1"/>
<path d="M10.1472 11.1898H10.0972V11.2398V11.8884V11.9384H10.1472H13.2137H13.2637V11.8884V11.2398V11.1898H13.2137H10.1472Z" fill="#444D56" stroke="#444D56" stroke-width="0.1"/>
<path d="M14.5662 11.1898H14.5162V11.2398V11.8884V11.9384H14.5662H17.6323H17.6823V11.8884V11.2398V11.1898H17.6323H14.5662Z" fill="#444D56" stroke="#444D56" stroke-width="0.1"/>
<path d="M10.9751 9.11381L10.9398 9.14917L10.9751 9.18453L13.1445 11.3539L13.1799 11.3893L13.2152 11.3539L13.6738 10.8953L13.7092 10.86L13.6738 10.8246L11.5044 8.65522L11.4691 8.61987L11.4337 8.65522L10.9751 9.11381Z" fill="#444D56" stroke="#444D56" stroke-width="0.1"/>
<path d="M14.1004 12.2397L14.065 12.275L14.1004 12.3104L16.2698 14.4798L16.3051 14.5151L16.3405 14.4798L16.7991 14.0212L16.8344 13.9858L16.7991 13.9505L14.6297 11.7811L14.5943 11.7457L14.559 11.7811L14.1004 12.2397Z" fill="#444D56" stroke="#444D56" stroke-width="0.1"/>
<path d="M14.1006 10.8245L14.0653 10.8598L14.1006 10.8952L14.5592 11.3538L14.5946 11.3891L14.6299 11.3538L16.7993 9.1844L16.8347 9.14905L16.7993 9.11369L16.3407 8.6551L16.3054 8.61974L16.27 8.6551L14.1006 10.8245Z" fill="#444D56" stroke="#444D56" stroke-width="0.1"/>
<path d="M10.9751 13.9495L10.9398 13.9848L10.9751 14.0202L11.4337 14.4788L11.4691 14.5141L11.5044 14.4788L13.6738 12.3094L13.7092 12.274L13.6738 12.2387L13.2152 11.7801L13.1799 11.7447L13.1445 11.7801L10.9751 13.9495Z" fill="#444D56" stroke="#444D56" stroke-width="0.1"/>
<path d="M0.598682 20.782L0.598682 20.7821C0.599041 21.0838 0.719011 21.373 0.932285 21.5863C1.14556 21.7996 1.43473 21.9197 1.73639 21.9201H1.73652C2.03824 21.9198 2.3275 21.7998 2.54085 21.5864C2.7542 21.3731 2.87421 21.0838 2.87457 20.7821V20.782V16.5081H2.87458L2.87457 16.5072C2.86941 16.2088 2.74726 15.9244 2.53441 15.7152C2.32157 15.506 2.03507 15.3888 1.73663 15.3888C1.43819 15.3888 1.15168 15.506 0.938841 15.7152C0.725996 15.9244 0.603841 16.2088 0.598689 16.5072L0.598682 16.5072V16.5081L0.598682 20.782ZM1.34731 20.7834L1.34733 20.7834V20.782V16.5082C1.34774 16.4052 1.38889 16.3066 1.46181 16.2339C1.53474 16.1612 1.63351 16.1203 1.7365 16.1203C1.83953 16.1203 1.93836 16.1611 2.01135 16.2338C2.08433 16.3065 2.12553 16.4052 2.12593 16.5082V20.782H2.12591L2.12594 20.7834C2.12736 20.8354 2.11833 20.8872 2.0994 20.9357C2.08047 20.9841 2.05202 21.0283 2.01573 21.0656C1.97944 21.1029 1.93605 21.1325 1.88811 21.1528C1.84017 21.173 1.78866 21.1834 1.73663 21.1834C1.68459 21.1834 1.63309 21.173 1.58515 21.1528C1.53721 21.1325 1.49381 21.1029 1.45752 21.0656C1.42123 21.0283 1.39278 20.9841 1.37385 20.9357C1.35492 20.8872 1.3459 20.8354 1.34731 20.7834Z" fill="#444D56" stroke="#444D56" stroke-width="0.1"/>
</svg>
