<svg width="24" height="24" viewBox="0 0 24 24" fill="none" xmlns="http://www.w3.org/2000/svg">
<path d="M3.27451 22.4431V22.4432V23.161C3.27451 23.2735 3.31922 23.3814 3.39879 23.461C3.47837 23.5406 3.5863 23.5853 3.69884 23.5853H20.9513C21.0637 23.5853 21.1715 23.5407 21.251 23.4613C21.3306 23.3819 21.3754 23.2742 21.3756 23.1618V23.1616V22.4432V22.4431C21.3747 21.559 21.023 20.7114 20.3977 20.0863C19.7724 19.4613 18.9246 19.1099 18.0405 19.1094H18.0405L6.60803 19.1094L6.60792 19.1094C5.72408 19.1104 4.87673 19.4619 4.2518 20.0869C3.62687 20.7119 3.2754 21.5593 3.27451 22.4431ZM20.5269 22.4433V22.7367H4.12437L4.12316 22.4433C4.12316 22.4433 4.12316 22.4432 4.12316 22.4431C4.12389 21.7843 4.38589 21.1527 4.8517 20.6868C5.31758 20.2209 5.94926 19.9588 6.60814 19.9581H18.042C18.7009 19.9588 19.3325 20.2209 19.7984 20.6868C20.2643 21.1528 20.5263 21.7845 20.5269 22.4433Z" fill="#444D56" stroke="#444D56" stroke-width="0.2"/>
<path d="M17.815 19.9574L17.8165 19.9574C18.2032 19.9514 18.572 19.7937 18.8433 19.5181C19.1147 19.2426 19.2667 18.8714 19.2667 18.4847C19.2667 18.098 19.1147 17.7268 18.8433 17.4512C18.572 17.1757 18.2032 17.0179 17.8165 17.012V17.012H17.815H6.86103C6.66599 17.0091 6.47232 17.045 6.29126 17.1175C6.10995 17.1902 5.94491 17.2982 5.80573 17.4352C5.66656 17.5723 5.55604 17.7356 5.4806 17.9158C5.40516 18.096 5.36631 18.2894 5.36631 18.4847C5.36631 18.68 5.40516 18.8734 5.4806 19.0535C5.55604 19.2337 5.66656 19.3971 5.80573 19.5341C5.94491 19.6712 6.10995 19.7792 6.29126 19.8518C6.47232 19.9244 6.666 19.9603 6.86104 19.9574L17.815 19.9574ZM6.85816 17.8606L6.85816 17.8606H6.86027H17.8139C17.9767 17.8643 18.1317 17.9316 18.2457 18.048C18.3599 18.1647 18.4239 18.3214 18.4239 18.4847C18.4239 18.6479 18.3599 18.8047 18.2457 18.9214C18.1317 19.0378 17.9767 19.105 17.8139 19.1087H6.86027V19.1087L6.85816 19.1088C6.77509 19.1105 6.69251 19.0957 6.61525 19.0651C6.538 19.0345 6.46762 18.9888 6.40826 18.9307C6.34889 18.8726 6.30172 18.8032 6.26952 18.7266C6.23732 18.65 6.22073 18.5678 6.22073 18.4847C6.22073 18.4016 6.23732 18.3193 6.26952 18.2428C6.30172 18.1662 6.34889 18.0968 6.40826 18.0386C6.46762 17.9805 6.538 17.9348 6.61525 17.9043C6.69251 17.8737 6.77509 17.8588 6.85816 17.8606Z" fill="#444D56" stroke="#444D56" stroke-width="0.2"/>
<path d="M8.68036 15.7282L8.68036 15.7282H8.68245H15.9924V15.7282L15.9945 15.7282C16.0799 15.7264 16.1648 15.7417 16.2443 15.7731C16.3237 15.8046 16.3961 15.8516 16.4571 15.9114C16.5182 15.9712 16.5667 16.0425 16.5998 16.1213C16.6329 16.2001 16.65 16.2847 16.65 16.3701C16.65 16.4555 16.6329 16.5401 16.5998 16.6189C16.5667 16.6977 16.5182 16.769 16.4571 16.8288C16.3961 16.8886 16.3237 16.9356 16.2443 16.9671C16.1648 16.9985 16.0799 17.0138 15.9945 17.012L15.9945 17.012H15.9924H8.68245V17.012L8.68036 17.012C8.59493 17.0138 8.51001 16.9985 8.43056 16.9671C8.35112 16.9356 8.27875 16.8886 8.2177 16.8288C8.15666 16.769 8.10816 16.6977 8.07505 16.6189C8.04194 16.5401 8.02488 16.4555 8.02488 16.3701C8.02488 16.2847 8.04194 16.2001 8.07505 16.1213C8.10816 16.0425 8.15666 15.9712 8.2177 15.9114C8.27875 15.8516 8.35112 15.8046 8.43056 15.7731C8.51001 15.7417 8.59493 15.7264 8.68036 15.7282ZM8.10656 17.7538C8.2898 17.8272 8.48581 17.8636 8.6832 17.8606H15.9916C16.189 17.8636 16.385 17.8272 16.5683 17.7538C16.7518 17.6802 16.9188 17.5709 17.0596 17.4322C17.2005 17.2935 17.3123 17.1282 17.3887 16.9458C17.465 16.7635 17.5043 16.5678 17.5043 16.3701C17.5043 16.1724 17.465 15.9767 17.3887 15.7944C17.3123 15.612 17.2005 15.4467 17.0596 15.308C16.9188 15.1693 16.7518 15.06 16.5683 14.9864C16.385 14.913 16.189 14.8767 15.9916 14.8796H8.6832C8.48581 14.8767 8.2898 14.913 8.10656 14.9864C7.92307 15.06 7.75605 15.1693 7.6152 15.308C7.47436 15.4467 7.36251 15.612 7.28617 15.7944C7.20982 15.9767 7.17051 16.1724 7.17051 16.3701C7.17051 16.5678 7.20982 16.7635 7.28617 16.9458C7.36251 17.1282 7.47436 17.2935 7.6152 17.4322C7.75605 17.5709 7.92307 17.6802 8.10656 17.7538Z" fill="#444D56" stroke="#444D56" stroke-width="0.2"/>
<path d="M10.4786 15.7282H14.1963C14.5927 15.7282 14.9729 15.5707 15.2531 15.2905C15.5334 15.0102 15.6909 14.63 15.6909 14.2336C15.6909 13.8372 15.5334 13.4571 15.2531 13.1768C14.9729 12.8965 14.5927 12.739 14.1963 12.739H10.4786C10.0822 12.739 9.70203 12.8965 9.42174 13.1768C9.14145 13.4571 8.98398 13.8372 8.98398 14.2336C8.98398 14.63 9.14145 15.0102 9.42174 15.2905C9.70203 15.5707 10.0822 15.7282 10.4786 15.7282ZM10.0218 13.7769C10.143 13.6557 10.3073 13.5877 10.4786 13.5877H14.1963C14.3676 13.5877 14.5319 13.6557 14.6531 13.7769C14.7742 13.898 14.8422 14.0623 14.8422 14.2336C14.8422 14.4049 14.7742 14.5692 14.6531 14.6904C14.5319 14.8115 14.3676 14.8796 14.1963 14.8796H10.4786C10.3073 14.8796 10.143 14.8115 10.0218 14.6904C9.90069 14.5692 9.83263 14.4049 9.83263 14.2336C9.83263 14.0623 9.90069 13.898 10.0218 13.7769Z" fill="#444D56" stroke="#444D56" stroke-width="0.2"/>
<path d="M11.347 7.20418L11.2763 7.27489L11.347 7.20418C11.2674 7.12461 11.1595 7.0799 11.047 7.0799C10.9344 7.0799 10.8265 7.12461 10.7469 7.20418C10.6674 7.28376 10.6227 7.39169 10.6227 7.50423V13.1637C10.6227 13.2762 10.6674 13.3841 10.7469 13.4637C10.8265 13.5433 10.9344 13.588 11.047 13.588C11.1595 13.588 11.2674 13.5433 11.347 13.4637C11.4266 13.3841 11.4713 13.2762 11.4713 13.1637V7.50423C11.4713 7.39169 11.4266 7.28376 11.347 7.20418Z" fill="#444D56" stroke="#444D56" stroke-width="0.2"/>
<path d="M13.9266 7.20418L13.8559 7.27489L13.9266 7.20418C13.847 7.12461 13.7391 7.0799 13.6266 7.0799C13.514 7.0799 13.4061 7.12461 13.3265 7.20418C13.247 7.28376 13.2022 7.39169 13.2022 7.50423V13.1637C13.2022 13.2762 13.247 13.3841 13.3265 13.4637C13.4061 13.5433 13.514 13.588 13.6266 13.588C13.7391 13.588 13.847 13.5433 13.9266 13.4637C14.0062 13.3841 14.0509 13.2762 14.0509 13.1637V7.50423C14.0509 7.39169 14.0062 7.28376 13.9266 7.20418Z" fill="#444D56" stroke="#444D56" stroke-width="0.2"/>
<path d="M15.6049 3.9514C15.6092 3.51961 15.5279 3.09125 15.3657 2.69106C15.2034 2.29071 14.9634 1.92651 14.6595 1.61951C14.3556 1.31251 13.9938 1.0688 13.5951 0.902478C13.1965 0.736156 12.7688 0.650519 12.3368 0.650519C11.9048 0.650519 11.4771 0.736156 11.0784 0.902478C10.6797 1.0688 10.318 1.31251 10.0141 1.61951C9.71015 1.92651 9.47012 2.29071 9.30784 2.69106C9.14562 3.09125 9.06432 3.51961 9.06862 3.9514C9.06875 4.85464 9.43098 5.98818 10.0127 6.89619C10.5919 7.80039 11.4102 8.5123 12.3369 8.5123C13.2635 8.5123 14.0817 7.80038 14.6609 6.89619C15.2426 5.98818 15.6048 4.85464 15.6049 3.9514ZM15.6049 3.9514C15.6049 3.95157 15.6049 3.95174 15.6049 3.95191L15.5049 3.9509H15.6049C15.6049 3.95107 15.6049 3.95124 15.6049 3.9514ZM10.6268 2.24078C11.0804 1.78717 11.6954 1.532 12.3369 1.53122C12.9784 1.532 13.5934 1.78718 14.0469 2.2408C14.5005 2.69444 14.7556 3.30949 14.7563 3.951C14.7563 4.64715 14.4691 5.58272 14.014 6.34466C13.787 6.72478 13.521 7.05673 13.2334 7.29258C12.9455 7.52856 12.642 7.66366 12.3369 7.66366C12.0318 7.66366 11.7283 7.52856 11.4405 7.29258C11.1528 7.05672 10.8868 6.72477 10.6597 6.34466C10.2045 5.5827 9.91729 4.6471 9.91727 3.95096C9.91802 3.30944 10.1732 2.69441 10.6268 2.24078Z" fill="#444D56" stroke="#444D56" stroke-width="0.2"/>
</svg>
