<svg width="24" height="24" viewBox="0 0 24 24" fill="none" xmlns="http://www.w3.org/2000/svg">
<g clip-path="url(#clip0)">
<path d="M9.84164 6.77839L9.84182 6.77832C9.89244 6.75956 9.94604 6.74995 10.0001 6.75001M9.84164 6.77839L13.15 6.80001V6.75001M9.84164 6.77839L6.71813 7.95001H3.6C3.35149 7.95001 3.15 8.15149 3.15 8.40001V11.55H2.45V8.40001C2.45 8.15149 2.24851 7.95001 2 7.95001H0.4C0.151486 7.95001 -0.05 8.15149 -0.05 8.40001V17.6C-0.05 17.8485 0.151486 18.05 0.4 18.05H2C2.24851 18.05 2.45 17.8485 2.45 17.6V14.45H3.15V17.6C3.15 17.8485 3.35149 18.05 3.6 18.05H6.65013L9.73 20.36C9.80791 20.4185 9.90264 20.45 10 20.45H18.4C18.5022 20.4501 18.6014 20.4153 18.6812 20.3515L20.6812 18.7515L20.6813 18.7514C20.788 18.666 20.8501 18.5367 20.85 18.4V16.45H21.55V17.6C21.55 17.8485 21.7515 18.05 22 18.05H22.8C23.4904 18.05 24.05 17.4904 24.05 16.8V9.20001C24.05 8.50964 23.4904 7.95001 22.8 7.95001H22C21.7515 7.95001 21.55 8.15149 21.55 8.40001V9.55001M9.84164 6.77839L21.6 9.55001H21.55M10.0001 6.75001L10 6.80001V6.75001H10.0001ZM10.0001 6.75001H13.15M13.15 6.75001H13.2V6.05001H13.15M13.15 6.75001V6.05001M13.15 6.05001V6.00001H11.6C11.3791 6.00001 11.2 5.82091 11.2 5.60001V4.00001C11.2 3.77911 11.3791 3.60001 11.6 3.60001H18.4C18.6209 3.60001 18.8 3.77911 18.8 4.00001V5.60001C18.8 5.82091 18.6209 6.00001 18.4 6.00001H16.85V6.05001M13.15 6.05001H11.6C11.3515 6.05001 11.15 5.84852 11.15 5.60001V4.00001C11.15 3.75149 11.3515 3.55001 11.6 3.55001H18.4C18.6485 3.55001 18.85 3.75149 18.85 4.00001V5.60001C18.85 5.84852 18.6485 6.05001 18.4 6.05001H16.85M16.85 6.05001H16.8V6.75001H16.85M16.85 6.05001V6.75001M16.85 6.75001V6.80001H20.4C20.6209 6.80001 20.8 6.97911 20.8 7.20001V9.55001H20.85M16.85 6.75001H20.4C20.6485 6.75001 20.85 6.95149 20.85 7.20001V9.55001M20.85 9.55001V9.60001H21.55V9.55001M20.85 9.55001H21.55M6.95836 8.82162L6.95818 8.82169C6.90756 8.84045 6.85396 8.85006 6.79995 8.85001M6.95836 8.82162L4.05 8.80001V8.85001M6.95836 8.82162L10.0819 7.65001H19.95V10C19.95 10.2485 20.1515 10.45 20.4 10.45H22C22.2485 10.45 22.45 10.2485 22.45 10V8.85001H22.8C22.9933 8.85001 23.15 9.00672 23.15 9.20001V16.8C23.15 16.9933 22.9933 17.15 22.8 17.15H22.45V16C22.45 15.7515 22.2485 15.55 22 15.55H20.4C20.1515 15.55 19.95 15.7515 19.95 16V18.184L18.2421 19.55H10.1499L7.07 17.24C6.99209 17.1816 6.89736 17.15 6.8 17.15H4.05M6.95836 8.82162L4.05 17.2V17.15M6.79995 8.85001L6.8 8.80001V8.85001H6.79995ZM6.79995 8.85001H4.05M4.05 8.85001H4V17.15H4.05M4.05 8.85001V17.15M1.55 12V17.15H0.85V8.85001H1.55V12ZM3.15 13.55H2.45V12.45H3.15V13.55ZM12.05 5.15001V4.45001H17.95V5.15001H12.05ZM15.95 6.05001V6.75001H14.05V6.05001H15.95Z" fill="#444D56" stroke="#444D56" stroke-width="0.1"/>
<path d="M16.7064 11.6705L16.7064 11.6705C16.8884 11.8397 16.8987 12.1244 16.7295 12.3064L16.7064 11.6705ZM16.7064 11.6705C16.6232 11.5931 16.5138 11.55 16.4001 11.55H16.4001H15.1758L16.3906 9.42499C16.3906 9.42495 16.3906 9.42492 16.3906 9.42489M16.7064 11.6705L16.3906 9.42489M16.3906 9.42489C16.5148 9.20969 16.441 8.93453 16.2259 8.81029L16.2009 8.85357L16.2259 8.81029L16.3906 9.42489ZM14.4002 12.45C14.3208 12.4502 14.2429 12.4293 14.1743 12.3897C13.9591 12.2654 13.8853 11.9902 14.0095 11.775C14.0096 11.775 14.0096 11.775 14.0096 11.775L15.2243 9.64999H13.1349L12.2049 12.75H13.2001H13.2002C13.2635 12.7501 13.326 12.7636 13.3837 12.7895L13.3837 12.7895C13.6104 12.8915 13.7115 13.1578 13.6097 13.3845L13.6096 13.3847L12.757 15.2604L15.3682 12.45H14.4002ZM14.4002 12.45H14.4001V12.4L14.4002 12.45ZM11.5295 17.9064L16.7295 12.3064L16.2009 8.85359C16.1398 8.81834 16.0706 8.79984 16.0001 8.79999V8.74999L16 8.74999L12.8001 8.74999C12.6013 8.74999 12.426 8.88042 12.369 9.07082C12.369 9.07083 12.369 9.07083 12.369 9.07084L11.169 13.0708L11.169 13.0708C11.0976 13.3089 11.2328 13.5597 11.4709 13.631L11.4709 13.631C11.5128 13.6436 11.5563 13.65 11.6001 13.65H12.5012L10.7905 17.4137L10.7905 17.4137C10.6879 17.6401 10.7883 17.9068 11.0146 18.0094L11.0146 18.0094C11.1905 18.0891 11.3977 18.0477 11.5294 17.9065L11.5295 17.9064Z" fill="#444D56" stroke="#444D56" stroke-width="0.1"/>
</g>
<defs>
<clipPath id="clip0">
<rect width="24" height="24" fill="white"/>
</clipPath>
</defs>
</svg>
