<svg width="26" height="26" viewBox="0 0 26 26" fill="none" xmlns="http://www.w3.org/2000/svg">
<path d="M12.9999 25.3723H13C16.2802 25.3685 19.4249 24.0638 21.7444 21.7444C24.0638 19.425 25.3685 16.2802 25.3722 13.0001V13C25.3722 10.553 24.6466 8.16093 23.2871 6.12632C21.9276 4.09171 19.9954 2.50592 17.7346 1.56949C15.4739 0.633058 12.9862 0.388046 10.5862 0.865433C8.18623 1.34282 5.9817 2.52117 4.2514 4.25146C2.52111 5.98176 1.34276 8.18629 0.865372 10.5863C0.387985 12.9863 0.632997 15.4739 1.56943 17.7347C2.50586 19.9954 4.09165 21.9277 6.12626 23.2872C8.16087 24.6467 10.5529 25.3723 12.9999 25.3723ZM6.6 3.42181C8.49437 2.15602 10.7216 1.48041 12.9999 1.48041C16.054 1.48393 18.982 2.69873 21.1416 4.85832C23.3012 7.01792 24.516 9.94595 24.5195 13.0001C24.5195 15.2784 23.8439 17.5056 22.5781 19.3999C21.3123 21.2943 19.5132 22.7708 17.4083 23.6427C15.3034 24.5146 12.9872 24.7427 10.7526 24.2982C8.518 23.8538 6.4654 22.7566 4.85436 21.1456C3.24331 19.5345 2.14618 17.4819 1.70169 15.2474C1.2572 13.0128 1.48533 10.6966 2.35722 8.59164C3.22911 6.48671 4.70561 4.6876 6.6 3.42181Z" fill="#444D56" stroke="#444D56" stroke-width="0.15"/>
<path d="M13.0001 22.9128H13.0002C15.6283 22.9098 18.1479 21.8645 20.0062 20.0061C21.8646 18.1478 22.9099 15.6282 22.9129 13.0001V13C22.9129 11.0394 22.3315 9.12288 21.2423 7.49272C20.1531 5.86256 18.6049 4.59201 16.7936 3.84173C14.9822 3.09145 12.9891 2.89514 11.0662 3.27763C9.14327 3.66012 7.37697 4.60423 5.99064 5.99056C4.6043 7.3769 3.6602 9.1432 3.27771 11.0661C2.89522 12.989 3.09153 14.9821 3.84181 16.7935C4.59208 18.6048 5.86264 20.153 7.49279 21.2422C9.12295 22.3315 11.0395 22.9128 13.0001 22.9128ZM7.96653 5.46677C9.45645 4.47124 11.2081 3.93987 13 3.93986C15.4021 3.94255 17.705 4.89796 19.4036 6.59649C21.1021 8.29503 22.0575 10.598 22.0602 13.0001C22.0602 14.792 21.5288 16.5436 20.5333 18.0335C19.5378 19.5235 18.1228 20.6847 16.4672 21.3705C14.8117 22.0562 12.99 22.2356 11.2325 21.886C9.47503 21.5365 7.86067 20.6736 6.59359 19.4065C5.32651 18.1394 4.46361 16.525 4.11403 14.7675C3.76444 13.01 3.94386 11.1884 4.6296 9.53283C5.31534 7.87731 6.4766 6.46231 7.96653 5.46677Z" fill="#444D56" stroke="#444D56" stroke-width="0.15"/>
<path d="M22.2332 11.255H22.2327C22.174 11.2546 22.116 11.2421 22.0623 11.2184L22.0926 11.1498L22.0623 11.2184C16.0489 8.55666 9.95397 8.55665 3.94062 11.2183L22.2332 11.255ZM22.2332 11.255H22.2345M22.2332 11.255H22.2345M22.2345 11.255C22.3324 11.2553 22.4274 11.2219 22.5036 11.1605C22.5798 11.099 22.6325 11.0131 22.6529 10.9173C22.6732 10.8215 22.66 10.7216 22.6154 10.6344C22.5708 10.5473 22.4975 10.4781 22.408 10.4386L22.2345 11.255ZM3.59487 10.4386L3.5949 10.4386C9.83558 7.67474 16.1672 7.67472 22.4078 10.4385L3.59487 10.4386ZM3.59487 10.4386C3.49147 10.4844 3.41051 10.5695 3.36982 10.675C3.32912 10.7806 3.33202 10.8979 3.37787 11.0013C3.42372 11.1047 3.50876 11.1857 3.6143 11.2264C3.71982 11.2671 3.83718 11.2642 3.94057 11.2184L3.59487 10.4386Z" fill="#444D56" stroke="#444D56" stroke-width="0.15"/>
<path d="M14.6265 22.7723L14.6265 22.7723L14.6281 22.7723L14.6436 22.7719L14.6436 22.7719L14.6451 22.7719C14.7581 22.767 14.8645 22.7175 14.9409 22.6341C15.0173 22.5509 15.0575 22.4408 15.0527 22.3279C14.9772 20.3883 15.6654 18.4965 16.9696 17.0588C18.2737 15.6212 20.0897 14.7524 22.0275 14.6391L22.0276 14.6391L22.4352 14.6145L22.4352 14.6145C22.5482 14.6076 22.6539 14.5562 22.729 14.4714C22.8041 14.3866 22.8424 14.2755 22.8356 14.1625C22.8288 14.0494 22.7773 13.9437 22.6925 13.8687C22.6078 13.7936 22.4966 13.7552 22.3836 13.7621L22.3836 13.7621L21.9779 13.7866C21.9779 13.7866 21.9779 13.7866 21.9779 13.7866C19.8166 13.9133 17.7912 14.8827 16.3369 16.4865C14.8826 18.0903 14.1154 20.2006 14.2001 22.364L14.2002 22.3643C14.2049 22.4741 14.2519 22.5779 14.3313 22.654C14.4108 22.73 14.5165 22.7724 14.6265 22.7723Z" fill="#444D56" stroke="#444D56" stroke-width="0.15"/>
<path d="M11.3737 22.7723H11.3736H11.3581H11.3549L11.3549 22.7722C11.242 22.7674 11.1356 22.7178 11.0591 22.6345C10.9827 22.5512 10.9425 22.441 10.9473 22.3281M11.3737 22.7723L11.0223 22.3312M11.3737 22.7723C11.4835 22.7722 11.589 22.7297 11.6683 22.6537C11.7476 22.5777 11.7945 22.474 11.7992 22.3643L11.7992 22.364C11.8844 20.2008 11.1177 18.0905 9.66383 16.4864C8.21 14.8824 6.185 13.9125 4.02388 13.7852M11.3737 22.7723L4.02388 13.7852M10.9473 22.3281C10.9473 22.3281 10.9473 22.328 10.9473 22.328L11.0223 22.3312M10.9473 22.3281C10.9473 22.3282 10.9473 22.3282 10.9473 22.3282L11.0223 22.3312M10.9473 22.3281C11.0234 20.3886 10.3357 18.4967 9.03192 17.0588C7.72815 15.6208 5.91235 14.7517 3.97467 14.638L3.9745 14.638L3.56486 14.6131L3.56939 14.5382M11.0223 22.3312C11.0991 20.372 10.4045 18.4609 9.08749 17.0084C7.77052 15.5559 5.93635 14.678 3.97906 14.5632L3.56939 14.5382M3.56939 14.5382L3.56483 14.6131M3.56939 14.5382C3.4762 14.5326 3.38907 14.4902 3.32717 14.4203C3.26526 14.3504 3.23365 14.2588 3.23929 14.1656C3.24493 14.0724 3.28735 13.9853 3.35723 13.9234C3.42711 13.8615 3.51871 13.8299 3.6119 13.8355L4.01947 13.8601C6.16099 13.9862 8.16761 14.9473 9.60826 16.5368C11.0489 18.1263 11.8086 20.2175 11.7242 22.3611L3.56483 14.6131M3.56483 14.6131C3.4518 14.6062 3.34612 14.5548 3.27103 14.47C3.19593 14.3852 3.15759 14.2741 3.16443 14.1611C3.17127 14.048 3.22273 13.9423 3.3075 13.8673C3.39226 13.7922 3.50338 13.7538 3.61642 13.7606C3.61642 13.7606 3.61642 13.7606 3.61643 13.7606L4.02388 13.7852M3.56483 14.6131L4.02388 13.7852" fill="#444D56" stroke="#444D56" stroke-width="0.15"/>
<path d="M9.88972 13.3514C9.88972 14.0098 10.2459 14.6012 10.8096 15.0254C11.3734 15.4496 12.1484 15.7101 13 15.7101C13.8517 15.7101 14.6267 15.4496 15.1905 15.0254C15.7542 14.6012 16.1104 14.0098 16.1104 13.3514C16.1104 12.6929 15.7542 12.1015 15.1905 11.6773C14.6267 11.2531 13.8517 10.9926 13 10.9926C12.1484 10.9926 11.3734 11.2531 10.8096 11.6773C10.2459 12.1015 9.88972 12.6929 9.88972 13.3514ZM10.7424 13.3514C10.7424 12.9479 10.9847 12.5732 11.3936 12.296C11.8021 12.0191 12.3701 11.8453 13 11.8453C13.63 11.8453 14.198 12.0191 14.6065 12.296C15.0154 12.5732 15.2577 12.9479 15.2577 13.3514C15.2577 13.7548 15.0154 14.1295 14.6065 14.4067C14.198 14.6836 13.63 14.8574 13 14.8574C12.3701 14.8574 11.8021 14.6836 11.3936 14.4067C10.9847 14.1295 10.7424 13.7548 10.7424 13.3514Z" fill="#444D56" stroke="#444D56" stroke-width="0.15"/>
</svg>
