<svg width="24" height="24" viewBox="0 0 24 24" fill="none" xmlns="http://www.w3.org/2000/svg">
<g clip-path="url(#clip0)">
<path d="M-1.35352 21.6465L-1.35351 21.6465L1.7 18.593V8.38079V8.38069C1.70116 7.2322 2.63179 6.30136 3.78028 6.29999H3.7804L5.4196 6.29999L5.41972 6.29999C6.56821 6.30136 7.49884 7.2322 7.5 8.38069V8.38079V12.793L8.24649 12.0465L8.2465 12.0465C8.44175 11.8513 8.75825 11.8513 8.9535 12.0465L8.95351 12.0465L10.1535 13.2465L10.1535 13.2465C10.3487 13.4417 10.3487 13.7582 10.1535 13.9535L10.1535 13.9535L7.5 16.607V18.3H14.6296H14.6297C15.9933 18.3013 17.0984 19.4063 17.1 20.7699V20.77L17.1 21.63L17.1 21.6301C17.0984 22.9937 15.9933 24.0986 14.6297 24.1H14.6296H3.7804H3.78013C2.75927 24.0972 1.90358 23.3556 1.73819 22.3688L0.553511 23.5535L0.553499 23.5535C0.35825 23.7487 0.041748 23.7487 -0.1535 23.5535L-0.153511 23.5535L-1.35351 22.3535L-1.35352 22.3535C-1.54871 22.1582 -1.54871 21.8417 -1.35352 21.6465ZM6.5 8.38089C6.4994 7.78436 6.01608 7.30086 5.41955 7.29999H3.77968C3.18345 7.30125 2.70059 7.78464 2.7 8.38089V17.593L6.5 13.793V8.38089ZM2.7 22.0191C2.70059 22.6157 3.18397 23.0992 3.78054 23.1H14.6295C15.4411 23.0992 16.0989 22.4416 16.1 21.63V20.77C16.0989 19.9584 15.4411 19.3008 14.6295 19.3H7C6.72387 19.3 6.5 19.0761 6.5 18.8V17.607L2.7 21.407V22.0191ZM0.199999 22.493L9.09298 13.6L8.6 13.107L-0.292978 22L0.199999 22.493Z" fill="#444D56" stroke="#444D56" stroke-width="0.2"/>
<path d="M4.18519 -0.1H4.1853L5.0149 -0.1L5.015 -0.0999999C5.94525 -0.0990432 6.69914 0.654849 6.7001 1.5851V1.5852L6.7001 4.0148L6.7001 4.0149C6.69914 4.94515 5.94525 5.69904 5.015 5.7H5.0149H4.1853H4.18519C3.25495 5.69904 2.50105 4.94515 2.5001 4.0149V4.0148V1.5852V1.5851C2.50105 0.654849 3.25495 -0.0990432 4.18519 -0.1ZM3.5001 4.01465C3.50066 4.39294 3.80716 4.69943 4.18545 4.7H5.01475C5.39301 4.69943 5.69949 4.39298 5.7001 4.01473V1.58527C5.69949 1.20705 5.39305 0.900609 5.01482 0.9H4.18537C3.80712 0.900609 3.50066 1.20709 3.5001 1.58535V4.01465Z" fill="#444D56" stroke="#444D56" stroke-width="0.2"/>
<path d="M16.2199 16.9L16.2197 16.9L13.7799 16.9H13.7798C12.19 16.8982 10.9017 15.6099 10.8999 14.0201V14.02V7.58V7.57988C10.9017 5.99014 12.19 4.70181 13.7798 4.69999H13.7799L18.1895 15.982C17.6688 16.5072 16.9594 16.8018 16.2199 16.8V16.9ZM16.2199 16.9C16.9854 16.9018 17.7198 16.597 18.2592 16.0537M16.2199 16.9L18.2592 16.0537M18.2592 16.0537L21.3419 13.1646L21.3419 13.1646C21.4427 13.0701 21.4998 12.9382 21.4999 12.8L21.4999 12.8L21.4999 9.2V9.19995C21.4998 9.07289 21.4514 8.95057 21.3644 8.85793M18.2592 16.0537L16.2199 4.79999L16.2197 4.69999C16.2197 4.69999 16.2198 4.69999 16.2198 4.69999C16.9943 4.69847 17.7363 5.01066 18.2767 5.56542L18.2767 5.5654L18.278 5.56679L21.3644 8.85793M21.3644 8.85793L21.2915 8.9264L21.3644 8.85799L21.3644 8.85793ZM10.9999 7.58V14.02C11.0017 15.5546 12.2453 16.7983 13.7799 16.8L10.9999 7.58ZM10.9999 7.58C11.0017 6.04539 12.2453 4.80174 13.7799 4.79999L10.9999 7.58ZM16.2199 15.9H16.2199C16.7244 15.9002 17.2079 15.6975 17.5613 15.3375L17.5613 15.3375L17.5643 15.3346L20.4999 12.5835V9.39955L17.5561 6.26036C17.2046 5.90102 16.7228 5.6989 16.2201 5.69999H16.2199H13.7799C12.7422 5.70128 11.9011 6.54228 11.8999 7.58011V14.0199C11.9011 15.0577 12.7422 15.8987 13.78 15.9H16.2199ZM16.2199 5.59999H13.7799C12.687 5.60129 11.8012 6.48699 11.7999 7.58L16.2199 5.59999Z" fill="#444D56" stroke="#444D56" stroke-width="0.2"/>
<path d="M17.0334 9.19494L17.065 9.10006L17.1599 9.13165L19.5609 9.93106L19.6558 9.96265L19.6242 10.0575L19.3714 10.8168L19.3398 10.9116L19.2449 10.88L16.8439 10.0806L16.749 10.049L16.7806 9.95416L17.0334 9.19494Z" fill="#444D56" stroke="#444D56" stroke-width="0.2"/>
<path d="M19.2408 11.1274L19.3357 11.0958L19.3673 11.1906L19.6203 11.9496L19.6519 12.0445L19.557 12.0761L17.1568 12.8761L17.0619 12.9077L17.0303 12.8128L16.7774 12.0538L16.7457 11.959L16.8406 11.9274L19.2408 11.1274Z" fill="#444D56" stroke="#444D56" stroke-width="0.2"/>
</g>
<defs>
<clipPath id="clip0">
<rect width="24" height="24" fill="white" transform="matrix(-1 0 0 1 24 0)"/>
</clipPath>
</defs>
</svg>
