<svg width="26" height="26" viewBox="0 0 26 26" fill="none" xmlns="http://www.w3.org/2000/svg">
<path d="M12.6193 25.7529H12.6192C9.33907 25.7492 6.19433 24.4445 3.8749 22.125C1.55547 19.8056 0.250771 16.6609 0.247028 13.3807V13.3806C0.247028 10.9336 0.972652 8.54156 2.33214 6.50695C3.69162 4.47234 5.62391 2.88655 7.88465 1.95012C10.1454 1.01369 12.633 0.768676 15.033 1.24606C17.433 1.72345 19.6376 2.9018 21.3679 4.63209C23.0982 6.36239 24.2765 8.56692 24.7539 10.9669C25.2313 13.3669 24.9863 15.8546 24.0498 18.1153C23.1134 20.376 21.5276 22.3083 19.493 23.6678C17.4584 25.0273 15.0663 25.7529 12.6193 25.7529ZM19.0193 3.80244C17.1249 2.53665 14.8977 1.86104 12.6194 1.86104C9.56525 1.86456 6.63723 3.07936 4.47765 5.23895C2.31805 7.39855 1.10324 10.3266 1.09973 13.3807C1.09975 15.659 1.77536 17.8862 3.04113 19.7806C4.30692 21.6749 6.10604 23.1514 8.21097 24.0233C10.3159 24.8952 12.6321 25.1234 14.8667 24.6789C17.1013 24.2344 19.1539 23.1372 20.7649 21.5262C22.376 19.9152 23.4731 17.8626 23.9176 15.628C24.3621 13.3934 24.1339 11.0772 23.262 8.97227C22.3902 6.86734 20.9137 5.06823 19.0193 3.80244Z" fill="#444D56" stroke="#444D56" stroke-width="0.15"/>
<path d="M12.6191 21.8881H12.619C10.3635 21.8855 8.20116 20.9883 6.60629 19.3934C5.01142 17.7986 4.11427 15.6362 4.11164 13.3807V13.3806C4.11164 11.698 4.6106 10.0532 5.54541 8.65417C6.48022 7.25513 7.80889 6.16471 9.36342 5.52081C10.918 4.8769 12.6285 4.70842 14.2788 5.03668C15.9291 5.36494 17.445 6.1752 18.6347 7.36498C19.8245 8.55477 20.6348 10.0707 20.963 11.7209C21.2913 13.3712 21.1228 15.0818 20.4789 16.6363C19.835 18.1908 18.7446 19.5195 17.3456 20.4543C15.9465 21.3891 14.3017 21.8881 12.6191 21.8881ZM16.8718 7.01597C15.613 6.17487 14.1331 5.72592 12.6191 5.72592C10.5897 5.72823 8.64398 6.53546 7.20893 7.9705C5.77388 9.40556 4.96665 11.3513 4.96435 13.3807C4.96437 14.8947 5.41331 16.3746 6.2544 17.6334C7.09551 18.8922 8.29102 19.8733 9.68974 20.4527C11.0885 21.0321 12.6276 21.1837 14.1124 20.8883C15.5973 20.5929 16.9613 19.8639 18.0318 18.7934C19.1023 17.7228 19.8314 16.3589 20.1267 14.874C20.4221 13.3891 20.2705 11.85 19.6911 10.4513C19.1118 9.05259 18.1306 7.85709 16.8718 7.01597Z" fill="#444D56" stroke="#444D56" stroke-width="0.15"/>
<path d="M12.6192 19.7614H12.6191C10.9275 19.7595 9.30563 19.0866 8.10944 17.8904C6.91325 16.6942 6.2404 15.0724 6.23852 13.3807V13.3806C6.23852 12.1187 6.61274 10.885 7.31386 9.83572C8.01498 8.78641 9.01151 7.96858 10.1774 7.48564C11.3434 7.0027 12.6263 6.87634 13.864 7.12254C15.1018 7.36874 16.2387 7.97645 17.1311 8.86881C18.0234 9.76116 18.6311 10.8981 18.8773 12.1358C19.1235 13.3736 18.9972 14.6565 18.5142 15.8224C18.0313 16.9884 17.2135 17.9849 16.1641 18.686C15.1148 19.3871 13.8812 19.7614 12.6192 19.7614ZM15.6904 8.78428C14.7813 8.17686 13.7126 7.85265 12.6193 7.85264C11.1536 7.85431 9.74853 8.43726 8.71218 9.47361C7.67582 10.51 7.09287 11.9151 7.09122 13.3807C7.09124 14.474 7.41545 15.5428 8.02286 16.4518C8.63028 17.3609 9.49364 18.0695 10.5037 18.4879C11.5139 18.9063 12.6254 19.0157 13.6977 18.8024C14.77 18.5891 15.755 18.0626 16.5281 17.2895C17.3012 16.5164 17.8277 15.5314 18.041 14.4591C18.2543 13.3868 18.1448 12.2753 17.7264 11.2652C17.308 10.2551 16.5995 9.3917 15.6904 8.78428Z" fill="#444D56" stroke="#444D56" stroke-width="0.15"/>
<path d="M12.9207 11.9809C12.8407 12.0608 12.7323 12.1057 12.6192 12.1057C12.5061 12.1057 12.3977 12.0608 12.3177 11.9809C12.2378 11.9009 12.1929 11.7925 12.1929 11.6794V7.42804C12.1929 7.31497 12.2378 7.20652 12.3177 7.12657C12.3977 7.04661 12.5062 7.00169 12.6192 7.00169C12.7323 7.00169 12.8407 7.04661 12.9207 7.12657C13.0007 7.20652 13.0456 7.31497 13.0456 7.42804V11.6794C13.0456 11.7925 13.0007 11.9009 12.9207 11.9809Z" fill="#444D56" stroke="#444D56" stroke-width="0.15"/>
<path d="M12.9207 19.6365C12.8407 19.7164 12.7323 19.7613 12.6192 19.7613C12.5062 19.7613 12.3977 19.7164 12.3177 19.6365C12.2378 19.5565 12.1929 19.4481 12.1929 19.335V15.0819C12.1929 14.9688 12.2378 14.8604 12.3177 14.7804C12.3977 14.7004 12.5062 14.6555 12.6192 14.6555C12.7323 14.6555 12.8407 14.7004 12.9207 14.7804C13.0007 14.8604 13.0456 14.9688 13.0456 15.0819V19.335C13.0456 19.4481 13.0007 19.5565 12.9207 19.6365Z" fill="#444D56" stroke="#444D56" stroke-width="0.15"/>
<path d="M10.9179 13.807H6.66482C6.55174 13.807 6.4433 13.7621 6.36334 13.6821C6.28339 13.6022 6.23847 13.4937 6.23847 13.3806C6.23847 13.2676 6.28339 13.1591 6.36334 13.0792C6.4433 12.9992 6.55174 12.9543 6.66482 12.9543H10.9179C11.031 12.9543 11.1395 12.9992 11.2194 13.0792C11.2994 13.1591 11.3443 13.2676 11.3443 13.3806C11.3443 13.4937 11.2994 13.6022 11.2194 13.6821C11.1395 13.7621 11.031 13.807 10.9179 13.807Z" fill="#444D56" stroke="#444D56" stroke-width="0.15"/>
<path d="M18.5717 13.807H14.3204C14.2073 13.807 14.0989 13.7621 14.0189 13.6821C13.939 13.6022 13.894 13.4937 13.894 13.3806C13.894 13.2676 13.939 13.1591 14.0189 13.0792C14.0989 12.9992 14.2073 12.9543 14.3204 12.9543H18.5717C18.6848 12.9543 18.7933 12.9992 18.8732 13.0792C18.9532 13.1591 18.9981 13.2676 18.9981 13.3806C18.9981 13.4937 18.9532 13.6022 18.8732 13.6821C18.7933 13.7621 18.6848 13.807 18.5717 13.807Z" fill="#444D56" stroke="#444D56" stroke-width="0.15"/>
<path d="M11.653 12.5321L11.6113 12.4697L11.4162 12.529C11.37 12.5291 11.3243 12.52 11.2817 12.5024C11.239 12.4847 11.2003 12.4588 11.1678 12.426L11.1147 12.479L11.1147 12.479C11.1146 12.479 11.1146 12.4789 11.1146 12.4789L8.10796 9.47227C8.06747 9.43304 8.03516 9.38616 8.0129 9.33436C7.99056 9.28234 7.9788 9.22639 7.97831 9.16978C7.97781 9.11317 7.9886 9.05703 8.01004 9.00463L8.07945 9.03303L8.01004 9.00463C8.03148 8.95224 8.06313 8.90463 8.10316 8.8646C8.1432 8.82457 8.1908 8.79291 8.2432 8.77148C8.29559 8.75004 8.35174 8.73925 8.40835 8.73974C8.46496 8.74024 8.5209 8.752 8.57292 8.77434C8.62473 8.7966 8.6716 8.82891 8.71084 8.8694L11.7176 11.8762L11.7176 11.8762C11.7772 11.9358 11.8178 12.0118 11.8343 12.0945C11.8507 12.1771 11.8423 12.2629 11.81 12.3408C11.7777 12.4186 11.7231 12.4852 11.653 12.5321Z" fill="#444D56" stroke="#444D56" stroke-width="0.15"/>
<path d="M17.1308 17.2894L17.1308 17.2895C17.1904 17.3491 17.231 17.425 17.2475 17.5077C17.2639 17.5904 17.2555 17.6761 17.2232 17.754C17.191 17.8319 17.1363 17.8985 17.0662 17.9454C16.9961 17.9922 16.9137 18.0172 16.8294 18.0172H16.8294C16.7163 18.0172 16.6079 17.9723 16.5279 17.8923C16.5279 17.8923 16.5279 17.8923 16.5279 17.8923L13.5207 14.8851L13.5207 14.8851L13.5198 14.8842C13.4422 14.8038 13.3992 14.6961 13.4001 14.5843C13.4011 14.4725 13.446 14.3656 13.525 14.2865C13.6041 14.2075 13.711 14.1626 13.8228 14.1616C13.9346 14.1607 14.0423 14.2037 14.1227 14.2813L14.1227 14.2813L14.1236 14.2822L17.1308 17.2894Z" fill="#444D56" stroke="#444D56" stroke-width="0.15"/>
<path d="M8.40896 18.0172H8.40893C8.32462 18.0172 8.2422 17.9922 8.17211 17.9454C8.10201 17.8985 8.04738 17.8319 8.01512 17.754C7.98286 17.6761 7.97441 17.5904 7.99086 17.5077C8.0073 17.425 8.04789 17.3491 8.1075 17.2895L8.10751 17.2894L11.1147 14.2822L11.1147 14.2822L11.1156 14.2813C11.1961 14.2037 11.3038 14.1607 11.4155 14.1616C11.5273 14.1626 11.6343 14.2075 11.7133 14.2865C11.7924 14.3656 11.8372 14.4725 11.8382 14.5843C11.8391 14.6961 11.7962 14.8038 11.7185 14.8842L11.7185 14.8842L11.7176 14.8851L8.71039 17.8923C8.71039 17.8923 8.71038 17.8923 8.71038 17.8923C8.63045 17.9723 8.52202 18.0172 8.40896 18.0172Z" fill="#444D56" stroke="#444D56" stroke-width="0.15"/>
<path d="M13.8223 12.604C13.738 12.6039 13.6556 12.5789 13.5855 12.5321C13.5154 12.4852 13.4608 12.4186 13.4286 12.3408C13.3963 12.2629 13.3878 12.1771 13.4043 12.0945C13.4207 12.0118 13.4613 11.9358 13.5209 11.8762L13.5209 11.8762L16.5282 8.86894L16.5282 8.86894L16.5291 8.86803C16.6095 8.79037 16.7172 8.74739 16.829 8.74837C16.9408 8.74934 17.0477 8.79418 17.1268 8.87322C17.2058 8.95227 17.2506 9.05921 17.2516 9.171C17.2526 9.28278 17.2096 9.39048 17.132 9.47089L17.132 9.4709L17.131 9.47182L14.124 12.4789C14.1239 12.4789 14.1239 12.479 14.1239 12.479C14.0844 12.5187 14.0374 12.5502 13.9856 12.5717C13.9338 12.5931 13.8783 12.6041 13.8223 12.604ZM13.8223 12.604C13.8223 12.604 13.8223 12.604 13.8224 12.604L13.8224 12.529L13.8222 12.604C13.8222 12.604 13.8222 12.604 13.8223 12.604Z" fill="#444D56" stroke="#444D56" stroke-width="0.15"/>
<path d="M12.6192 15.5082H12.6191C12.055 15.5077 11.5142 15.2833 11.1153 14.8845C10.7165 14.4856 10.4921 13.9448 10.4916 13.3807V13.3806C10.4916 12.9598 10.6164 12.5485 10.8501 12.1986C11.0839 11.8487 11.4162 11.576 11.805 11.415C12.1937 11.254 12.6215 11.2118 13.0342 11.2939C13.4469 11.376 13.826 11.5787 14.1236 11.8762C14.4211 12.1738 14.6238 12.5529 14.7059 12.9656C14.788 13.3783 14.7458 13.8061 14.5848 14.1948C14.4238 14.5836 14.1511 14.9159 13.8012 15.1497C13.4513 15.3835 13.04 15.5082 12.6192 15.5082ZM13.3275 12.3206C13.1178 12.1805 12.8714 12.1058 12.6192 12.1058C12.2812 12.1061 11.9571 12.2405 11.7181 12.4796C11.4791 12.7186 11.3446 13.0427 11.3443 13.3807C11.3443 13.6328 11.4191 13.8793 11.5591 14.0889C11.6992 14.2986 11.8983 14.462 12.1313 14.5585C12.3642 14.655 12.6206 14.6802 12.8679 14.631C13.1152 14.5818 13.3423 14.4604 13.5206 14.2821C13.6989 14.1038 13.8204 13.8767 13.8696 13.6294C13.9187 13.3821 13.8935 13.1257 13.797 12.8928C13.7005 12.6598 13.5371 12.4607 13.3275 12.3206Z" fill="#444D56" stroke="#444D56" stroke-width="0.15"/>
<path d="M12.6812 2.94366L12.6812 2.9437C12.6581 3.03582 12.6049 3.11761 12.5301 3.17607C12.4553 3.23454 12.363 3.26635 12.2681 3.26645L12.268 3.19145L12.2683 3.26644C12.2332 3.26658 12.1983 3.26228 12.1643 3.25363C12.11 3.24006 12.0589 3.21594 12.0139 3.18264C11.9689 3.14931 11.9309 3.10743 11.9021 3.05941C11.8733 3.01138 11.8542 2.95814 11.8459 2.90274C11.8377 2.84734 11.8405 2.79086 11.8541 2.73653C11.8541 2.73652 11.8541 2.73651 11.8541 2.73651L12.2054 1.33112L12.2054 1.33112L12.2055 1.33057C12.2337 1.22159 12.3038 1.12816 12.4005 1.07064C12.4972 1.01313 12.6128 0.996201 12.722 1.02355C12.8312 1.0509 12.9251 1.12031 12.9833 1.21664C13.0415 1.31297 13.0592 1.4284 13.0327 1.53777L13.0327 1.53777L13.0326 1.53826L12.6812 2.94366Z" fill="#444D56" stroke="#444D56" stroke-width="0.15"/>
<path d="M15.619 3.384C15.5814 3.44815 15.5276 3.50134 15.4631 3.53828C15.3986 3.57523 15.3255 3.59465 15.2511 3.59462H15.2511L15.5543 3.34605M15.619 3.384L15.5543 3.34605M15.619 3.384L15.619 3.38401L15.5543 3.34605M15.619 3.384L16.3519 2.13525M15.5543 3.34605L16.2876 2.09665M16.3519 2.13525C16.3518 2.13548 16.3516 2.13572 16.3515 2.13595L16.2876 2.09665M16.3519 2.13525C16.3814 2.08712 16.401 2.03362 16.4097 1.97784C16.4184 1.92179 16.4158 1.86457 16.4021 1.80953C16.3884 1.75449 16.3638 1.70274 16.3299 1.6573C16.2959 1.61187 16.2533 1.57367 16.2044 1.54493C16.1555 1.5162 16.1013 1.49751 16.0451 1.48996C15.9889 1.48242 15.9317 1.48616 15.877 1.50098C15.8222 1.5158 15.771 1.54139 15.7263 1.57626C15.6817 1.61097 15.6445 1.65418 15.6168 1.70337M16.3519 2.13525L16.3523 2.13461L16.2876 2.09665M16.2876 2.09665L15.6168 1.70337M15.6168 1.70337L14.884 2.95211L14.8839 2.95217L14.9486 2.99013L15.6168 1.70337Z" fill="#444D56" stroke="#444D56" stroke-width="0.15"/>
<path d="M18.0222 4.74984V4.74984L18.0222 4.67484C17.9527 4.67436 17.8848 4.65326 17.8272 4.61416C17.769 4.57458 17.7239 4.5184 17.698 4.45291C17.672 4.38741 17.6664 4.31563 17.6817 4.24688C17.6971 4.17813 17.7328 4.11558 17.7841 4.06736L17.7327 4.01275L17.7328 4.01268L18.7849 3.02227C18.8243 2.98009 18.8719 2.94634 18.9247 2.92307C18.9784 2.89943 19.0364 2.88712 19.095 2.88692C19.1537 2.88671 19.2118 2.89861 19.2656 2.92187C19.3195 2.94514 19.3679 2.97926 19.408 3.02211C19.448 3.06497 19.4788 3.11562 19.4984 3.17092C19.518 3.22621 19.526 3.28495 19.5218 3.34346C19.5176 3.40198 19.5015 3.459 19.4743 3.51097C19.4475 3.56204 19.4107 3.60715 19.3661 3.64358L18.3143 4.63367C18.3143 4.6337 18.3142 4.63374 18.3142 4.63377C18.236 4.70793 18.1325 4.74942 18.0248 4.74984V4.74984C18.0248 4.74984 18.0248 4.74984 18.0248 4.74984C18.0247 4.74984 18.0245 4.74984 18.0244 4.74984H18.0241C18.0235 4.74985 18.0228 4.74985 18.0222 4.74984Z" fill="#444D56" stroke="#444D56" stroke-width="0.15"/>
<path d="M20.3572 6.63941C20.3567 6.63941 20.3562 6.63941 20.3556 6.63941H20.3556C20.2603 6.63925 20.1677 6.60712 20.0927 6.54813C20.0173 6.48882 19.9641 6.40582 19.9418 6.31255C19.9194 6.21927 19.9291 6.12118 19.9694 6.03412C20.0096 5.94706 20.0781 5.87612 20.1636 5.83276C20.1636 5.83276 20.1636 5.83276 20.1636 5.83276L21.4546 5.1785C21.5044 5.15087 21.5593 5.1335 21.6159 5.12744C21.6731 5.12131 21.731 5.12682 21.786 5.14365C21.841 5.16047 21.8921 5.18825 21.9361 5.22531C21.9801 5.26238 22.0161 5.30797 22.042 5.35933C22.0679 5.41069 22.0832 5.46676 22.0868 5.52417C22.0905 5.58159 22.0825 5.63914 22.0633 5.69339C22.0442 5.74763 22.0142 5.79743 21.9753 5.83979C21.9368 5.88173 21.8903 5.91551 21.8385 5.93917L20.548 6.59336L20.548 6.59337C20.4888 6.62335 20.4235 6.63911 20.3572 6.63941V6.63941Z" fill="#444D56" stroke="#444D56" stroke-width="0.15"/>
<path d="M21.9835 8.26326L21.9834 8.26328C21.879 8.28278 21.7856 8.34055 21.7216 8.42527C21.6575 8.51 21.6274 8.61558 21.6371 8.72135C21.6468 8.82712 21.6957 8.92545 21.7741 8.9971C21.8525 9.06876 21.9548 9.10856 22.061 9.10873L22.0611 9.03373M21.9835 8.26326L22.1398 9.10143L22.1258 9.02776L22.1395 9.1015L22.1396 9.10147C22.1137 9.10641 22.0873 9.10884 22.0608 9.10873L22.0611 9.03373M21.9835 8.26326L23.4072 7.99917C23.4625 7.98786 23.5195 7.98764 23.5749 7.99852C23.6305 8.00946 23.6834 8.03139 23.7305 8.06302C23.7775 8.09466 23.8178 8.13536 23.849 8.18276C23.8801 8.23016 23.9015 8.28329 23.9118 8.33905C23.9222 8.39481 23.9213 8.45207 23.9093 8.50749C23.8972 8.5629 23.8742 8.61536 23.8416 8.66178C23.8091 8.7082 23.7676 8.74766 23.7195 8.77784L21.9835 8.26326ZM22.0611 9.03373C21.9736 9.03359 21.8893 9.00079 21.8247 8.94174C21.7601 8.88269 21.7198 8.80166 21.7118 8.71449C21.7038 8.62733 21.7286 8.54032 21.7814 8.4705C21.8342 8.40068 21.9111 8.35307 21.9972 8.337L22.0611 9.03373ZM23.5628 8.83741C23.5625 8.83746 23.5623 8.8375 23.562 8.83754L23.5498 8.76354L23.5635 8.83728L23.5628 8.83741Z" fill="#444D56" stroke="#444D56" stroke-width="0.15"/>
<path d="M24.4447 12.1068L24.4446 12.1068C24.4301 12.1069 24.4155 12.1062 24.4011 12.1046C24.401 12.1046 24.4009 12.1046 24.4009 12.1046L22.9607 11.9567L22.9607 11.9568L22.9586 11.9565C22.8487 11.942 22.7489 11.8853 22.6801 11.7984C22.6114 11.7116 22.5791 11.6014 22.5902 11.4911C22.6013 11.3809 22.6548 11.2793 22.7395 11.2079C22.8242 11.1365 22.9333 11.1008 23.0438 11.1085L23.0438 11.1084L23.0463 11.1087L24.4868 11.2566L24.4868 11.2566L24.4874 11.2567C24.5954 11.2685 24.6949 11.3212 24.7654 11.4039C24.8359 11.4867 24.8721 11.5932 24.8667 11.7018C24.8613 11.8104 24.8145 11.9128 24.7361 11.9881C24.6577 12.0634 24.5534 12.1058 24.4447 12.1068Z" fill="#444D56" stroke="#444D56" stroke-width="0.15"/>
<path d="M24.4436 15.5072L24.4436 15.5072C24.3884 15.5071 24.3338 15.4964 24.2826 15.4757L24.2825 15.4756L22.9414 14.9279C22.9414 14.9279 22.9414 14.9279 22.9414 14.9279C22.8367 14.8851 22.7532 14.8025 22.7094 14.6983C22.6656 14.594 22.665 14.4766 22.7078 14.3719C22.7505 14.2672 22.8331 14.1838 22.9373 14.14C23.0416 14.0961 23.159 14.0955 23.2637 14.1383L23.2637 14.1383L24.6048 14.686C24.6048 14.686 24.6048 14.686 24.6048 14.686C24.6963 14.7234 24.7721 14.7913 24.819 14.8783C24.866 14.9653 24.8812 15.0659 24.8622 15.1629C24.8431 15.26 24.791 15.3473 24.7146 15.4101C24.6383 15.4729 24.5425 15.5072 24.4436 15.5072Z" fill="#444D56" stroke="#444D56" stroke-width="0.15"/>
<path d="M23.4853 18.7695C23.5738 18.7696 23.6601 18.7423 23.7323 18.6911C23.8046 18.64 23.8591 18.5677 23.8884 18.4842C23.9177 18.4007 23.9202 18.3102 23.8958 18.2252C23.8713 18.1402 23.821 18.0649 23.7518 18.0097C23.7518 18.0097 23.7518 18.0097 23.7518 18.0097L22.6191 17.1064L23.4853 18.7695ZM23.4853 18.7695L23.4854 18.6945L23.4853 18.7695Z" fill="#444D56" stroke="#444D56" stroke-width="0.15"/>
<path d="M21.649 21.5548L21.649 21.6298C21.5805 21.6298 21.513 21.6133 21.4522 21.5817C21.3914 21.5501 21.3392 21.5043 21.2998 21.4482C21.2998 21.4482 21.2998 21.4482 21.2998 21.4482L20.4678 20.2624L20.4678 20.2624L20.4668 20.2609C20.4051 20.1683 20.3821 20.0552 20.4027 19.9458C20.4232 19.8364 20.4858 19.7394 20.5769 19.6755C20.668 19.6116 20.7805 19.5859 20.8903 19.6038C21.0002 19.6217 21.0987 19.6819 21.1647 19.7715L21.1648 19.7714L21.1658 19.7729L21.9978 20.9587L21.9978 20.9588C22.0626 21.0513 22.0881 21.1657 22.0686 21.277C22.0491 21.3882 21.9863 21.4872 21.8939 21.5521C21.8223 21.6029 21.7366 21.6301 21.6488 21.6298L21.649 21.5548ZM21.649 21.5548C21.7212 21.555 21.7917 21.5327 21.8507 21.4909L21.3612 21.4051C21.3936 21.4514 21.4367 21.4891 21.4868 21.5152C21.5369 21.5412 21.5925 21.5548 21.649 21.5548Z" fill="#444D56" stroke="#444D56" stroke-width="0.15"/>
<path d="M19.4242 23.6777C19.3848 23.7328 19.3328 23.7776 19.2725 23.8086L19.2382 23.7418L19.2725 23.8086C19.2123 23.8395 19.1455 23.8556 19.0778 23.8556H19.0777L19.4242 23.6777ZM19.4242 23.6777C19.4637 23.6226 19.4895 23.559 19.4994 23.492C19.5094 23.425 19.5033 23.3566 19.4815 23.2925C19.4815 23.2925 19.4815 23.2925 19.4815 23.2925C19.4815 23.2925 19.4815 23.2924 19.4815 23.2924L19.0174 21.9201L19.0174 21.9201C18.9812 21.813 18.9038 21.7246 18.8025 21.6745C18.7011 21.6243 18.5839 21.6165 18.4768 21.6528C18.3697 21.689 18.2813 21.7663 18.2312 21.8677C18.1811 21.9691 18.1733 22.0862 18.2095 22.1934L18.2095 22.1934L18.674 23.5657L18.674 23.5658L18.745 23.5417L19.4242 23.6777Z" fill="#444D56" stroke="#444D56" stroke-width="0.15"/>
<path d="M16.0024 25.2691L16.0024 25.269C16.1153 25.2644 16.2218 25.2151 16.2984 25.1319C16.375 25.0488 16.4154 24.9386 16.4108 24.8256L16.0024 25.2691ZM16.0024 25.2691H15.9993H15.9846M16.0024 25.2691L16.4108 24.8256L16.3518 23.3781C16.3518 23.3781 16.3518 23.3781 16.3518 23.3781C16.3472 23.265 16.2979 23.1584 16.2147 23.0817C16.1316 23.005 16.0213 22.9645 15.9082 22.9691C15.7952 22.9737 15.6886 23.023 15.6119 23.1061C15.5352 23.1893 15.4946 23.2996 15.4992 23.4126L15.4992 23.4127L15.5582 24.8602L15.5583 24.8602C15.5628 24.9703 15.6097 25.0743 15.6891 25.1505C15.7686 25.2267 15.8745 25.2692 15.9846 25.2691M15.9846 25.2691L15.9845 25.1941M15.9846 25.2691H15.9845V25.1941M15.9845 25.1941H15.9993L16.1639 23.1369C16.0953 23.0736 16.0045 23.0402 15.9113 23.044C15.8181 23.0478 15.7302 23.0884 15.667 23.157C15.6038 23.2255 15.5704 23.3164 15.5742 23.4096L15.6332 24.8572C15.6369 24.9478 15.6756 25.0335 15.7411 25.0963C15.8065 25.1592 15.8938 25.1942 15.9845 25.1941Z" fill="#444D56" stroke="#444D56" stroke-width="0.15"/>
<path d="M13.0324 25.4302L13.0324 25.4302C13.0093 25.5223 12.9561 25.6041 12.8813 25.6626C12.8064 25.7211 12.7142 25.7529 12.6193 25.753L12.6192 25.678L12.6195 25.753C12.5844 25.7531 12.5495 25.7488 12.5155 25.7401C12.4612 25.7266 12.4101 25.7024 12.3651 25.6692C12.3201 25.6358 12.2821 25.5939 12.2533 25.5459C12.2245 25.4979 12.2054 25.4446 12.1971 25.3892C12.1889 25.3338 12.1917 25.2774 12.2052 25.223C12.2052 25.223 12.2053 25.223 12.2053 25.223L12.5566 23.8176L12.5566 23.8176L12.5567 23.8171C12.5849 23.7081 12.655 23.6147 12.7517 23.5571C12.8484 23.4996 12.964 23.4827 13.0732 23.51C13.1824 23.5374 13.2763 23.6068 13.3345 23.7031C13.3927 23.7995 13.4104 23.9149 13.3839 24.0243L13.3839 24.0243L13.3838 24.0248L13.0324 25.4302Z" fill="#444D56" stroke="#444D56" stroke-width="0.15"/>
<path d="M9.25316 25.2691H9.25312L8.95068 24.6646L8.886 24.6267L8.88603 24.6266L9.61891 23.3779C9.64661 23.3287 9.6838 23.2855 9.72833 23.2508C9.77306 23.2159 9.8243 23.1903 9.87905 23.1755C9.9338 23.1607 9.99096 23.1569 10.0472 23.1645C10.1034 23.172 10.1575 23.1907 10.2064 23.2194C10.2553 23.2482 10.298 23.2864 10.332 23.3318C10.3659 23.3772 10.3905 23.429 10.4042 23.484C10.4179 23.5391 10.4205 23.5963 10.4118 23.6523C10.4031 23.7081 10.3835 23.7616 10.354 23.8098L9.6211 25.0585C9.6211 25.0585 9.6211 25.0585 9.6211 25.0585C9.58347 25.1227 9.52971 25.1759 9.46517 25.2128C9.40062 25.2497 9.32753 25.2692 9.25316 25.2691Z" fill="#444D56" stroke="#444D56" stroke-width="0.15"/>
<path d="M7.50618 22.7482L6.45288 23.7397L6.16078 23.7806C6.09036 23.7806 6.02158 23.7594 5.96336 23.7198C5.90513 23.6802 5.86015 23.624 5.83425 23.5585C5.80834 23.4931 5.80271 23.4213 5.81808 23.3526C5.83346 23.2839 5.86912 23.2214 5.92046 23.1732L5.86905 23.1185L5.86912 23.1185L6.92242 22.127C6.9627 22.0872 7.01051 22.0558 7.06305 22.0347C7.11591 22.0135 7.17249 22.003 7.22945 22.004C7.28642 22.005 7.3426 22.0174 7.39469 22.0405C7.44678 22.0636 7.49372 22.0969 7.53273 22.1384C7.57174 22.1799 7.60203 22.2288 7.62182 22.2822C7.64161 22.3357 7.65049 22.3925 7.64794 22.4494C7.64538 22.5063 7.63145 22.5622 7.60696 22.6136C7.58263 22.6647 7.54837 22.7104 7.50618 22.7482Z" fill="#444D56" stroke="#444D56" stroke-width="0.15"/>
<path d="M3.59165 21.6298H3.59165C3.65847 21.6298 3.72433 21.614 3.78394 21.5838L3.78394 21.5838L5.07621 20.9289L5.07623 20.9288C5.12617 20.9035 5.17064 20.8686 5.20708 20.8261M3.59165 21.6298L5.20708 20.8261M3.59165 21.6298C3.49577 21.6299 3.40265 21.5977 3.32734 21.5383C3.25203 21.479 3.19893 21.396 3.1766 21.3028C3.15428 21.2095 3.16403 21.1115 3.2043 21.0244C3.24456 20.9374 3.31298 20.8665 3.3985 20.8232C3.3985 20.8232 3.39851 20.8232 3.39851 20.8232L4.6904 20.1683L3.59165 21.6298ZM5.20708 20.8261C5.24352 20.7836 5.27124 20.7343 5.28864 20.681C5.30604 20.6278 5.31278 20.5717 5.30849 20.5159C5.30419 20.46 5.28894 20.4056 5.26361 20.3556C5.23827 20.3057 5.20335 20.2612 5.16083 20.2248C5.11832 20.1883 5.06904 20.1606 5.01581 20.1432C4.96258 20.1258 4.90645 20.1191 4.85062 20.1234C4.79479 20.1277 4.74035 20.1429 4.69042 20.1683L5.20708 20.8261Z" fill="#444D56" stroke="#444D56" stroke-width="0.15"/>
<path d="M1.67494 17.924L1.67485 17.924C1.57048 17.9435 1.47714 18.0012 1.41309 18.0859C1.34904 18.1706 1.31889 18.2761 1.32854 18.3819C1.33819 18.4876 1.38695 18.5859 1.46527 18.6576C1.5436 18.7293 1.64585 18.7692 1.75202 18.7695M1.67494 17.924L1.81687 18.6885L1.83091 18.7622C1.83084 18.7622 1.83077 18.7622 1.83071 18.7622C1.80477 18.7671 1.77843 18.7696 1.75202 18.7695M1.67494 17.924L3.09843 17.6599C3.15365 17.6488 3.21051 17.6488 3.26574 17.6599C3.32117 17.671 3.37383 17.693 3.42068 17.7246C3.46752 17.7562 3.50761 17.7969 3.53861 17.8441C3.56961 17.8914 3.5909 17.9443 3.60125 17.9999C3.61159 18.0555 3.61078 18.1126 3.59887 18.1678C3.58696 18.2231 3.56417 18.2754 3.53185 18.3218C3.49952 18.3681 3.4583 18.4076 3.41058 18.4379C3.36302 18.4681 3.30994 18.4886 3.25443 18.4981L1.67494 17.924ZM1.75202 18.7695L1.75222 18.6945L1.75191 18.7695C1.75195 18.7695 1.75199 18.7695 1.75202 18.7695Z" fill="#444D56" stroke="#444D56" stroke-width="0.15"/>
<path d="M2.23684 15.6547L2.23673 15.6547C2.22219 15.6548 2.20766 15.6541 2.19319 15.6526C2.19312 15.6526 2.19305 15.6526 2.19298 15.6525L0.75282 15.5047L0.752817 15.5047L0.750657 15.5044C0.640836 15.4899 0.540971 15.4332 0.472214 15.3464C0.403456 15.2595 0.371206 15.1493 0.382289 15.0391C0.393372 14.9289 0.446921 14.8273 0.531594 14.7559C0.616267 14.6844 0.725415 14.6488 0.835927 14.6564L0.835929 14.6564L0.838411 14.6566L2.27896 14.8045L2.27896 14.8045L2.27947 14.8046C2.38754 14.8164 2.487 14.8691 2.55751 14.9519C2.62802 15.0346 2.66426 15.1412 2.65882 15.2498C2.65337 15.3583 2.60665 15.4607 2.52821 15.536C2.44978 15.6113 2.34555 15.6538 2.23684 15.6547Z" fill="#444D56" stroke="#444D56" stroke-width="0.15"/>
<path d="M2.13572 12.6549L2.1358 12.6549C2.23484 12.6552 2.3309 12.621 2.40748 12.5582C2.48405 12.4954 2.53636 12.4078 2.55543 12.3106C2.5745 12.2134 2.55913 12.1126 2.51196 12.0255C2.46481 11.9385 2.38884 11.8705 2.29707 11.8334C2.29703 11.8334 2.29699 11.8333 2.29696 11.8333L0.956078 11.2857L0.956064 11.2857C0.85136 11.2429 0.733964 11.2435 0.629705 11.2873C0.525445 11.3312 0.442861 11.4146 0.40012 11.5193C0.357378 11.624 0.357984 11.7414 0.401798 11.8457C0.445611 11.9499 0.529042 12.0325 0.633741 12.0752L2.13572 12.6549ZM2.13572 12.6549C2.08055 12.6547 2.02593 12.6439 1.97485 12.623C1.97485 12.623 1.97484 12.623 1.97484 12.623L0.633754 12.0752L2.13572 12.6549Z" fill="#444D56" stroke="#444D56" stroke-width="0.15"/>
<path d="M2.88502 9.74782L2.88473 9.74782C2.78881 9.74741 2.69583 9.71466 2.62082 9.65488L2.62081 9.65486L1.48805 8.75154L1.48803 8.75153C1.44425 8.71659 1.40778 8.67338 1.3807 8.62435C1.35362 8.57532 1.33646 8.52143 1.33021 8.46577C1.32395 8.41012 1.32872 8.35377 1.34424 8.29995C1.35976 8.24613 1.38573 8.1959 1.42067 8.15212C1.4556 8.10834 1.49882 8.07187 1.54785 8.04479C1.59688 8.01771 1.65076 8.00056 1.70642 7.9943C1.76208 7.98805 1.81843 7.99282 1.87224 8.00834C1.92606 8.02386 1.97629 8.04983 2.02007 8.08476L2.0201 8.08479L3.15146 8.98846L3.15149 8.98849C3.22051 9.04368 3.27067 9.11895 3.29504 9.2039C3.31941 9.28884 3.31678 9.37926 3.28752 9.46265C3.25826 9.54603 3.20381 9.61827 3.1317 9.66935C3.05959 9.72044 2.97339 9.74786 2.88502 9.74782Z" fill="#444D56" stroke="#444D56" stroke-width="0.15"/>
<path d="M4.42373 7.16997H4.42368C4.35509 7.17005 4.2875 7.15358 4.22664 7.12196C4.16578 7.09034 4.11344 7.04451 4.07407 6.98834L3.2421 5.80256L3.24208 5.80257L3.24107 5.80105C3.17938 5.70842 3.15636 5.59533 3.17693 5.48596C3.1975 5.37658 3.26002 5.27958 3.35114 5.21568C3.44226 5.15178 3.55476 5.12604 3.6646 5.14396C3.77444 5.16188 3.87292 5.22205 3.939 5.3116L3.93902 5.31159L3.94005 5.31306L4.77204 6.49887L4.77206 6.49889C4.8168 6.56272 4.84319 6.6376 4.84836 6.71537C4.85352 6.79315 4.83726 6.87085 4.80135 6.94004C4.76544 7.00922 4.71125 7.06724 4.64468 7.10778C4.5781 7.14832 4.50168 7.16983 4.42373 7.16997Z" fill="#444D56" stroke="#444D56" stroke-width="0.15"/>
<path d="M7.02906 4.56549L7.02904 4.56543L6.5648 3.19378C6.54775 3.13994 6.52017 3.09002 6.48367 3.04692C6.44698 3.0036 6.402 2.96805 6.35139 2.94234C6.30078 2.91664 6.24554 2.9013 6.18892 2.89723C6.13229 2.89316 6.07543 2.90043 6.02166 2.91863C5.96789 2.93683 5.91829 2.96558 5.87578 3.00321C5.83327 3.04083 5.7987 3.08656 5.7741 3.13772C5.7495 3.18888 5.73536 3.24444 5.73252 3.30114C5.72969 3.35755 5.7381 3.41395 5.75725 3.46708L6.22113 4.83869C6.22113 4.8387 6.22113 4.83871 6.22114 4.83872C6.24967 4.92318 6.30397 4.99658 6.37638 5.04858C6.4488 5.10057 6.53569 5.12856 6.62483 5.12861C6.62485 5.12861 6.62487 5.12861 6.62488 5.12861L7.02906 4.56549ZM7.02906 4.56549C7.06519 4.67258 7.05734 4.78963 7.00721 4.89092C6.95713 4.99212 6.86895 5.06932 6.76202 5.10558L7.02906 4.56549Z" fill="#444D56" stroke="#444D56" stroke-width="0.15"/>
<path d="M9.31238 3.79348C9.20234 3.79358 9.09652 3.75112 9.01706 3.675C8.9376 3.59888 8.89065 3.49498 8.88603 3.38504L8.88603 3.38494L8.827 1.93738L8.827 1.93735C8.82473 1.88137 8.83351 1.82549 8.85284 1.77291C8.87217 1.72032 8.90166 1.67205 8.93965 1.63087C8.97763 1.58968 9.02335 1.55637 9.0742 1.53286C9.12505 1.50934 9.18004 1.49607 9.23602 1.4938C9.292 1.49153 9.34788 1.50031 9.40047 1.51964C9.45306 1.53897 9.50132 1.56847 9.54251 1.60645C9.5837 1.64443 9.617 1.69015 9.64052 1.74101C9.66403 1.79185 9.6773 1.84683 9.67957 1.9028C9.67957 1.90281 9.67957 1.90282 9.67957 1.90283L9.7386 3.35037L9.7386 3.35044C9.7431 3.46332 9.70262 3.57338 9.62604 3.65644C9.54945 3.73949 9.44304 3.78876 9.33016 3.79342L9.33016 3.79348H9.32707H9.31238ZM9.31238 3.79348L9.31231 3.71848V3.79348H9.31238Z" fill="#444D56" stroke="#444D56" stroke-width="0.15"/>
</svg>
