<svg width="26" height="26" viewBox="0 0 26 26" fill="none" xmlns="http://www.w3.org/2000/svg">
<g clip-path="url(#clip0)">
<path d="M1.15924 8.91008L1.15919 8.91004C0.835973 8.5859 0.654468 8.14684 0.654468 7.68909C0.654468 7.23135 0.835973 6.79228 1.15919 6.46815L1.15924 6.4681L7.46809 0.159255C7.4681 0.159251 7.4681 0.159247 7.46811 0.159243C7.62839 -0.00113967 7.8187 -0.128369 8.02817 -0.215174C8.23764 -0.301981 8.46217 -0.346661 8.68892 -0.346661C8.91567 -0.346661 9.1402 -0.301981 9.34967 -0.215174C9.55915 -0.128366 9.74946 -0.0011335 9.90975 0.159255L15.1266 5.37505L15.1266 5.37506C15.2018 5.45032 15.2441 5.55239 15.2441 5.65881C15.2441 5.76524 15.2018 5.8673 15.1266 5.94257L15.0912 5.90722L15.1266 5.94257L13.8147 7.25486L13.8145 7.25502C13.7548 7.31426 13.678 7.35334 13.5949 7.36679C13.5119 7.38023 13.4267 7.36738 13.3513 7.33002L13.3511 7.32994L12.1104 6.70975L7.70976 11.1104L8.32992 12.3511L1.15924 8.91008ZM1.15924 8.91008L6.37505 14.1266C6.4503 14.2019 6.55236 14.2442 6.6588 14.2442H6.65882M1.15924 8.91008L6.65882 14.2442M6.65882 14.2442C6.76525 14.2442 6.86732 14.2019 6.94257 14.1266C6.94257 14.1266 6.94257 14.1266 6.94258 14.1266L8.25487 12.8147L8.21951 12.7793L8.25487 12.8147C8.31447 12.7551 8.3538 12.6782 8.36727 12.595C8.38074 12.5118 8.36768 12.4265 8.32994 12.3511L6.65882 14.2442ZM6.86215 11.2107L6.86213 11.2107C6.82452 11.1353 6.81157 11.0501 6.82511 10.9669C6.83865 10.8838 6.87799 10.8071 6.93756 10.7476L6.93758 10.7475M6.86215 11.2107L6.97292 10.7829L6.93758 10.7475M6.86215 11.2107L7.48267 12.4515L6.65881 13.2753M6.86215 11.2107L6.65881 13.2753M6.93758 10.7475L11.7475 5.93758M6.93758 10.7475L11.7475 5.93758M11.7475 5.93758C11.7476 5.93758 11.7476 5.93757 11.7476 5.93756C11.8071 5.87799 11.8838 5.83865 11.967 5.82511C12.0501 5.81157 12.1354 5.82452 12.2107 5.86213L12.2107 5.86215L13.4515 6.48267L14.2753 5.65881M11.7475 5.93758L14.2753 5.65881M6.65881 13.2753L1.7261 8.34261L6.65881 13.2753ZM14.2753 5.65881L9.34303 0.726864C9.3429 0.726734 9.34276 0.726605 9.34263 0.726476C9.16653 0.558479 8.93249 0.464744 8.6891 0.464744C8.4457 0.464744 8.21166 0.558481 8.03556 0.726481L1.7261 7.03558L14.2753 5.65881ZM1.45588 7.68909C1.45588 7.44409 1.55304 7.20909 1.72606 7.03563L1.72606 8.34256C1.55304 8.1691 1.45588 7.93409 1.45588 7.68909Z" fill="#444D56" stroke="#444D56" stroke-width="0.1"/>
<path d="M3.3763 10.9608H3.37632C3.48253 10.9612 3.58456 10.9195 3.66008 10.8448L3.66027 10.8446L11.8457 2.65921L11.8463 2.65859C11.9194 2.58289 11.9599 2.48151 11.959 2.37628C11.958 2.27104 11.9158 2.17038 11.8414 2.09597C11.767 2.02155 11.6663 1.97934 11.5611 1.97843C11.4559 1.97751 11.3545 2.01797 11.2788 2.09108L11.2788 2.09107L11.2782 2.09168L3.09169 10.2782L3.09134 10.2785C3.03612 10.3349 2.99872 10.4062 2.98383 10.4837C2.96893 10.5612 2.97721 10.6413 3.00761 10.7141C3.03802 10.7869 3.08921 10.8492 3.15478 10.893L3.18259 10.8515L3.15478 10.893C3.22036 10.9369 3.29741 10.9605 3.3763 10.9608Z" fill="#444D56" stroke="#444D56" stroke-width="0.1"/>
<path d="M1.89676 9.08392L1.89711 9.08356L10.0836 0.897074L10.0842 0.896465C10.1599 0.823356 10.2613 0.782902 10.3665 0.783816C10.4718 0.784731 10.5724 0.82694 10.6468 0.901354C10.7213 0.975768 10.7635 1.07643 10.7644 1.18167C10.7653 1.2869 10.7248 1.38828 10.6517 1.46398L10.6511 1.4646L2.46604 9.64968L2.466 9.64972C2.4287 9.68693 2.3844 9.71638 2.33565 9.73638C2.28694 9.75636 2.23477 9.7665 2.18212 9.76621C2.18208 9.76621 2.18204 9.76621 2.18199 9.76621L2.18228 9.71621C2.11318 9.716 2.04568 9.69541 1.98822 9.65703C1.93077 9.61865 1.8859 9.56418 1.85924 9.50043L1.89676 9.08392ZM1.89676 9.08392C1.84151 9.14028 1.80411 9.21169 1.78923 9.28921C1.77435 9.36672 1.78266 9.44691 1.81311 9.51972L1.89676 9.08392Z" fill="#444D56" stroke="#444D56" stroke-width="0.1"/>
<path d="M20.3974 12.7829L18.1525 15.0278L18.1524 15.0279C18.1151 15.0651 18.0708 15.0947 18.022 15.1148C17.9733 15.1349 17.921 15.1453 17.8683 15.1452C17.7617 15.1451 17.6596 15.1027 17.5844 15.0273C17.5091 14.9519 17.4669 14.8496 17.467 14.7431C17.4671 14.6366 17.5096 14.5345 17.5849 14.4593L20.3974 12.7829ZM20.3974 12.7829L24.3784 16.764L17.764 23.3784L13.784 19.3963L16.0289 17.1514L16.0289 17.1514L16.0295 17.1508C16.1026 17.0751 16.1431 16.9737 16.1422 16.8685C16.1412 16.7632 16.099 16.6626 16.0246 16.5882C15.9502 16.5137 15.8495 16.4715 15.7443 16.4706C15.6391 16.4697 15.5377 16.5102 15.462 16.5833L15.462 16.5833L15.4614 16.5839L12.9317 19.1136L12.9316 19.1136C12.8564 19.1889 12.8141 19.2909 12.8141 19.3974C12.8141 19.5038 12.8564 19.6059 12.9316 19.6811L12.9317 19.6811L17.4802 24.2297C17.4802 24.2297 17.4802 24.2297 17.4802 24.2297C17.5555 24.305 17.6576 24.3473 17.764 24.3473H17.764C17.8704 24.3473 17.9725 24.305 18.0478 24.2297C18.0478 24.2297 18.0478 24.2297 18.0478 24.2297L25.2297 17.0477L25.1944 17.0124L25.2297 17.0477C25.305 16.9725 25.3472 16.8704 25.3472 16.764C25.3472 16.6576 25.305 16.5555 25.2297 16.4802C25.2297 16.4802 25.2297 16.4802 25.2297 16.4802L20.6822 11.9295L20.6822 11.9295L20.6812 11.9285C20.6048 11.8563 20.5036 11.816 20.3984 11.816C20.2933 11.816 20.1921 11.8563 20.1157 11.9285L20.1157 11.9285L20.1147 11.9295L17.585 14.4592L20.3974 12.7829Z" fill="#444D56" stroke="#444D56" stroke-width="0.1"/>
<path d="M10.6886 8.13136L17.585 15.0268L17.5856 15.0274C17.6613 15.1005 17.7627 15.1409 17.8679 15.14C17.9732 15.1391 18.0738 15.0969 18.1483 15.0225C18.2227 14.9481 18.2649 14.8474 18.2658 14.7422C18.2667 14.6369 18.2263 14.5356 18.1531 14.4599L18.1525 14.4592L10.9723 7.28008L10.9723 7.28006L10.9713 7.2791C10.8949 7.20685 10.7937 7.16658 10.6885 7.16658C10.5834 7.16658 10.4822 7.20685 10.4058 7.2791L10.4058 7.27909L10.4048 7.28008L8.28016 9.4047L8.28016 9.4047C8.20491 9.47997 8.16265 9.58204 8.16265 9.68846C8.16265 9.79488 8.20491 9.89695 8.28016 9.97222L8.28016 9.97222L15.4604 17.1524C15.4604 17.1524 15.4604 17.1524 15.4604 17.1524C15.5356 17.2277 15.6377 17.27 15.7441 17.27H15.7442C15.8235 17.27 15.9011 17.2465 15.9671 17.2024C16.0331 17.1583 16.0845 17.0956 16.1149 17.0223C16.1452 16.9489 16.1532 16.8682 16.1377 16.7904C16.1222 16.7126 16.084 16.6411 16.0279 16.5849L16.0279 16.5849L9.13145 9.68846L10.6886 8.13136Z" fill="#444D56" stroke="#444D56" stroke-width="0.1"/>
<path d="M23.5541 15.3732L23.5541 15.3732L21.05 17.8773L21.0498 17.8774C21.0123 17.9146 20.9678 17.9441 20.9188 17.9641C20.8698 17.9841 20.8174 17.9942 20.7645 17.9938L20.7648 17.9438L20.7649 17.9938C20.6854 17.9939 20.6077 17.9705 20.5416 17.9264C20.4754 17.8823 20.4239 17.8196 20.3934 17.7461C20.363 17.6727 20.355 17.5919 20.3706 17.5139C20.3861 17.436 20.4245 17.3645 20.4807 17.3083L23.5541 15.3732ZM23.5541 15.3732C23.5914 15.3358 23.621 15.2914 23.6412 15.2426C23.6614 15.1938 23.6718 15.1414 23.6717 15.0886C23.6717 15.0358 23.6612 14.9835 23.641 14.9347C23.6207 14.8859 23.5911 14.8416 23.5537 14.8042L23.5187 14.8393L23.5537 14.8042C23.5163 14.7669 23.4719 14.7373 23.4231 14.7171C23.3743 14.6969 23.322 14.6866 23.2691 14.6866C23.2163 14.6866 23.164 14.6971 23.1152 14.7173C23.0664 14.7376 23.0221 14.7672 22.9848 14.8046L23.5541 15.3732ZM22.9848 14.8046L20.4808 17.3083L22.9848 14.8046Z" fill="#444D56" stroke="#444D56" stroke-width="0.1"/>
<path d="M15.8042 21.9862L15.8042 21.9862L18.3086 19.4836C18.3459 19.4463 18.3902 19.4167 18.4389 19.3966C18.4876 19.3764 18.5398 19.3661 18.5925 19.3661C18.6453 19.3661 18.6974 19.3765 18.7461 19.3967C18.7948 19.4169 18.8391 19.4465 18.8763 19.4838C18.9136 19.521 18.9432 19.5653 18.9633 19.614C18.9835 19.6627 18.9938 19.7149 18.9938 19.7676C18.9938 19.8204 18.9834 19.8726 18.9632 19.9212C18.943 19.9699 18.9134 20.0142 18.8762 20.0514C18.8761 20.0514 18.8761 20.0514 18.8761 20.0514L16.3731 22.5541L16.3731 22.5542C16.3356 22.5915 16.2911 22.6212 16.2421 22.6413L15.8042 21.9862ZM15.8042 21.9862C15.7481 22.0424 15.7099 22.1139 15.6944 22.1917C15.6789 22.2696 15.6869 22.3503 15.7172 22.4236C15.7476 22.4969 15.799 22.5596 15.865 22.6037C15.931 22.6478 16.0086 22.6713 16.088 22.6714M15.8042 21.9862L16.088 22.6714M16.088 22.6714L16.088 22.6214L16.088 22.6714Z" fill="#444D56" stroke="#444D56" stroke-width="0.1"/>
<path d="M19.5703 16.7968L19.5706 16.7967C19.6761 16.796 19.777 16.7537 19.8516 16.6792C19.8516 16.6792 19.8516 16.6792 19.8516 16.6792L22.3567 14.1751L22.3568 14.1751L22.3586 14.1731C22.427 14.0967 22.4637 13.9971 22.4609 13.8945C22.4582 13.792 22.4164 13.6944 22.3439 13.6218C22.2715 13.5492 22.174 13.507 22.0715 13.504C21.969 13.501 21.8692 13.5373 21.7927 13.6056L21.7926 13.6055L21.7906 13.6076L19.2865 16.1116L19.2865 16.1116C19.2304 16.1678 19.1922 16.2393 19.1767 16.3171C19.1612 16.395 19.1692 16.4757 19.1995 16.549C19.2299 16.6223 19.2813 16.685 19.3473 16.7291C19.4133 16.7732 19.4909 16.7967 19.5703 16.7968Z" fill="#444D56" stroke="#444D56" stroke-width="0.1"/>
<path d="M17.1116 18.2844L17.1116 18.2844L17.1106 18.2855L14.6075 20.7895C14.5514 20.8457 14.5132 20.9172 14.4977 20.995C14.4823 21.0729 14.4902 21.1535 14.5206 21.2269C14.551 21.3002 14.6024 21.3629 14.6684 21.407C14.7344 21.4511 14.8119 21.4746 14.8913 21.4746H14.8913C14.9978 21.4746 15.0998 21.4323 15.1751 21.357L15.1751 21.357L17.6792 18.8516L17.6792 18.8516L17.6804 18.8503C17.7515 18.7741 17.7902 18.6733 17.7883 18.569C17.7864 18.4648 17.744 18.3654 17.6701 18.2919L17.6349 18.3273L17.6701 18.2919C17.5962 18.2184 17.4966 18.1765 17.3924 18.1751C17.2882 18.1737 17.1875 18.2129 17.1116 18.2844Z" fill="#444D56" stroke="#444D56" stroke-width="0.1"/>
<path d="M19.0806 16.7251H19.0807C19.3943 16.7251 19.6982 16.8338 19.9406 17.0328C20.183 17.2318 20.3489 17.5086 20.41 17.8162C20.4712 18.1237 20.4238 18.443 20.2759 18.7196C20.1281 18.9961 19.8889 19.2128 19.5992 19.3328C19.3095 19.4528 18.9871 19.4686 18.687 19.3775C18.3869 19.2864 18.1277 19.0941 17.9535 18.8333C17.7794 18.5726 17.701 18.2595 17.7318 17.9474C17.7626 17.6353 17.9006 17.3436 18.1224 17.1219L18.1225 17.1218C18.248 16.9956 18.3974 16.8956 18.5618 16.8275C18.7262 16.7594 18.9026 16.7246 19.0806 16.7251ZM17.8822 19.8747C18.2369 20.1118 18.654 20.2384 19.0807 20.2386C19.4357 20.2387 19.7852 20.1513 20.0983 19.9841C20.4114 19.8168 20.6784 19.5749 20.8757 19.2798C21.0729 18.9847 21.1944 18.6455 21.2292 18.2922C21.264 17.939 21.2112 17.5826 21.0753 17.2546C20.9395 16.9267 20.7248 16.6373 20.4504 16.4121C20.176 16.1869 19.8503 16.033 19.5021 15.9638C19.1539 15.8946 18.7941 15.9123 18.4544 16.0155C18.1148 16.1186 17.8058 16.304 17.5549 16.5551C17.2533 16.8569 17.0479 17.2414 16.9648 17.6599C16.8816 18.0784 16.9244 18.5122 17.0877 18.9064C17.251 19.3006 17.5274 19.6376 17.8822 19.8747Z" fill="#444D56" stroke="#444D56" stroke-width="0.1"/>
<path d="M20.0785 23.6696C20.3461 23.6702 20.6113 23.6178 20.8586 23.5153C21.1059 23.4129 21.3305 23.2624 21.5193 23.0726L24.0728 20.5191L24.0729 20.519C24.4544 20.1366 24.6686 19.6185 24.6686 19.0783C24.6686 18.5382 24.4544 18.02 24.0729 17.6376L24.0729 17.6376C23.9976 17.5623 23.8955 17.52 23.7891 17.52L23.7891 17.52C23.6826 17.52 23.5806 17.5623 23.5053 17.6376C23.5053 17.6376 23.5053 17.6376 23.5053 17.6376L18.6377 22.5052L18.6377 22.5052C18.5625 22.5805 18.5202 22.6825 18.5202 22.789C18.5202 22.8953 18.5624 22.9974 18.6376 23.0726C18.8264 23.2624 19.051 23.4129 19.2983 23.5154C19.5456 23.6178 19.8108 23.6702 20.0785 23.6696ZM20.0785 23.6696C20.0784 23.6696 20.0784 23.6696 20.0783 23.6696L20.0785 23.6196L20.0786 23.6696C20.0786 23.6696 20.0785 23.6696 20.0785 23.6696ZM20.2475 22.8483C20.0047 22.8822 19.7578 22.8446 19.5367 22.7409L23.7415 18.5361C23.849 18.7566 23.8887 19.0046 23.8548 19.2486C23.8177 19.5147 23.695 19.7615 23.5053 19.9516L20.9519 22.5046C20.9518 22.5047 20.9517 22.5048 20.9516 22.5049C20.7593 22.6911 20.5127 22.8114 20.2475 22.8483Z" fill="#444D56" stroke="#444D56" stroke-width="0.1"/>
</g>
<defs>
<clipPath id="clip0">
<rect width="26" height="26" fill="white"/>
</clipPath>
</defs>
</svg>
