<svg width="24" height="24" viewBox="0 0 24 24" fill="none" xmlns="http://www.w3.org/2000/svg">
<g clip-path="url(#clip0)">
<path d="M19.3314 14.7672L23.7656 17.0745C23.9372 17.1638 24.0448 17.3411 24.0448 17.5344C24.0448 17.7278 23.9372 17.9051 23.7656 17.9944L12.2401 23.9914C12.1651 24.0305 12.0829 24.05 12.0008 24.05C11.9186 24.05 11.8364 24.0304 11.7614 23.9915L11.7614 23.9914L0.235885 17.9944L0.258964 17.9501L0.235882 17.9944C0.0643062 17.9051 -0.0432861 17.7278 -0.0432861 17.5344C-0.0432861 17.3411 0.064306 17.1638 0.235883 17.0745L0.258964 17.1188L0.235884 17.0745L4.6701 14.7672L0.235885 12.46L0.258964 12.4156L0.235882 12.46C0.0643063 12.3707 -0.0432861 12.1933 -0.0432861 12C-0.0432861 11.8066 0.0643061 11.6293 0.235884 11.54L4.6701 9.23273L0.235885 6.92551L0.258964 6.88115L0.235882 6.9255C0.0643086 6.83622 -0.0432861 6.65893 -0.0432861 6.46553C-0.0432861 6.27213 0.0643026 6.09479 0.235893 6.00555M19.3314 14.7672L11.7845 0.0528839C11.9201 -0.017628 12.0814 -0.017628 12.217 0.0528839L16.1096 2.07828C16.3391 2.19771 16.4284 2.48065 16.309 2.71017M19.3314 14.7672L23.7656 12.46C23.9372 12.3707 24.0448 12.1933 24.0448 12C24.0448 11.8066 23.9372 11.6293 23.7656 11.54L19.3314 9.23278L23.7656 6.92555C23.9372 6.83626 24.0448 6.65893 24.0448 6.46558C24.0448 6.27222 23.9372 6.09489 23.7656 6.0056L19.8729 3.9801L19.8729 3.9801C19.6187 3.84794 19.3058 3.9467 19.1736 4.20073C19.0414 4.45475 19.1401 4.76788 19.3942 4.90006L22.4029 6.46553L12.0008 11.878L1.5986 6.46553L12.0008 1.05303M19.3314 14.7672L12.0008 1.05303M0.235893 6.00555L0.258964 6.04991L0.235885 6.00555L0.235893 6.00555ZM0.235893 6.00555L11.7614 0.00852896L11.7614 0.00852383C11.9115 -0.0695092 12.09 -0.0695056 12.2401 0.00852058L12.2401 0.00852892L16.1327 2.03393C16.3867 2.1661 16.4855 2.47923 16.3533 2.73325L16.309 2.71017M16.309 2.71017L16.3533 2.73326C16.2211 2.98723 15.9082 3.08605 15.654 2.95389L15.654 2.95388L12.0008 1.05303M16.309 2.71017L12.0008 1.05303M12.2401 12.9225L12.2401 12.9225L18.208 9.81726L19.4967 10.4878L9.11105 15.9089L7.34993 14.9925L11.5448 12.8099L11.7614 12.9225L11.7614 12.9225C11.8364 12.9615 11.9185 12.9811 12.0007 12.9811C12.0829 12.9811 12.1651 12.9615 12.2401 12.9225ZM11.7614 18.457L11.7614 18.457C11.8364 18.496 11.9186 18.5156 12.0008 18.5156C12.0829 18.5156 12.1651 18.4961 12.2401 18.457L18.208 15.3518L22.4029 17.5344L12.0008 22.9469L1.5986 17.5344L5.79352 15.3518L11.7614 18.457ZM8.66918 11.3136L10.4214 12.2253L6.22652 14.408L4.47427 13.4962L8.66918 11.3136ZM1.59855 11.9999L5.79351 9.81726L7.54577 10.729L3.35085 12.9117L1.59855 11.9999ZM22.4029 12L12.0008 17.4125L10.2333 16.4929L20.619 11.0718L22.4029 12Z" fill="#444D56" stroke="#444D56" stroke-width="0.1"/>
<path d="M18.1293 3.83362C18.0328 3.93013 17.8992 3.98554 17.7627 3.98554C17.6262 3.98554 17.4927 3.93012 17.3961 3.83363C17.2995 3.73711 17.2442 3.60351 17.2442 3.46702C17.2442 3.33052 17.2996 3.19693 17.3961 3.10043C17.4926 3.00392 17.6262 2.9485 17.7627 2.9485C17.8992 2.9485 18.0328 3.00392 18.1293 3.10043M18.1293 3.83362C18.2258 3.73712 18.2812 3.60353 18.2812 3.46702C18.2812 3.33053 18.2258 3.19694 18.1293 3.10043M18.1293 3.83362L18.0939 3.79826L18.1293 3.83362ZM18.1293 3.10043L18.0939 3.13578L18.1292 3.10042C18.1293 3.10042 18.1293 3.10043 18.1293 3.10043Z" fill="#444D56" stroke="#444D56" stroke-width="0.1"/>
</g>
<defs>
<clipPath id="clip0">
<rect width="24" height="24" fill="white"/>
</clipPath>
</defs>
</svg>
