<svg width="24" height="18" viewBox="0 0 24 18" fill="none" xmlns="http://www.w3.org/2000/svg">
<path d="M12.4267 12.4942C11.9635 12.4942 11.5794 12.1327 11.5512 11.6696V11.6357L8.57446 7.93597L12.3928 10.7432H12.4323C12.9181 10.7432 13.3078 11.133 13.3078 11.6187C13.3022 12.1045 12.9068 12.4942 12.4267 12.4942Z" fill="#444D56"/>
<path d="M16.8267 15.6461H7.17358V17.7642H16.8267V15.6461Z" fill="#444D56"/>
<path d="M1.46858 17.7642C0.508355 16.0132 0 14.0249 0 12.0028C0 8.79454 1.24829 5.78395 3.5133 3.51895C5.78395 1.24829 8.79454 0 12.0028 0C15.2111 0 18.2217 1.24829 20.4867 3.5133C22.7517 5.7783 24 8.79454 24 11.9972C24 14.0193 23.4916 16.0075 22.5314 17.7585H20.3624L18.8317 16.8717L19.4474 15.7985L21.5825 17.0299L21.639 16.9226C22.4297 15.3862 22.8308 13.7256 22.8308 11.9915C22.8308 11.6865 22.8195 11.3759 22.7912 11.0595L22.7799 10.9353L20.2325 11.3872L20.0179 10.1671L22.5936 9.71523L22.5653 9.60226C22.1078 7.59143 21.0911 5.75571 19.6112 4.29842L19.5265 4.2137L17.7811 6.29795L16.8322 5.50153L18.5888 3.40598L18.4928 3.33255C16.8153 2.07296 14.827 1.33302 12.7428 1.19181L12.6241 1.18616V3.97082H11.3872V1.18616L11.2685 1.19181C9.18428 1.33302 7.19605 2.07296 5.51848 3.33255L5.42245 3.40598L7.17345 5.50153L6.22452 6.29795L4.47917 4.2137L4.39445 4.29842C2.91457 5.75571 1.89786 7.59143 1.44034 9.60226L1.4121 9.71523L3.98776 10.1671L3.77312 11.3872L1.2257 10.9353L1.2144 11.0595C1.18616 11.3759 1.17486 11.6865 1.17486 11.9915C1.17486 13.7256 1.5759 15.3862 2.36667 16.9226L2.42316 17.0299L4.55825 15.7985L5.17392 16.8717L3.64321 17.7585H1.46858V17.7642Z" fill="#444D56"/>
</svg>
