<svg width="24" height="24" viewBox="0 0 24 24" fill="none" xmlns="http://www.w3.org/2000/svg">
<g clip-path="url(#clip0)">
<path d="M7.82405 11.7347C8.91724 11.7347 9.80641 10.8455 9.80641 9.75228C9.80641 8.6591 8.91719 7.76987 7.82405 7.76987C6.73083 7.76987 5.84165 8.6591 5.84165 9.75228C5.84165 10.8455 6.73083 11.7347 7.82405 11.7347ZM7.82405 8.673C8.41907 8.673 8.90329 9.15725 8.90329 9.75228C8.90329 10.3473 8.41907 10.8316 7.82405 10.8316C7.22903 10.8316 6.74478 10.3473 6.74478 9.75228C6.74478 9.15726 7.22903 8.673 7.82405 8.673Z" fill="#444D56" stroke="#444D56" stroke-width="0.2"/>
<path d="M11.9683 9.76449C13.0362 9.76449 13.905 8.8958 13.905 7.82784C13.905 6.75987 13.0363 5.89118 11.9683 5.89118C10.9003 5.89118 10.0316 6.75987 10.0316 7.82784C10.0316 8.8958 10.9003 9.76449 11.9683 9.76449ZM11.9683 6.79431C12.5381 6.79431 13.0018 7.25803 13.0018 7.82784C13.0018 8.39764 12.5381 8.86137 11.9683 8.86137C11.3985 8.86137 10.9347 8.39763 10.9347 7.82784C10.9347 7.25804 11.3985 6.79431 11.9683 6.79431Z" fill="#444D56" stroke="#444D56" stroke-width="0.2"/>
<path d="M8.57938 20.6536C9.64729 20.6536 10.516 19.7849 10.516 18.7169C10.516 17.6489 9.64734 16.7802 8.57938 16.7802C7.51142 16.7802 6.64268 17.6489 6.64268 18.7169C6.64268 19.7849 7.51142 20.6536 8.57938 20.6536ZM8.57938 17.6834C9.14918 17.6834 9.61291 18.1471 9.61291 18.717C9.61291 19.2868 9.14918 19.7505 8.57938 19.7505C8.00957 19.7505 7.5458 19.2867 7.5458 18.717C7.5458 18.1472 8.00957 17.6834 8.57938 17.6834Z" fill="#444D56" stroke="#444D56" stroke-width="0.2"/>
<path d="M12.9047 22.0414C13.9726 22.0414 14.8414 21.1727 14.8414 20.1048C14.8414 19.0368 13.9727 18.1681 12.9047 18.1681C11.8367 18.1681 10.968 19.0368 10.968 20.1048C10.968 21.1727 11.8367 22.0414 12.9047 22.0414ZM12.9047 19.0713C13.4745 19.0713 13.9382 19.535 13.9382 20.1048C13.9382 20.6746 13.4745 21.1383 12.9047 21.1383C12.3349 21.1383 11.8711 20.6746 11.8711 20.1048C11.8711 19.535 12.3349 19.0713 12.9047 19.0713Z" fill="#444D56" stroke="#444D56" stroke-width="0.2"/>
<path d="M3.88218 14.387C3.88218 15.624 4.88844 16.6303 6.12551 16.6303C7.36259 16.6303 8.36885 15.624 8.36885 14.387C8.36885 13.1499 7.36259 12.1436 6.12551 12.1436C4.88844 12.1436 3.88218 13.1499 3.88218 14.387ZM6.12551 13.0467C6.86439 13.0467 7.46573 13.648 7.46573 14.387C7.46573 15.1259 6.86443 15.7272 6.12551 15.7272C5.38659 15.7272 4.7853 15.1259 4.7853 14.387C4.7853 13.648 5.38659 13.0467 6.12551 13.0467Z" fill="#444D56" stroke="#444D56" stroke-width="0.2"/>
<path d="M12.0572 23.7774L12.0569 23.7774C6.68376 23.4501 2.06296 19.3848 2.06296 14.0183C2.06296 8.4122 7.1549 4.07497 13.103 4.25312C12.9129 3.74465 12.9143 3.3036 13.0099 2.91063C13.1094 2.50156 13.3107 2.1474 13.4898 1.83236C13.497 1.8197 13.5042 1.80711 13.5113 1.79459C13.7343 1.40178 13.9584 1.00641 14.0944 0.488552L14.0944 0.488539C14.25 -0.103741 14.9688 -0.298056 15.4021 0.133027L15.4021 0.133045C15.7816 0.510728 16.175 0.738231 16.5662 0.964004L16.5732 0.968057C17.2143 1.33805 17.8547 1.70761 18.1131 2.65776L18.0166 2.684L18.1131 2.65777C18.3713 3.60772 18.039 4.42179 17.6902 4.95968C17.7634 5.05415 17.8181 5.16291 17.8503 5.28156C17.8503 5.28157 17.8503 5.28158 17.8503 5.28159L17.8961 5.44984C18.7114 5.85904 19.4666 6.36306 20.1417 6.95258C21.8344 8.4307 21.3112 11.0668 19.378 11.919L20.6329 15.919C20.7075 16.1569 20.5751 16.4103 20.3372 16.485L20.3372 16.485C20.0991 16.5596 19.8458 16.4272 19.7712 16.1893L19.8666 16.1594L19.7712 16.1893L18.386 11.7741V11.7741L18.3815 11.7595V11.7594L17.8913 10.1969L17.0439 10.4273L17.0845 10.6032L17.2486 11.3138L17.7465 13.4703L18.2445 15.6268L18.4086 16.3374L18.4546 16.5365L18.4667 16.589L18.4698 16.6024L18.4706 16.6058L18.4708 16.6067L18.4708 16.6069L18.3734 16.6295L18.4709 16.607C18.8441 18.223 19.0758 19.2153 19.3982 20.1261C19.72 21.0351 20.133 21.8652 20.8714 23.153C20.8911 23.1874 20.9318 23.2042 20.9698 23.1938L20.9699 23.1938C21.0082 23.1834 21.0346 23.1484 21.0341 23.1088V23.1088C21.0337 23.0622 21.0332 23.0151 21.0328 22.9675C21.0211 21.7252 21.0061 20.1255 20.2624 17.7553L20.2624 17.7553C20.1878 17.5173 20.3202 17.2639 20.5581 17.1893L20.588 17.2847L20.5581 17.1893C20.7962 17.1146 21.0495 17.247 21.1241 17.4849L21.0287 17.5149L21.1241 17.4849C21.9119 19.9963 21.926 21.728 21.9355 22.9061C21.936 22.9723 21.9366 23.0367 21.9372 23.0995C21.9418 23.55 21.6415 23.9471 21.2068 24.0653L21.1805 23.9688L21.2068 24.0653C20.772 24.1835 20.3119 23.9931 20.0879 23.6023C20.0879 23.6023 20.0879 23.6023 20.0879 23.6023L12.0572 23.7774ZM12.0572 23.7774C12.0662 23.7779 12.0754 23.7782 12.0847 23.7782C12.3216 23.7782 12.5205 23.5937 12.5351 23.3541C12.5503 23.1052 12.3607 22.8911 12.1118 22.8759C6.97487 22.563 2.96608 18.6645 2.96608 14.0183C2.96608 8.76565 7.96116 4.69104 13.7013 5.19173C13.9519 5.44586 14.2515 5.65262 14.5649 5.8095C14.5498 5.93023 14.5591 6.05404 14.5902 6.16812L15.2726 8.67824C15.1152 8.88804 15.0637 9.15995 15.1323 9.41173L15.2979 10.0209C15.4037 10.4107 15.772 10.6703 16.1676 10.647L16.4577 11.903C15.3054 12.4456 14.6365 13.1818 14.6365 14.0184C14.6365 14.876 15.3491 15.6377 16.5643 16.1833L16.6052 16.0921L16.5643 16.1833C16.9726 16.3666 17.3261 16.6159 17.6172 16.9249C17.6309 16.9851 17.6443 17.0438 17.6574 17.1011C18.0039 18.6231 18.1266 19.162 18.394 19.9707L12.0572 23.7774ZM14.9121 0.913238C14.7443 1.45242 14.5063 1.87155 14.2977 2.23874L14.2967 2.24064C13.963 2.82818 13.7472 3.21545 13.9065 3.8016C14.07 4.40308 14.542 4.82545 15.1277 5.07544C15.1624 5.0613 15.2012 5.0478 15.237 5.03809M14.9121 0.913238L17.3381 2.86859M14.9121 0.913238C15.3281 1.29224 15.7459 1.53337 16.1117 1.74453L16.1148 1.74631L16.1648 1.6597M14.9121 0.913238L16.1648 1.6597M15.237 5.03809L15.2632 5.1346L15.237 5.0381L15.237 5.03809ZM15.237 5.03809L16.7204 4.63479L16.7204 4.63479C16.7551 4.62536 16.7949 4.6172 16.8336 4.61162M16.8336 4.61162C16.8251 4.62311 16.8167 4.63438 16.8083 4.64545L16.888 4.70583L16.879 4.60624C16.8644 4.60756 16.8491 4.60939 16.8336 4.61162ZM16.8336 4.61162C17.1196 4.22281 17.4333 3.59962 17.2416 2.89483L17.3381 2.86859M17.3381 2.86859L17.2416 2.89482C17.0823 2.30868 16.7 2.08407 16.1148 1.74631L16.1648 1.6597M17.3381 2.86859L16.1648 1.6597M16.5996 23.1392C17.5874 22.7913 18.3822 22.1101 18.8676 21.2285L18.4978 19.966C18.2354 21.1106 17.4508 21.988 16.3328 22.3817C15.4798 22.682 14.592 22.8745 13.6941 22.9536C13.5007 22.9706 13.3577 23.1412 13.3748 23.3346L13.2752 23.3434C13.2752 23.3434 13.2752 23.3434 13.2752 23.3434C13.297 23.5921 13.517 23.7752 13.7645 23.7536L13.7646 23.7536C14.7294 23.6686 15.6832 23.4619 16.5996 23.1392ZM19.0253 8.3532L19.0253 8.35317C18.9564 8.10025 18.7735 7.89244 18.5328 7.79178L18.2261 6.66362C18.6957 6.95088 19.1378 7.27502 19.5476 7.6329C20.7035 8.64226 20.3716 10.4249 19.1057 11.0514L18.7578 9.94226C19.1171 9.75762 19.295 9.34548 19.1909 8.96248L19.0253 8.3532ZM18.1537 8.58996L18.1537 8.59011L18.1537 8.58996ZM16.0176 9.22561L18.1676 8.64111L18.3055 9.14836L16.1555 9.73291L16.0176 9.22561ZM18.3194 9.19939C18.3193 9.19934 18.3193 9.19929 18.3193 9.19925L18.3193 9.19934L18.3194 9.19939ZM15.9667 9.23943C15.9666 9.23945 15.9666 9.23947 15.9665 9.23949L15.9666 9.23946L15.9667 9.23943ZM17.6143 7.85566L16.0971 8.26814L15.4617 5.93105L15.4616 5.93092C15.4607 5.92756 15.4609 5.92308 15.4638 5.91814C15.4668 5.91296 15.471 5.91032 15.4741 5.90948L16.9574 5.5062L16.9576 5.50614C16.9607 5.50528 16.9659 5.50549 16.9708 5.5081C16.9747 5.51019 16.9774 5.51322 16.9789 5.51851L16.9789 5.51853L17.6143 7.85566ZM15.8488 13.3822C16.0386 13.1839 16.3131 12.9885 16.6662 12.8064L17.2984 15.5439C17.1811 15.4774 17.0597 15.4157 16.9342 15.3594C16.4791 15.155 16.1269 14.9268 15.8902 14.6935C15.6526 14.4595 15.5396 14.2292 15.5396 14.0183C15.5396 13.817 15.6392 13.6014 15.8488 13.3822Z" fill="#444D56" stroke="#444D56" stroke-width="0.2"/>
</g>
<defs>
<clipPath id="clip0">
<rect width="24" height="24" fill="white"/>
</clipPath>
</defs>
</svg>
