<svg width="24" height="24" viewBox="0 0 24 24" fill="none" xmlns="http://www.w3.org/2000/svg">
<g clip-path="url(#clip0)">
<path d="M6.88139 1.57258L6.88138 1.57257L6.23811 0.929707C6.23811 0.929703 6.2381 0.929698 6.2381 0.929694C5.74342 0.434974 4.94134 0.434869 4.4466 0.929551L4.44655 0.929605L4.44647 0.929686L4.44645 0.929705L4.44639 0.929757L0.321108 5.05504C-0.173623 5.54972 -0.173732 6.35181 0.320954 6.84655L0.321008 6.84661L0.32112 6.84672L0.32116 6.84676L0.964387 7.48958L0.964398 7.48959L5.83156 12.3568C5.91698 12.4422 6.03281 12.4902 6.15368 12.4902H10.021L10.7322 13.2014H7.77607C7.52446 13.2014 7.32047 13.4054 7.32047 13.657V22.1746C7.32047 22.8742 7.88763 23.4414 8.58727 23.4414H9.39846C10.0981 23.4414 10.6653 22.8742 10.6653 22.1746V16.5462H12.1876V18.1186V18.1187C12.189 19.2657 13.1186 20.1953 14.2656 20.1966H14.2656C14.5172 20.1966 14.7212 19.9926 14.7212 19.741V16.5462H16.2463C16.2712 16.7743 16.4645 16.9518 16.6992 16.9518H18.3216C18.5732 16.9518 18.7772 16.7478 18.7772 16.4962V13.2514C18.7772 12.9998 18.5732 12.7958 18.3216 12.7958H16.6992C16.4645 12.7958 16.2712 12.9734 16.2463 13.2014H14.4543L11.8821 10.6292V6.76187C11.8821 6.641 11.834 6.52517 11.7486 6.43976L6.88139 1.57258ZM0.965283 5.69932L0.965335 5.69927L5.09067 1.57393L5.0907 1.57391C5.22946 1.43496 5.45465 1.43483 5.5936 1.57364L5.59361 1.57366L5.59372 1.57376L5.59388 1.57393L5.59391 1.57396L5.91465 1.89469L1.28648 6.52326L0.965315 6.20246L0.92998 6.23784L0.965312 6.20246C0.826366 6.06369 0.826231 5.83851 0.965048 5.69956L0.965283 5.69932ZM8.23167 22.1746V14.1126H11.8321C12.0837 14.1126 12.2876 13.9086 12.2875 13.6569C12.2875 13.5361 12.2395 13.4203 12.1542 13.3349L12.1542 13.3349L10.8539 12.0346L11.4265 11.4621L13.9435 13.9792C14.0289 14.0646 14.1448 14.1126 14.2656 14.1126H16.2436V15.635H14.2656C14.014 15.635 13.81 15.839 13.81 16.0906V19.1929C13.3814 19.0106 13.0994 18.5889 13.0988 18.1186V16.0906C13.0988 15.839 12.8949 15.635 12.6432 15.635H10.2097C9.95805 15.635 9.75406 15.839 9.75406 16.0906V22.1746C9.75406 22.371 9.59484 22.5302 9.39846 22.5302H8.58727C8.39089 22.5302 8.23167 22.371 8.23167 22.1746ZM6.34231 11.579L1.93073 7.16747L6.55928 2.53892L10.9709 6.9505V10.6292L10.021 11.579H6.34231ZM17.866 16.0406H17.1548V13.707H17.866V16.0406Z" fill="#444D56" stroke="#444D56" stroke-width="0.1"/>
<path d="M20.0281 12.9287L20.0281 12.9287C20.2046 12.7582 20.4846 12.7582 20.6612 12.9287M20.0281 12.9287L20.6612 12.9287M20.0281 12.9287L20.0275 12.9293L19.2166 13.7402C19.0359 13.9151 19.031 14.2033 19.2057 14.3841C19.3806 14.5651 19.669 14.5701 19.8499 14.3953L19.85 14.3952C19.8534 14.392 19.8571 14.3883 19.8609 14.3844M20.0281 12.9287L19.8609 14.3844M20.6612 12.9287C20.8421 13.1035 20.8471 13.392 20.6723 13.5729L20.6717 13.5736L20.6717 13.5736L19.8609 14.3844M20.6612 12.9287L19.8609 14.3844" fill="#444D56" stroke="#444D56" stroke-width="0.1"/>
<path d="M20.6724 16.8078C20.8429 16.6312 20.8429 16.3513 20.6724 16.1747L20.6724 16.1747L20.6718 16.1741L19.8606 15.3629L19.8606 15.3629L19.86 15.3623C19.679 15.1875 19.3906 15.1925 19.2157 15.3735C19.0452 15.55 19.0452 15.83 19.2157 16.0065L19.2157 16.0065L19.2163 16.0071L20.0275 16.8183L20.0275 16.8183L20.0282 16.8189C20.2091 16.9938 20.4975 16.9888 20.6724 16.8078ZM20.6724 16.8078L20.6364 16.773M20.6724 16.8078C20.6724 16.8078 20.6724 16.8078 20.6724 16.8078L20.6364 16.773M20.6364 16.773C20.4808 16.9342 20.224 16.9386 20.0629 16.783L19.2517 15.9718C19.0999 15.8146 19.0999 15.5654 19.2517 15.4082C19.4073 15.2471 19.6641 15.2426 19.8252 15.3983L20.6364 16.2095C20.7882 16.3666 20.7882 16.6159 20.6364 16.773Z" fill="#444D56" stroke="#444D56" stroke-width="0.1"/>
<path d="M22.2948 18.4302C22.4654 18.2537 22.4654 17.9737 22.2948 17.7971L22.2948 17.7971L22.2942 17.7965L21.483 16.9853L21.483 16.9853L21.4824 16.9847C21.3014 16.8099 21.013 16.8149 20.8382 16.9959C20.6676 17.1724 20.6676 17.4524 20.8382 17.6289L20.8382 17.6289L20.8388 17.6296L21.65 18.4408L21.65 18.4408L21.6506 18.4414C21.8316 18.6162 22.12 18.6112 22.2948 18.4302ZM22.2948 18.4302L22.2589 18.3955M22.2948 18.4302C22.2948 18.4302 22.2948 18.4302 22.2948 18.4302L22.2589 18.3955M22.2589 18.3955C22.1032 18.5566 21.8465 18.561 21.6853 18.4054L20.8741 17.5942C20.7223 17.437 20.7223 17.1878 20.8741 17.0306C21.0298 16.8695 21.2865 16.865 21.4477 17.0207L22.2589 17.8319C22.4107 17.989 22.4107 18.2383 22.2589 18.3955Z" fill="#444D56" stroke="#444D56" stroke-width="0.1"/>
<path d="M23.9171 20.0526C24.0877 19.876 24.0877 19.596 23.9171 19.4195L23.9171 19.4195L23.9165 19.4189L23.1053 18.6077L23.1053 18.6077L23.1047 18.6071C22.9237 18.4323 22.6353 18.4373 22.4605 18.6183C22.2899 18.7948 22.2899 19.0748 22.4605 19.2513L22.4605 19.2513L22.4611 19.2519L23.2723 20.0631L23.2723 20.0631L23.2729 20.0637C23.4539 20.2386 23.7423 20.2335 23.9171 20.0526ZM23.9171 20.0526L23.8812 20.0178M23.9171 20.0526C23.9171 20.0526 23.9171 20.0526 23.9171 20.0526L23.8812 20.0178M23.8812 20.0178C23.7255 20.1789 23.4688 20.1834 23.3076 20.0278L22.4965 19.2166C22.3446 19.0594 22.3446 18.8102 22.4965 18.653C22.6521 18.4919 22.9088 18.4874 23.07 18.6431L23.8812 19.4542C24.033 19.6114 24.033 19.8606 23.8812 20.0178Z" fill="#444D56" stroke="#444D56" stroke-width="0.1"/>
<path d="M22.2941 11.3069L22.2941 11.3069C22.1162 11.1291 21.8278 11.1291 21.6499 11.3069L21.6499 11.3069L20.839 12.1178C20.6583 12.2927 20.6534 12.5809 20.8282 12.7618C21.003 12.9427 21.2914 12.9477 21.4724 12.7729L21.4724 12.7728C21.4758 12.7696 21.4796 12.7659 21.4833 12.762L22.2941 11.9512L22.2941 11.9512C22.472 11.7732 22.472 11.4849 22.2941 11.3069Z" fill="#444D56" stroke="#444D56" stroke-width="0.1"/>
<path d="M23.9059 9.68393L23.9059 9.68393C24.0868 9.85872 24.0918 10.1472 23.9171 10.3281L23.9165 10.3288L23.9164 10.3288L23.1055 11.1397L23.1052 11.14L23.0699 11.1046C23.0666 11.108 23.0634 11.1113 23.06 11.1145L23.9059 9.68393ZM23.9059 9.68393C23.7293 9.51342 23.4494 9.51343 23.2728 9.68392L23.2728 9.68392L23.2722 9.68454L22.4613 10.4954C22.2807 10.6703 22.2757 10.9585 22.4505 11.1393C22.6253 11.3203 22.9136 11.3253 23.0946 11.1506L23.9059 9.68393Z" fill="#444D56" stroke="#444D56" stroke-width="0.1"/>
<path d="M21.5664 14.4182H20.7552C20.5036 14.4182 20.2996 14.6222 20.2996 14.8738C20.2996 15.1254 20.5036 15.3294 20.7552 15.3294H21.5664C21.818 15.3294 22.022 15.1254 22.022 14.8738C22.022 14.6222 21.818 14.4182 21.5664 14.4182Z" fill="#444D56" stroke="#444D56" stroke-width="0.1"/>
<path d="M23.5944 14.4182H22.7832C22.5316 14.4182 22.3276 14.6222 22.3276 14.8738C22.3276 15.1254 22.5316 15.3294 22.7832 15.3294H23.5944C23.846 15.3294 24.05 15.1254 24.05 14.8738C24.05 14.6222 23.846 14.4182 23.5944 14.4182Z" fill="#444D56" stroke="#444D56" stroke-width="0.1"/>
</g>
<defs>
<clipPath id="clip0">
<rect width="24" height="24" fill="white"/>
</clipPath>
</defs>
</svg>
