<svg width="24" height="24" viewBox="0 0 24 24" fill="none" xmlns="http://www.w3.org/2000/svg">
<path d="M12.9719 20.7188C12.9719 21.9917 14.0083 23.0281 15.2812 23.0281H20.7188C21.9917 23.0281 23.0281 21.9917 23.0281 20.7188V15.2812C23.0281 14.0083 21.9917 12.9719 20.7188 12.9719H15.2812C14.0083 12.9719 12.9719 14.0083 12.9719 15.2812V20.7188ZM13.8406 15.2812C13.8406 14.487 14.487 13.8406 15.2812 13.8406H20.7188C21.513 13.8406 22.1594 14.487 22.1594 15.2812V20.7188C22.1594 21.513 21.513 22.1594 20.7188 22.1594H15.2812C14.487 22.1594 13.8406 21.513 13.8406 20.7188V15.2812ZM0.971875 20.7188C0.971875 21.9917 2.00829 23.0281 3.28125 23.0281H8.71875C9.99171 23.0281 11.0281 21.9917 11.0281 20.7188V15.2812C11.0281 14.0083 9.99171 12.9719 8.71875 12.9719H3.28125C2.00829 12.9719 0.971875 14.0083 0.971875 15.2812V20.7188ZM1.84062 15.2812C1.84062 14.487 2.48702 13.8406 3.28125 13.8406H8.71875C9.51298 13.8406 10.1594 14.487 10.1594 15.2812V20.7188C10.1594 21.513 9.51298 22.1594 8.71875 22.1594H3.28125C2.48702 22.1594 1.84062 21.513 1.84062 20.7188V15.2812ZM12.9719 8.71875C12.9719 9.99171 14.0083 11.0281 15.2812 11.0281H20.7188C21.9917 11.0281 23.0281 9.99171 23.0281 8.71875V3.28125C23.0281 2.00829 21.9917 0.971875 20.7188 0.971875H15.2812C14.0083 0.971875 12.9719 2.00829 12.9719 3.28125V8.71875ZM13.8406 3.28125C13.8406 2.48702 14.487 1.84062 15.2812 1.84062H20.7188C21.513 1.84062 22.1594 2.48702 22.1594 3.28125V8.71875C22.1594 9.51298 21.513 10.1594 20.7188 10.1594H15.2812C14.487 10.1594 13.8406 9.51298 13.8406 8.71875V3.28125ZM0.971875 8.71875C0.971875 9.99171 2.00829 11.0281 3.28125 11.0281H8.71875C9.99171 11.0281 11.0281 9.99171 11.0281 8.71875V3.28125C11.0281 2.00829 9.99171 0.971875 8.71875 0.971875H3.28125C2.00829 0.971875 0.971875 2.00829 0.971875 3.28125V8.71875ZM1.84062 3.28125C1.84062 2.48702 2.48702 1.84062 3.28125 1.84062H8.71875C9.51298 1.84062 10.1594 2.48702 10.1594 3.28125V8.71875C10.1594 9.51298 9.51298 10.1594 8.71875 10.1594H3.28125C2.48702 10.1594 1.84062 9.51298 1.84062 8.71875V3.28125Z" fill="#444D56" stroke="#444D56" stroke-width="0.4"/>
</svg>
