<svg width="26" height="26" viewBox="0 0 26 26" fill="none" xmlns="http://www.w3.org/2000/svg">
<g clip-path="url(#clip0)">
<path d="M10.7889 11.6585H10.7389V11.7085V12.5754V12.6254H10.7889H12.5223H12.5723V12.5754V11.7085V11.6585H12.5223H10.7889Z" fill="#444D56" stroke="#444D56" stroke-width="0.1"/>
<path d="M25.5918 10.3633L25.5919 10.3633C25.8298 10.3976 26.0066 10.6015 26.0066 10.8419V14.352V14.3522H25.9566C25.9589 15.0263 25.5482 15.6333 24.9212 15.8815L25.5918 10.3633ZM25.5918 10.3633L22.6583 9.94442L25.5918 10.3633ZM4.6355 13.9101C3.69756 13.7184 2.78185 14.3234 2.59 15.2614C2.39832 16.1995 3.00333 17.1152 3.94144 17.3069M4.6355 13.9101L2.63899 15.2714C2.82531 14.3605 3.71462 13.7729 4.62548 13.9591L4.62549 13.9591C5.40929 14.1192 5.97202 14.8088 5.97185 15.6089V15.6089C5.97185 15.7219 5.96038 15.8348 5.93777 15.9456C5.75161 16.8565 4.86231 17.444 3.95145 17.2579L3.94144 17.3069M4.6355 13.9101C5.44258 14.075 6.02203 14.7851 6.02185 15.6089L4.6355 13.9101ZM3.94144 17.3069L3.95145 17.2579C3.0404 17.0717 2.45284 16.1824 2.63898 15.2714L3.94144 17.3069ZM25.0899 14.3522V12.6254H25.0399M25.0899 14.3522L23.7898 12.5754H23.8398H25.0399V12.6254M25.0899 14.3522C25.091 14.6715 24.8963 14.9589 24.5994 15.0762M25.0899 14.3522L24.5994 15.0762M25.0399 12.6254H23.7898H23.7398V12.5754V11.7086V11.6586H23.7898H25.0399M25.0399 12.6254L25.0399 14.3522L25.0399 14.3523C25.0409 14.6511 24.8588 14.92 24.581 15.0297L24.5807 15.0298L23.4026 15.503M25.0399 11.6586L23.3644 15.1497C23.3664 15.163 23.3683 15.176 23.3703 15.1883L23.3703 15.1884C23.3721 15.1998 23.3741 15.2117 23.3762 15.2238C23.3816 15.2552 23.3873 15.2886 23.3906 15.3212L23.3906 15.3214C23.3934 15.3495 23.3949 15.381 23.3962 15.4094C23.397 15.4252 23.3977 15.4401 23.3985 15.4529C23.3992 15.4638 23.4003 15.4756 23.4013 15.488C23.4018 15.4929 23.4022 15.4979 23.4026 15.503M25.0399 11.6586V11.2608V11.6586ZM23.4026 15.503C23.404 15.5201 23.4054 15.5379 23.406 15.5555M23.4026 15.503L23.354 15.5225C23.3533 15.5134 23.3525 15.5043 23.3517 15.4952C23.3506 15.4822 23.3495 15.4693 23.3486 15.4562C23.3476 15.4414 23.3469 15.4255 23.3461 15.4093C23.3449 15.382 23.3435 15.3535 23.3409 15.3263C23.3377 15.2955 23.3325 15.2647 23.3272 15.234C23.3251 15.2214 23.3229 15.2089 23.3209 15.1963C23.3187 15.1824 23.3166 15.1686 23.3146 15.1548C23.3103 15.1256 23.306 15.097 23.3001 15.0702M23.406 15.5555L23.349 15.0595L23.3001 15.0702M23.406 15.5555L24.5994 15.0762M23.406 15.5555L24.5994 15.0762M23.3001 15.0702C23.2932 15.0387 23.2837 15.0044 23.2745 14.9709C23.2721 14.9624 23.2698 14.954 23.2675 14.9457L23.2821 14.8073C23.2821 14.8073 23.2821 14.8074 23.2821 14.8074C23.2908 14.8341 23.2981 14.8634 23.3049 14.8907C23.3086 14.9055 23.3122 14.9197 23.3157 14.9325L23.3157 14.9325C23.3179 14.9405 23.3202 14.9486 23.3225 14.9569C23.3318 14.9905 23.3417 15.0265 23.349 15.0595L23.3001 15.0702ZM21.9922 13.3203L22.0156 13.276C22.0156 13.2761 22.0157 13.2761 22.0157 13.2761C22.0529 13.2957 22.0847 13.3158 22.1223 13.3402L22.1224 13.3403C22.1398 13.3517 22.1578 13.3622 22.1767 13.3733L22.1771 13.3736C22.1955 13.3843 22.215 13.3957 22.2335 13.408L22.2337 13.4081C22.2601 13.4257 22.2862 13.4456 22.3104 13.4642C22.3194 13.471 22.3281 13.4776 22.3364 13.4839L22.3365 13.484C22.3457 13.4909 22.3559 13.4982 22.3666 13.5059C22.3895 13.5223 22.4148 13.5405 22.4381 13.5603L22.4381 13.5604C22.458 13.5774 22.4795 13.5974 22.4992 13.6158C22.5118 13.6276 22.5237 13.6386 22.5339 13.6478L22.5341 13.6479C22.5419 13.655 22.5502 13.6622 22.5587 13.6697C22.5801 13.6884 22.603 13.7084 22.6254 13.7311L22.6255 13.7312C22.6414 13.7474 22.6572 13.7651 22.6716 13.7814L22.6718 13.7815C22.6866 13.7982 22.6998 13.813 22.712 13.8254L22.7147 13.8282C22.7407 13.8544 22.7672 13.8813 22.7955 13.9154C22.8187 13.9433 22.8416 13.9744 22.8616 14.0017C22.8665 14.0083 22.8712 14.0146 22.8756 14.0207C22.8833 14.0311 22.8915 14.0417 22.8999 14.0526C22.9154 14.0728 22.9318 14.0942 22.9481 14.1176L22.9481 14.1176C22.9739 14.1547 22.9986 14.1956 23.0185 14.2313L21.6527 13.1168C21.6385 13.1117 21.6252 13.1066 21.6123 13.1017C21.5889 13.0928 21.5667 13.0844 21.5423 13.0767L21.5419 13.0766C21.504 13.0649 21.4647 13.0555 21.4272 13.0465C21.4142 13.0434 21.4014 13.0403 21.3889 13.0372L21.3883 13.0371C21.3751 13.0339 21.3621 13.0304 21.3481 13.0265L21.3412 13.0247C21.325 13.0202 21.3074 13.0155 21.2891 13.0117L21.289 13.0117C21.249 13.0035 21.2074 12.9978 21.1678 12.9925C21.1529 12.9904 21.1383 12.9884 21.1242 12.9864L21.1234 12.9863C21.1111 12.9846 21.0992 12.9826 21.0861 12.9803C21.0834 12.9799 21.0807 12.9794 21.0779 12.9789C21.0621 12.9763 21.0449 12.9735 21.027 12.9718M21.9922 13.3203C21.9673 13.307 21.938 13.2932 21.9088 13.2796C21.8969 13.274 21.8851 13.2685 21.8736 13.263C21.86 13.2565 21.8474 13.2502 21.8353 13.2442C21.8118 13.2325 21.79 13.2217 21.7657 13.2115L21.7852 13.1655C21.7569 13.1534 21.7207 13.1407 21.6873 13.129C21.6752 13.1248 21.6635 13.1207 21.6526 13.1168L21.6357 13.1639C21.6196 13.158 21.6056 13.1527 21.5925 13.1477C21.5702 13.1392 21.5504 13.1317 21.5272 13.1244C21.4909 13.1132 21.454 13.1043 21.4169 13.0954C21.4035 13.0922 21.3902 13.089 21.3768 13.0857C21.3626 13.0824 21.3487 13.0786 21.3348 13.0747C21.3164 13.0697 21.2979 13.0646 21.279 13.0607C21.2407 13.0528 21.2017 13.0475 21.1627 13.0422C21.1475 13.0401 21.1322 13.0381 21.1169 13.0358C21.1036 13.0341 21.0904 13.0318 21.0774 13.0296C21.059 13.0264 21.0408 13.0233 21.022 13.0215M21.9922 13.3203C22.0273 13.3388 22.0577 13.3578 22.095 13.3822M21.9922 13.3203L22.095 13.3822M21.022 13.0215L21.027 12.9718M21.022 13.0215L21.0267 12.9718C21.0268 12.9718 21.0269 12.9718 21.027 12.9718M21.022 13.0215C20.9353 13.0129 20.8487 13.0081 20.7577 13.0081L18.108 15.5584M21.027 12.9718C20.9387 12.963 20.8505 12.9581 20.7577 12.9581H20.7577C19.3112 12.9596 18.136 14.1183 18.108 15.5584M18.108 15.5584H14.7393V11.3251H19.4562C19.5844 11.3251 19.7074 11.2742 19.7979 11.1835L20.8966 10.0847C21.3554 10.3045 21.8017 10.5494 22.2336 10.8183C22.2336 10.8183 22.2337 10.8183 22.2337 10.8184L22.2601 10.7759L18.108 15.5584ZM22.206 13.4497C22.2309 13.4664 22.255 13.4848 22.2789 13.503C22.2881 13.51 22.2973 13.517 22.3065 13.5239C22.3176 13.5323 22.3287 13.5403 22.3399 13.5483L22.206 13.4497ZM22.206 13.4497C22.1885 13.4382 22.17 13.4274 22.1512 13.4163C22.1326 13.4054 22.1136 13.3943 22.095 13.3822M22.206 13.4497L22.095 13.3822M23.5362 16.4912L24.9396 15.928L20.9728 9.10848C19.0762 8.24937 17.0176 7.80607 14.9353 7.80836V7.75836L14.9352 7.75836L14.4239 7.75836L14.4239 7.75836C11.9581 7.76013 9.53181 8.37887 7.36613 9.55813L7.36609 9.55815L5.89138 10.3626C4.14817 10.3844 2.43886 10.849 0.924255 11.7124L0.924141 11.7124C0.294625 12.0735 -0.0940812 12.7433 -0.095166 13.4688V13.4689V16.0422C-0.095166 16.3093 0.121189 16.5256 0.388268 16.5256H1.80818C2.30313 17.8801 3.79658 18.5892 5.16165 18.1107C5.90806 17.8491 6.49709 17.2671 6.76822 16.5256H18.276C18.771 17.8801 20.2644 18.5892 21.6295 18.1107C22.3757 17.8491 22.9649 17.2671 23.2361 16.5256H23.3564C23.4179 16.5256 23.4788 16.514 23.5361 16.4912L23.5362 16.4912ZM19.2561 10.3586H14.7391V8.72505H14.9344L14.9345 8.72505C16.6492 8.72314 18.3486 9.04387 19.9443 9.67042L19.2561 10.3586ZM22.9071 14.1462C22.8913 14.1236 22.8763 14.104 22.8613 14.0846C22.8527 14.0734 22.8442 14.0622 22.8355 14.0505C22.8308 14.0441 22.8259 14.0375 22.821 14.0308C22.8009 14.0036 22.7792 13.974 22.757 13.9473C22.7301 13.9149 22.7049 13.8894 22.6788 13.8629L22.6764 13.8606C22.6632 13.8472 22.6493 13.8315 22.635 13.8154C22.6202 13.7987 22.605 13.7816 22.5898 13.7662C22.5688 13.745 22.5481 13.7268 22.5273 13.7086C22.5184 13.7009 22.5095 13.6931 22.5006 13.6851L22.9071 14.1462ZM21.0933 13.9591L21.1033 13.9101L21.0933 13.9591C21.8771 14.1192 22.4399 14.8088 22.4397 15.6089C22.4397 15.7219 22.4282 15.8348 22.4056 15.9456C22.2195 16.8565 21.3302 17.444 20.4191 17.2579C19.5082 17.0717 18.9207 16.1824 19.1068 15.2714C19.293 14.3605 20.1824 13.7729 21.0933 13.9591ZM13.7724 15.5589H6.93808C6.91143 14.1183 5.73546 12.9587 4.28847 12.9587C2.84148 12.9587 1.66533 14.1183 1.63868 15.5589H0.871525L0.871525 13.469C0.871525 13.469 0.871525 13.4689 0.871525 13.4689C0.872046 13.0899 1.07511 12.7399 1.40407 12.5517C2.81073 11.7485 4.40226 11.3258 6.02185 11.3253C6.02185 11.3253 6.02186 11.3253 6.02186 11.3253H13.7724V15.5589ZM13.7724 10.3586H7.9186C9.72598 9.39357 11.7256 8.84274 13.7724 8.7464V10.3586Z" fill="#444D56" stroke="#444D56" stroke-width="0.1"/>
</g>
<defs>
<clipPath id="clip0">
<rect width="26" height="26" fill="white"/>
</clipPath>
</defs>
</svg>
