<svg width="24" height="24" viewBox="0 0 24 24" fill="none" xmlns="http://www.w3.org/2000/svg">
<path d="M15.7968 23.4263H15.8718V23.3513V17.7957V17.7207H15.7968H6.20325H6.12825V17.7957V23.3513V23.4263H6.20325H15.7968ZM15.0731 22.6277H6.9269V18.5193H15.0731V22.6277Z" fill="#444D56" stroke="#444D56" stroke-width="0.15"/>
<path d="M15.3845 23.3484L15.3814 23.4263H15.4594H15.7059C17.3315 23.4263 18.3029 22.7363 18.8717 22.0078C19.4334 21.2883 19.5999 20.5352 19.6258 20.3834C19.8939 19.3644 19.8345 18.4901 19.4354 17.8192C19.143 17.3201 18.6765 16.9467 18.1255 16.7707L18.1255 16.7707C17.3996 16.5389 16.6738 16.7994 16.1312 17.1146C15.5962 17.4254 15.2246 17.7979 15.1814 17.8412C15.1806 17.842 15.1799 17.8426 15.1794 17.8432L15.1256 17.897L15.1801 17.95L15.6472 18.404L15.7083 18.4635L15.757 18.3986L15.7573 18.3982L15.7674 18.3881C15.7765 18.3792 15.7899 18.3663 15.8074 18.35C15.8422 18.3175 15.8929 18.2718 15.9566 18.2183C16.0843 18.111 16.2637 17.9728 16.4734 17.8451C16.8974 17.5871 17.4252 17.3847 17.8982 17.5363L17.8981 17.5364L17.9029 17.5376C17.9262 17.5434 18.3108 17.6563 18.6147 18.0397C18.9151 18.4187 19.1475 19.0757 18.8476 20.1924L18.845 20.202V20.2119V20.2415C18.832 20.3188 18.7159 20.9289 18.2577 21.5128C17.7889 22.1102 16.9571 22.6868 15.4884 22.6278L15.4135 22.6247L15.4105 22.6997L15.3845 23.3484Z" fill="#444D56" stroke="#444D56" stroke-width="0.15"/>
<path d="M6.29406 23.4264L6.29503 23.4263L6.54476 23.4231L6.62181 23.4221L6.61873 23.3451L6.59278 22.6965L6.58978 22.6215L6.51483 22.6245C5.04447 22.6835 4.21269 22.1069 3.7443 21.5095C3.28657 20.9258 3.1712 20.3157 3.15825 20.2383V20.2087V20.1989L3.15573 20.1894C2.85732 19.066 3.08979 18.409 3.39159 18.031C3.69662 17.6489 4.08407 17.537 4.11861 17.5274L4.11862 17.5274L4.12113 17.5266C4.59214 17.3767 5.11808 17.5835 5.53987 17.8445C5.74844 17.9735 5.92648 18.1126 6.05248 18.2197C6.11541 18.2731 6.16517 18.3184 6.19909 18.3502C6.21604 18.3661 6.22902 18.3787 6.23769 18.3871L6.24741 18.3967L6.24976 18.3991L6.2503 18.3996L6.2504 18.3997L6.2504 18.3997L6.25041 18.3997L6.30269 18.4527L6.35607 18.4008L6.8231 17.9467L6.87763 17.8937L6.82385 17.8399C6.82313 17.8392 6.82225 17.8383 6.82119 17.8373C6.77506 17.791 6.40539 17.4199 5.87591 17.1095C5.33648 16.7932 4.61558 16.5308 3.89765 16.7608C3.33454 16.932 2.85637 17.3087 2.55805 17.816L2.558 17.8161C2.15908 18.4966 2.09953 19.3612 2.36789 20.3809C2.39641 20.5308 2.56387 21.2861 3.12753 22.0074C3.69714 22.7363 4.66851 23.4264 6.29406 23.4264Z" fill="#444D56" stroke="#444D56" stroke-width="0.15"/>
<path d="M17.5274 17.2081L17.5455 17.2777L17.6159 17.2625L18.2451 17.1263L18.3207 17.1099L18.3019 17.0348L18.3014 17.0325C18.2717 16.9144 17.3187 13.1275 17.561 9.92724C17.6356 9.50423 17.6239 9.0705 17.5266 8.65211C17.4289 8.2325 17.2472 7.83705 16.9924 7.48969L16.9924 7.48962L16.9898 7.48637C16.4096 6.78208 15.4794 6.43095 14.2432 6.43095H7.76648C6.53036 6.43095 5.60014 6.78208 5.01994 7.48637L5.01986 7.4863L5.01744 7.48958C4.76319 7.83479 4.58125 8.22776 4.48251 8.64497C4.38405 9.06102 4.37036 9.49262 4.44223 9.91405C4.5643 11.5263 4.37972 13.2921 4.16375 14.6624C4.05576 15.3475 3.94008 15.9328 3.8514 16.3492C3.80707 16.5573 3.76949 16.7233 3.74298 16.8384L3.71202 16.9722L3.70361 17.0093L3.70113 17.0212L3.70012 17.0268L3.70011 17.0269C3.69996 17.0278 3.69905 17.0335 3.69905 17.04V17.0981L3.75533 17.1126L4.38452 17.2748L4.45699 17.2935L4.47582 17.221C4.51806 17.0586 5.50013 13.2036 5.23716 9.85004V9.81406H5.23832L5.23601 9.801C5.18085 9.48908 5.18774 9.16934 5.25628 8.86009C5.32461 8.5518 5.45287 8.25996 5.63376 8.00116C6.04523 7.50488 6.75097 7.24257 7.75675 7.24257H14.2432C15.2425 7.24257 15.9486 7.50488 16.3569 7.98867C16.5399 8.24655 16.6704 8.53794 16.7409 8.84624C16.8116 9.15552 16.8205 9.47573 16.7671 9.78847L16.7661 9.78829V9.80108V9.83706C16.5031 13.1906 17.4852 17.0456 17.5274 17.2081Z" fill="#444D56" stroke="#444D56" stroke-width="0.15"/>
<path d="M14.5902 18.5193H14.6652V18.4443V6.84325V6.76825H14.5902H13.9416H13.8666V6.84325V17.7207H8.13332V6.84325V6.76825H8.05832H7.40967H7.33467V6.84325V18.4443V18.5193H7.40967H14.5902Z" fill="#444D56" stroke="#444D56" stroke-width="0.15"/>
<path d="M7.73401 11.2504H7.65901V11.3254V11.9741V12.0491H7.73401H14.2659H14.3409V11.9741V11.3254V11.2504H14.2659H7.73401Z" fill="#444D56" stroke="#444D56" stroke-width="0.15"/>
<path d="M12.8388 7.24257H12.9138V7.16757V5.1373V5.0623H12.8388H9.16101H9.08601V5.1373V7.16757V7.24257H9.16101H12.8388ZM12.1152 6.44392H9.88466V5.86095H12.1152V6.44392Z" fill="#444D56" stroke="#444D56" stroke-width="0.15"/>
<path d="M7.55563 1.68877L7.55565 1.68851C7.58736 1.38157 7.73215 1.09741 7.96183 0.891334C8.19146 0.685305 8.48952 0.572069 8.79802 0.573652M7.55563 1.68877L8.79822 0.573653C8.79815 0.573653 8.79808 0.573653 8.79802 0.573652M7.55563 1.68877L7.27677 4.48055C7.27676 4.48066 7.27675 4.48077 7.27674 4.48088C7.25789 4.65474 7.27586 4.83062 7.32947 4.99707C7.38312 5.16364 7.47126 5.31703 7.58814 5.44726C7.70502 5.57749 7.84803 5.68164 8.00784 5.75291C8.16765 5.82419 8.34068 5.861 8.51566 5.86095L7.55563 1.68877ZM8.79802 0.573652H13.202H8.79802ZM8.12647 4.96541L8.18224 4.91526C8.14028 4.86859 8.10869 4.81354 8.08956 4.75376C8.07043 4.69398 8.06419 4.63082 8.07127 4.56845L8.07137 4.56746L8.35029 1.77503C8.36135 1.66429 8.4133 1.56166 8.49599 1.48719C8.57868 1.41271 8.68617 1.37175 8.79745 1.3723H8.79782L13.2021 1.3723L13.2025 1.3723C13.3142 1.37181 13.422 1.41316 13.5048 1.48821C13.5876 1.56326 13.6392 1.66657 13.6496 1.7778L13.6497 1.77828L13.9286 4.56747L13.9286 4.56747L13.9287 4.56845C13.9358 4.63082 13.9295 4.69398 13.9104 4.75376C13.8913 4.81354 13.8597 4.86859 13.8177 4.91526C13.7756 4.96174 13.7243 4.99885 13.6669 5.02418C13.6095 5.04955 13.5474 5.06253 13.4846 5.0623H13.4843L8.51566 5.0623L8.51538 5.0623C8.45261 5.06253 8.39049 5.04955 8.33306 5.02418C8.27564 4.99882 8.2242 4.96165 8.18209 4.9151L8.12647 4.96541ZM8.12647 4.96541C8.17564 5.01977 8.23571 5.06317 8.30276 5.09279C8.36982 5.12241 8.44236 5.13757 8.51566 5.1373L8.79782 1.2973C8.66787 1.29666 8.54236 1.34449 8.4458 1.43146C8.34924 1.51842 8.28857 1.63827 8.27566 1.76757L7.99674 4.56C7.98847 4.63291 7.99576 4.70674 8.01812 4.77662C8.04049 4.8465 8.07741 4.91085 8.12647 4.96541Z" fill="#444D56" stroke="#444D56" stroke-width="0.15"/>
</svg>
