<svg width="24" height="24" viewBox="0 0 24 24" fill="none" xmlns="http://www.w3.org/2000/svg">
<g clip-path="url(#clip0)">
<path d="M14.4762 21.7896L14.4819 21.7954L14.4892 21.799C14.782 21.9463 15.0774 21.9465 15.3703 21.7996L19.1367 20.1158L19.1452 20.112L19.1517 20.1054L19.1535 20.1037C19.2931 19.9633 19.4454 19.8101 19.4454 19.5088V19.5005L19.4427 19.4927L17.4893 13.7387C17.4893 13.7386 17.4893 13.7385 17.4893 13.7385C17.3453 13.3042 17.0224 12.9445 16.6302 12.7114C16.238 12.4783 15.7727 12.3695 15.3406 12.4419L15.3405 12.4417L15.3366 12.4427L14.781 12.5825C13.7744 12.7286 13.064 13.739 13.2062 14.8834L13.2062 14.8834L13.2063 14.8839L14.043 21.0561C14.0442 21.2108 14.1206 21.3603 14.2092 21.4851C14.2988 21.6113 14.4059 21.7189 14.4754 21.7889L14.4762 21.7896ZM14.9802 20.9123H14.9809L14.9796 20.9045L14.0035 14.7329V14.7327V14.7319V14.7311V14.7303V14.7294V14.7286V14.7278V14.727V14.7261V14.7253V14.7245V14.7237V14.7229V14.722V14.7212V14.7204V14.7196V14.7187V14.7179V14.7171V14.7163V14.7155V14.7146V14.7138V14.713V14.7122V14.7113V14.7105V14.7097V14.7089V14.7081V14.7072V14.7064V14.7056V14.7048V14.7039V14.7031V14.7023V14.7015V14.7007V14.6998V14.699V14.6982V14.6974V14.6965V14.6957V14.6949V14.6941V14.6932V14.6924V14.6916V14.6908V14.69V14.6891V14.6883V14.6875V14.6867V14.6858V14.685V14.6842V14.6834V14.6826V14.6817V14.6809V14.6801V14.6793V14.6784V14.6776V14.6768V14.676V14.6752V14.6743V14.6735V14.6727V14.6719V14.671V14.6702V14.6694V14.6686V14.6678V14.6669V14.6661V14.6653V14.6645V14.6636V14.6628V14.662V14.6612V14.6604V14.6595V14.6587V14.6579V14.6571V14.6562V14.6554V14.6546V14.6538V14.653V14.6521V14.6513V14.6505V14.6497V14.6488V14.648V14.6472V14.6464V14.6456V14.6447V14.6439V14.6431V14.6423V14.6414V14.6406V14.6398V14.639V14.6382V14.6373V14.6365V14.6357V14.6349V14.634V14.6332V14.6324V14.6316V14.6307V14.6299V14.6291V14.6283V14.6275V14.6266V14.6258V14.625V14.6242V14.6233V14.6225V14.6217V14.6209V14.6201V14.6192V14.6184V14.6176V14.6168V14.6159V14.6151V14.6143V14.6135V14.6127V14.6118V14.611V14.6102V14.6094V14.6085V14.6077V14.6069V14.6061V14.6053V14.6044V14.6036V14.6028V14.602V14.6011V14.6003V14.5995V14.5987V14.5979V14.597V14.5962V14.5954V14.5946V14.5937V14.5929V14.5921V14.5913V14.5905V14.5896V14.5888V14.588V14.5872V14.5863V14.5855V14.5847V14.5839V14.5831V14.5822V14.5814V14.5806V14.5798V14.5789V14.5781V14.5773V14.5765V14.5757V14.5748V14.574V14.5732V14.5724V14.5715V14.5707V14.5699V14.5691V14.5682V14.5674V14.5666V14.5658V14.565V14.5641V14.5633V14.5625V14.5617V14.5608V14.56V14.5592V14.5584V14.5576V14.5567V14.5559V14.5551V14.5543V14.5534V14.5526V14.5518V14.551V14.5502V14.5493V14.5485V14.5477V14.5469V14.546V14.5452V14.5444V14.5436V14.5428V14.5419V14.5411V14.5403V14.5395V14.5386V14.5378V14.537V14.5362V14.5354V14.5345V14.5337V14.5329V14.5321V14.5312V14.5304V14.5296V14.5288V14.528V14.5271V14.5263V14.5255V14.5247V14.5238V14.523V14.5222V14.5214V14.5206V14.5197V14.5189V14.5181V14.5173V14.5164V14.5156V14.5148V14.514V14.5132V14.5123V14.5115V14.5107V14.5099V14.509V14.5082V14.5074V14.5066V14.5057V14.5049V14.5041V14.5033V14.5025V14.5016V14.5008V14.5V14.4992V14.4983V14.4975V14.4967V14.4959V14.4951V14.4942V14.4934V14.4926V14.4918V14.4909V14.4901V14.4893V14.4885V14.4877V14.4868V14.486V14.4852V14.4844V14.4835V14.4827V14.4819V14.4811V14.4803V14.4794V14.4786V14.4778V14.477V14.4761V14.4753V14.4745V14.4737V14.4729V14.472V14.4712V14.4704V14.4696V14.4687V14.4679V14.4671V14.4663V14.4655V14.4646V14.4638V14.463V14.4622V14.4613V14.4605V14.4597V14.4589V14.4581V14.4572V14.4564V14.4556V14.4548V14.4539V14.4531V14.4523V14.4515V14.4507V14.4498V14.449V14.4482V14.4474V14.4465V14.4457V14.4449V14.4441V14.4432V14.4424V14.4416V14.4408V14.44V14.4391V14.4383V14.4375V14.4367V14.4358V14.435V14.4342V14.4334V14.4326V14.4317V14.4309V14.4301V14.4293V14.4284V14.4276V14.4268V14.426V14.4252V14.4243V14.4235V14.4227V14.4219V14.421V14.4202V14.4202L14.6177 14.9144C14.8969 15.1952 15.1663 15.4679 15.3013 15.8751C15.3013 15.8752 15.3014 15.8753 15.3014 15.8754L16.6835 20.1851L15.0579 21.0026C15.0285 21.0026 15.009 21.0023 14.9947 21.0007C14.9895 21.0002 14.9861 20.9995 14.9839 20.999C14.9834 20.9968 14.9827 20.9933 14.9821 20.9879C14.9803 20.9716 14.9802 20.9486 14.9802 20.9123ZM14.9302 13.5237V13.5252L14.9424 13.5222L15.4946 13.3833H15.6279C15.8272 13.3833 16.0627 13.4505 16.2654 13.5694C16.4684 13.6885 16.6321 13.8557 16.6967 14.0508L16.6969 14.0512L18.4959 19.3408L17.6122 19.7217L16.2342 15.4249C16.0909 14.8509 15.6643 14.4218 15.2498 14.0049L15.2448 13.9998L15.245 13.9996L15.2407 13.9961L14.6951 13.5572C14.7581 13.5408 14.8351 13.5237 14.9302 13.5237Z" fill="#444D56" stroke="#444D56" stroke-width="0.1"/>
<path d="M0.954279 3.83413L0.953857 3.83497L0.963231 3.8376L6.95056 5.51826C6.98073 5.54859 7.00513 5.57296 7.02604 5.59188C7.04915 5.6128 7.07048 5.62941 7.09381 5.64115C7.13687 5.66281 7.18047 5.664 7.23709 5.66403L9.31463 7.4751L9.58174 7.74377L12.3695 22.0446L12.3696 22.0448C12.5111 22.7567 12.9372 23.4766 13.6558 23.7657C14.357 24.0478 15.0732 24.1953 15.7906 23.7637L19.5241 22.0947C19.9528 22.5098 20.5183 22.6464 21.082 22.5046L21.0821 22.5053L21.0896 22.502L23.0419 21.6604C23.0421 21.6603 23.0423 21.6603 23.0425 21.6602C23.7656 21.3689 24.0573 20.4972 23.7666 19.9093L20.1517 10.9592L20.4076 10.7019L20.4078 10.7021L20.4112 10.6978C20.6962 10.3395 20.8413 9.94196 20.8232 9.55903C20.805 9.1754 20.6232 8.81187 20.2647 8.52307L16.0807 4.87573C15.9358 4.73045 15.7548 4.62114 15.5726 4.56616C15.3946 4.51244 15.2106 4.5093 15.0581 4.58161C14.848 4.58289 14.6701 4.61903 14.5087 4.69119C14.3445 4.76457 14.2 4.87406 14.0576 5.01737L14.0574 5.01722L14.0545 5.02072L13.3903 5.8224L11.8942 4.45432L11.8942 4.4543L11.893 4.45322L9.10226 2.06725L9.08823 2.05525H9.06977C9.04312 2.05525 9.01442 2.04854 8.97966 2.0362C8.9565 2.02798 8.93335 2.01833 8.90743 2.00753C8.89317 2.00158 8.87808 1.99529 8.86169 1.98869C8.77329 1.95313 8.66409 1.91619 8.51922 1.91494L2.10766 -0.0478197L2.10773 -0.0480528L2.10288 -0.0490278C1.74136 -0.121755 1.34557 -0.0489611 1.02212 0.131781C0.700059 0.311751 0.445209 0.601527 0.370599 0.967557L-0.0459986 1.9453L-0.05 1.95469V1.9649V1.96624C-0.0500001 2.17582 -0.0500002 2.38821 -0.0323552 2.58344C-0.0147022 2.77876 0.0209199 2.96142 0.0947616 3.10997L0.0983666 3.11722L0.104077 3.12296L0.108606 3.12752C0.384245 3.40477 0.667929 3.69012 0.954279 3.83413ZM15.4529 5.50893L15.4528 5.50902L15.4555 5.51136L19.6402 9.15932C19.7734 9.29372 19.8337 9.42171 19.8337 9.54385C19.8337 9.66637 19.773 9.79478 19.639 9.92965L19.6386 9.92929L19.6343 9.93501L19.2178 10.4936C19.1441 10.5686 19.1012 10.6498 19.1012 10.7368C19.1012 10.822 19.1424 10.9017 19.2132 10.9753L22.9769 20.2294L22.9768 20.2294L22.9785 20.2328C23.0418 20.3602 23.0412 20.4853 22.9947 20.5944C22.9479 20.7042 22.8532 20.8011 22.723 20.8669L20.7804 21.7044H20.7801H20.7793H20.7784H20.7776H20.7768H20.776H20.7752H20.7743H20.7735H20.7727H20.7719H20.7711H20.7703H20.7694H20.7686H20.7678H20.767H20.7662H20.7654H20.7645H20.7637H20.7629H20.7621H20.7613H20.7604H20.7596H20.7588H20.758H20.7572H20.7564H20.7555H20.7547H20.7539H20.7531H20.7523H20.7515H20.7506H20.7498H20.749H20.7482H20.7474H20.7465H20.7457H20.7449H20.7441H20.7433H20.7425H20.7416H20.7408H20.74H20.7392H20.7384H20.7376H20.7367H20.7359H20.7351H20.7343H20.7335H20.7326H20.7318H20.731H20.7302H20.7294H20.7286H20.7277H20.7269H20.7261H20.7253H20.7245H20.7237H20.7228H20.722H20.7212H20.7204H20.7196H20.7188H20.7179H20.7171H20.7163H20.7155H20.7147H20.7138H20.713H20.7122H20.7114H20.7106H20.7098H20.7089H20.7081H20.7073H20.7065H20.7057H20.7048H20.704H20.7032H20.7024H20.7016H20.7008H20.6999H20.6991H20.6983H20.6975H20.6967H20.6959H20.695H20.6942H20.6934H20.6926H20.6918H20.691H20.6901H20.6893H20.6885H20.6877H20.6869H20.686H20.6852H20.6844H20.6836H20.6828H20.682H20.6811H20.6803H20.6795H20.6787H20.6779H20.6771H20.6762H20.6754H20.6746H20.6738H20.673H20.6721H20.6713H20.6705H20.6697H20.6689H20.6681H20.6672H20.6664H20.6656H20.6648H20.664H20.6632H20.6623H20.6615H20.6607H20.6599H20.6591H20.6582H20.6574H20.6566H20.6558H20.655H20.6542H20.6533H20.6525H20.6517H20.6509H20.6501H20.6493H20.6484H20.6476H20.6468H20.646H20.6452H20.6443H20.6435H20.6427H20.6419H20.6411H20.6403H20.6394H20.6386H20.6378H20.637H20.6362H20.6354H20.6345H20.6337H20.6329H20.6321H20.6313H20.6304H20.6296H20.6288H20.628H20.6272H20.6264H20.6255H20.6247H20.6239H20.6231H20.6223H20.6215H20.6206H20.6198H20.619H20.6182H20.6174H20.6166H20.6157H20.6149H20.6141H20.6133H20.6125H20.6116H20.6108H20.61H20.6092H20.6084H20.6076H20.6067H20.6059H20.6051H20.6043H20.6035H20.6027H20.6018H20.601H20.6002H20.5994H20.5986H20.5977H20.5969H20.5961H20.5953H20.5945H20.5937H20.5928H20.592H20.5912H20.5904H20.5896H20.5888H20.5879H20.5871H20.5863H20.5855H20.5847H20.5838H20.583H20.5822H20.5814H20.5806H20.5798H20.5789H20.5781H20.5773H20.5765H20.5757H20.5749H20.574H20.5732H20.5724H20.5716H20.5708H20.5699H20.5691H20.5683H20.5675H20.5667H20.5659H20.565H20.5642H20.5634H20.5626H20.5618H20.561H20.5601H20.5593H20.5585H20.5577H20.5569H20.556H20.5552H20.5544H20.5536H20.5528H20.552H20.5511H20.5503H20.5495H20.5487H20.5479H20.5471H20.5462H20.5454H20.5446H20.5438H20.543H20.5422H20.5413H20.5405H20.5397H20.5389H20.5381H20.5372H20.5364H20.5356H20.5348H20.534H20.5332H20.5323H20.5315H20.5307H20.5299H20.5291H20.5283H20.5274H20.5266H20.5258H20.525H20.5242H20.5233H20.5225H20.5217H20.5209H20.5201H20.5193H20.5184H20.5176H20.5168H20.516H20.5152H20.5144H20.5135H20.5127H20.5119H20.5111H20.5103H20.5094H20.5086H20.5078H20.507H20.5062H20.5054H20.5045H20.5037H20.5029H20.5021H20.5013H20.5005H20.4996H20.4988H20.498H20.4972H20.4964H20.4955H20.4947H20.4939H20.4931H20.4923H20.4915H20.4906H20.4898H20.489H20.4882H20.4874H20.4866H20.4857H20.4849H20.4841H20.4833H20.4825H20.4816H20.4808H20.48H20.4792H20.4784H20.4776H20.4767H20.4759H20.4751H20.4743H20.4735H20.4727H20.4718H20.471H20.4702H20.4694H20.4686H20.4678H20.4669H20.4661H20.4653H20.4645H20.4637H20.4628H20.462H20.4612H20.4604H20.4596H20.4588H20.4579H20.4571H20.4563H20.4555H20.4547H20.4539H20.453H20.4522H20.4514H20.4506H20.4498H20.4489H20.4481H20.4473H20.4465H20.4457H20.4449H20.444H20.4432H20.4424H20.4416H20.4408H20.44H20.4391H20.4383H20.4375H20.4367H20.4359H20.435H20.4342H20.4334H20.4326H20.4318H20.431H20.4301H20.4293H20.4285H20.4277H20.4269H20.4261H20.4252H20.4244H20.4236H20.4228H20.422H20.4211H20.4203H20.4195H20.4187H20.4179H20.4171H20.4162H20.4154H20.4146H20.4138H20.413H20.4122H20.4113H20.4105H20.4097H20.4089H20.4081H20.4072H20.4064H20.4056H20.4048H20.404H20.4032H20.4023H20.4015H20.4007H20.3999H20.3991H20.3983H20.3974H20.3966H20.3958H20.395H20.3942H20.3934H20.3925H20.3917H20.3909H20.3901H20.3893H20.3884H20.3876H20.3868H20.386H20.3852H20.3844H20.3835H20.3827H20.3819H20.3811H20.3803H20.3795H20.3786H20.3778H20.377H20.3762H20.3754H20.3745H20.3737H20.3729H20.3721C20.3187 21.7044 20.261 21.677 20.2157 21.6314C20.1704 21.5858 20.143 21.5277 20.143 21.4737C20.143 21.4294 20.1317 21.3929 20.1101 21.3618C20.0894 21.3321 20.0613 21.3103 20.0337 21.2918C20.0192 21.2821 20.0045 21.2729 19.9895 21.2636C19.9449 21.2358 19.8982 21.2068 19.8494 21.1577L19.8347 21.143H19.814H19.8131H19.8123H19.8115H19.8107H19.8099H19.809H19.8082H19.8074H19.8066H19.8058H19.805H19.8041H19.8033H19.8025H19.8017H19.8009H19.8001H19.7992H19.7984H19.7976H19.7968H19.796H19.7952H19.7943H19.7935H19.7927H19.7919H19.7911H19.7903H19.7895H19.7886H19.7878H19.787H19.7862H19.7854H19.7846H19.7838H19.7829H19.7821H19.7813H19.7805H19.7797H19.7789H19.7781H19.7773H19.7764H19.7756H19.7748H19.774H19.7732H19.7724H19.7716H19.7708H19.77H19.7692H19.7684H19.7675H19.7667H19.7659H19.7651H19.7643H19.7635H19.7627H19.7619H19.7611H19.7603H19.7595H19.7587H19.7579H19.7571H19.7563H19.7555H19.7547H19.7539H19.7531H19.7523H19.7515H19.7507H19.7499H19.7491H19.7483H19.7475H19.7467H19.7459H19.7451H19.7443H19.7435H19.7427H19.7419H19.7411H19.7403H19.7395H19.7388H19.738H19.7372H19.7364H19.7356H19.7348H19.734H19.7332H19.7324H19.7317H19.7309H19.7301H19.7293H19.7285H19.7277H19.727H19.7262H19.7254H19.7246H19.7238H19.7231H19.7223H19.7215H19.7207H19.72H19.7192H19.7184H19.7176H19.7169H19.7161H19.7153H19.7146H19.7138H19.713H19.7122H19.7115H19.7107H19.71H19.7092H19.7084H19.7077H19.7069H19.7061H19.7054H19.7046H19.7039H19.7031H19.7023H19.7016H19.7008H19.7001H19.6993H19.6986H19.6978H19.6971H19.6963H19.6956H19.6948H19.6941H19.6933H19.6926H19.6918H19.6911H19.6904H19.6896H19.6889H19.6881H19.6874H19.6867H19.6859H19.6852H19.6845H19.6837H19.683H19.6823H19.6815H19.6808H19.6801H19.6793H19.6786H19.6779H19.6772H19.6764H19.6757H19.675H19.6743H19.6736H19.6728H19.6721H19.6714H19.6707H19.67H19.6693H19.6686H19.6679H19.6672H19.6664H19.6657H19.665H19.6643H19.6636H19.6629H19.6622H19.6615H19.6608H19.6601H19.6594H19.6588H19.6581H19.6574H19.6567H19.656H19.6553H19.6546H19.6539H19.6532H19.6526H19.6519H19.6512H19.6505H19.6499H19.6492H19.6485H19.6478H19.6472H19.6465H19.6458H19.6452H19.6445H19.6438H19.6432H19.6425H19.6418H19.6412H19.6405H19.6399H19.6392H19.6386H19.6379H19.6373H19.6366H19.636H19.6353H19.6347H19.634H19.6334H19.6327H19.6321H19.6315H19.6308H19.6302H19.6296H19.6289H19.6283H19.6277H19.627H19.6264H19.6258H19.6252H19.6246H19.6239H19.6233H19.6227H19.6221H19.6215H19.6209H19.6203H19.6197H19.619H19.6184H19.6178H19.6172H19.6166H19.616H19.6154H19.6149H19.6143H19.6137H19.6131H19.6125H19.6119H19.6113H19.6107H19.6102H19.6096H19.609H19.6084H19.6079H19.6073H19.6067H19.6061H19.6056H19.605H19.6044H19.6039H19.6033H19.6028H19.6022H19.6017H19.6011H19.6005H19.6H19.5995H19.5989H19.5984H19.5978H19.5973H19.5967H19.5962H19.5957H19.5951H19.5946H19.5941H19.5936H19.593H19.5925H19.592H19.5915H19.591H19.5904H19.5899H19.5894H19.5889H19.5884H19.5879H19.5874H19.5869H19.5864H19.5859H19.5854H19.5849H19.5844H19.5839H19.5834H19.583H19.5825H19.582H19.5815H19.581H19.5806H19.5801H19.5796H19.5791H19.5787H19.5782H19.5778H19.5773H19.5768H19.5764H19.5759H19.5755H19.575H19.5746H19.5741H19.5737H19.5732H19.5728H19.5724H19.5719H19.5715H19.5711H19.5706H19.5702H19.5698H19.5694H19.569H19.5685H19.5681H19.5677H19.5673H19.5669H19.5665H19.5661H19.5657H19.5653H19.5649H19.5645H19.5641H19.5637H19.5633H19.5629H19.5626H19.5622H19.5618H19.5614H19.5611H19.5607H19.5603H19.5599H19.5596H19.5592H19.5589H19.5585H19.5582H19.5578H19.5575H19.5571H19.5568H19.5564H19.5561H19.5557H19.5554H19.5551H19.5547H19.5544H19.5541H19.5538H19.5535H19.5531H19.5528H19.5525H19.5522H19.5519H19.5516H19.5513H19.551H19.5507H19.5504H19.5501H19.5498H19.5495H19.5492H19.549H19.5487H19.5484H19.5481H19.5479H19.5476H19.5473H19.5471H19.5468H19.5465H19.5463H19.546H19.5458H19.5455H19.5453H19.545H19.5448H19.5446H19.5443H19.5441H19.5439H19.5436H19.5434H19.5432H19.543H19.5428H19.5426H19.5424H19.5421H19.5419H19.5417H19.5415H19.5413H19.5412H19.541H19.5408H19.5406H19.5404H19.5402H19.5401H19.5399H19.5397H19.5395H19.5394H19.5392H19.5391H19.5389H19.5387H19.5386H19.5384H19.5383H19.5382H19.538H19.5379H19.5378H19.5376H19.5375H19.5374H19.5373H19.5371H19.537H19.5369H19.5368H19.5367H19.5366H19.5365H19.5364H19.5363H19.5362H19.5361H19.536H19.5359H19.5359H19.5358H19.5357H19.5356H19.5356H19.5355H19.5355H19.5354H19.5353H19.5353H19.5352H19.5352H19.5352H19.5351H19.5351H19.535H19.535H19.535H19.535H19.5349H19.5349H19.5349H19.5349H19.5245L19.5149 21.1471L15.3309 22.9708C14.9249 23.1063 14.3827 23.1068 13.9758 22.9722C13.5718 22.6993 13.3011 22.2913 13.1648 21.8821L10.3756 7.43382C10.3756 7.43262 10.3756 7.43142 10.3756 7.43023C10.3756 7.36809 10.3757 7.32174 10.3529 7.27598C10.3413 7.25256 10.3248 7.23113 10.304 7.20788C10.2863 7.18809 10.2638 7.16519 10.236 7.13727V7.0369L11.7259 5.40214L13.216 6.62845C13.2916 6.77405 13.4084 6.85701 13.5349 6.85701C13.6626 6.85701 13.7804 6.77249 13.8559 6.62434L14.6879 5.64795C14.751 5.58499 14.8137 5.55317 14.8829 5.51834L14.8845 5.51757C14.9492 5.48502 15.0196 5.44962 15.09 5.38335C15.2203 5.38371 15.335 5.39033 15.4529 5.50893ZM0.881983 2.26786L0.882756 2.26825L0.885307 2.25927L1.16438 1.27681L1.16628 1.27735V1.26315C1.16628 1.2092 1.1934 1.14979 1.24357 1.08251C1.29336 1.01574 1.36039 0.948177 1.43081 0.877348C1.49516 0.81262 1.55293 0.786832 1.60465 0.786832C1.65637 0.786832 1.71414 0.81262 1.7785 0.877348L1.78782 0.886723L1.80055 0.890266L8.32524 2.70552C8.32978 2.73234 8.33909 2.75561 8.35222 2.77542C8.37113 2.80395 8.396 2.82237 8.41939 2.83413C8.44259 2.8458 8.46518 2.85138 8.48156 2.85413C8.48523 2.85474 8.48865 2.85523 8.49177 2.8556L10.9512 4.91711L9.48397 6.52708L7.70841 5.01589L7.70833 5.01581C7.63968 4.94677 7.56784 4.8745 7.49523 4.81972C7.42481 4.7666 7.34687 4.72454 7.26363 4.72204L1.27036 2.89952L1.26325 2.89736H1.25581C1.14044 2.89736 1.01443 2.808 0.932004 2.67536C0.850034 2.54344 0.822733 2.38705 0.881983 2.26786Z" fill="#444D56" stroke="#444D56" stroke-width="0.1"/>
<path d="M2.1971 6.56123L2.19695 6.56108L2.19406 6.56458C1.84344 6.98779 1.28364 7.76209 0.811233 8.58923C0.574992 9.00287 0.360065 9.43066 0.204077 9.83507C0.0483663 10.2388 -0.05 10.6226 -0.05 10.9474C-0.05 11.658 0.231878 12.5182 0.807097 12.9522C1.36588 13.3737 2.07518 13.8044 2.7907 13.8044C3.49751 13.8044 4.35286 13.5207 4.78427 12.9422L4.7871 12.9384C5.20409 12.3791 5.6314 11.8061 5.6314 10.9474C5.6314 10.6228 5.5331 10.2302 5.37748 9.81575C5.22155 9.40046 5.00668 8.95953 4.77038 8.53699C4.29835 7.6929 3.73763 6.91663 3.3843 6.56123L3.38249 6.55942C3.24297 6.41907 3.09058 6.26578 2.7907 6.26578C2.49082 6.26578 2.33843 6.41907 2.1989 6.55942L2.1971 6.56123ZM2.7907 7.23684C3.13385 7.6613 3.59966 8.36846 3.98516 9.07653C4.18511 9.44381 4.36287 9.81025 4.4905 10.1366C4.6187 10.4645 4.69419 10.7467 4.69419 10.9474C4.69419 11.5049 4.55495 12.0433 4.1582 12.3093L4.14989 12.3149L4.14437 12.3232C3.87565 12.7287 3.33415 13.0026 2.7907 13.0026C2.23664 13.0026 1.70152 12.8627 1.43703 12.4636L1.43785 12.463L1.43081 12.456C1.22562 12.2496 1.09034 12.0448 1.006 11.8242C0.921579 11.6034 0.887209 11.3643 0.887209 11.0877C0.887209 10.851 0.96325 10.5419 1.09124 10.1949C1.21886 9.849 1.39657 9.46955 1.59647 9.09364C1.98185 8.36894 2.44759 7.66127 2.7907 7.23684Z" fill="#444D56" stroke="#444D56" stroke-width="0.1"/>
<path d="M11.1274 7.68402L11.1128 7.69864V7.71927V7.72009V7.72091V7.72172V7.72253V7.72334V7.72415V7.72495V7.72575V7.72654V7.72733V7.72812V7.72891V7.72969V7.73047V7.73125V7.73202V7.7328V7.73356V7.73433V7.73509V7.73585V7.73661V7.73736V7.73811V7.73886V7.7396V7.74034V7.74108V7.74182V7.74255V7.74328V7.74401V7.74473V7.74546V7.74617V7.74689V7.7476V7.74832V7.74902V7.74973V7.75043V7.75113V7.75183V7.75252V7.75321V7.7539V7.75459V7.75527V7.75596V7.75663V7.75731V7.75798V7.75865V7.75932V7.75999V7.76065V7.76131V7.76197V7.76263V7.76328V7.76393V7.76458V7.76523V7.76587V7.76651V7.76715V7.76779V7.76842V7.76905V7.76968V7.77031V7.77093V7.77156V7.77218V7.77279V7.77341V7.77402V7.77463V7.77524V7.77585V7.77645V7.77706V7.77766V7.77825V7.77885V7.77944V7.78004V7.78062V7.78121V7.7818V7.78238V7.78296V7.78354V7.78412V7.78469V7.78526V7.78584V7.7864V7.78697V7.78754V7.7881V7.78866V7.78922V7.78978V7.79033V7.79088V7.79144V7.79199V7.79253V7.79308V7.79362V7.79417V7.79471V7.79524V7.79578V7.79632V7.79685V7.79738V7.79791V7.79844V7.79896V7.79949V7.80001V7.80053V7.80105V7.80157V7.80209V7.8026V7.80312V7.80363V7.80414V7.80465V7.80515V7.80566V7.80616V7.80666V7.80717V7.80766V7.80816V7.80866V7.80915V7.80965V7.81014V7.81063V7.81112V7.81161V7.81209V7.81258V7.81306V7.81354V7.81403V7.8145V7.81498V7.81546V7.81594V7.81641V7.81688V7.81736V7.81783V7.8183V7.81876V7.81923V7.8197V7.82016V7.82063V7.82109V7.82155V7.82201V7.82247V7.82293V7.82339V7.82384V7.8243V7.82475V7.8252V7.82565V7.82611V7.82656V7.827V7.82745V7.8279V7.82835V7.82879V7.82923V7.82968V7.83012V7.83056V7.831V7.83144V7.83188V7.83232V7.83276V7.83319V7.83363V7.83406V7.8345V7.83493V7.83536V7.8358V7.83623V7.83666V7.83709V7.83752V7.83794V7.83837V7.8388V7.83923V7.83965V7.84008V7.8405V7.84093V7.84135V7.84177V7.8422V7.84262V7.84304V7.84346V7.84388V7.8443V7.84472V7.84514V7.84556V7.84598V7.84639V7.84681V7.84723V7.84765V7.84806V7.84848V7.84889V7.84931V7.84972V7.85014V7.85055V7.85097V7.85138V7.85179V7.85221V7.85262V7.85303V7.85345V7.85386V7.85427V7.85468V7.85509V7.85551V7.85592V7.85633V7.85674V7.85715V7.85756V7.85798V7.85839V7.8588V7.85921V7.85962V7.86003V7.86044V7.86085V7.86127V7.86168V7.86209V7.8625V7.86291V7.86332V7.86373V7.86415V7.86456V7.86497V7.86538V7.8658V7.86621V7.86662V7.86703V7.86745V7.86786V7.86827V7.86869V7.8691V7.86952V7.86993V7.87035V7.87076V7.87118V7.8716V7.87201V7.87243V7.87285V7.87326V7.87368V7.8741V7.87452V7.87494V7.87536V7.87578V7.8762V7.87662V7.87705V7.87747V7.87789V7.87831V7.87874V7.87916V7.87959V7.88001V7.88044V7.88087V7.8813V7.88172V7.88215V7.88258V7.88301V7.88345V7.88388V7.88431V7.88474V7.88518V7.88561V7.88605V7.88648V7.88692V7.88736V7.8878V7.88824V7.88868V7.88912V7.88956V7.89001V7.89045V7.8909V7.89134V7.89179V7.89224V7.89269V7.89313V7.89359V7.89404V7.89449V7.89494V7.8954V7.89586V7.89631V7.89677V7.89723V7.89769V7.89815V7.89861V7.89908V7.89954V7.90001V7.90048V7.90094V7.90141V7.90188V7.90236V7.90283V7.9033V7.90378V7.90426V7.90474V7.90522V7.9057V7.90618V7.90666V7.90715V7.90763V7.90812V7.90861V7.9091V7.90959V7.91009V7.91058V7.91108V7.91158V7.91208V7.91258V7.91308V7.91358V7.91409V7.91459V7.9151V7.91561V7.91612V7.91664V7.91715V7.91767V7.91819V7.91871V7.91923V7.91975V7.92028V7.9208V7.92133V7.92186V7.92239V7.92292V7.92346V7.924V7.92454V7.92508V7.92562V7.92616V7.92671V7.92726V7.9278V7.92836V7.92891V7.92946V7.93002V7.93058V7.93114V7.9317V7.93227V7.93284V7.93341V7.93398V7.93455V7.93512V7.9357V7.93628V7.93686V7.93744V7.93803V7.93862V7.93921V7.9398V7.94039V7.94099V7.94158V7.94218V7.94279V7.94339V7.944V7.94461V7.94522V7.94583V7.94645V7.94706V7.94768V7.94831V7.94893V7.94956V7.95019V7.95082V7.95145V7.95209V7.95273V7.95337V7.95401V7.95466V7.95531V7.95596V7.95661V7.95727V7.95793V7.95859V7.95925V7.95992V7.96059V7.96126V7.96193V7.96261V7.96329V7.96397V7.96465V7.96534V7.96603V7.96672V7.96741V7.96811V7.96881V7.96951V7.97022V7.97093V7.97164V7.97235V7.97307V7.97379V7.97451V7.97523V7.97596V7.97669V7.97742V7.97816V7.9789V7.97964V7.98038V7.98113V7.98188V7.98263V7.98339V7.98415V7.98491V7.98568V7.98644V7.98722V7.98799V7.98877V7.98955V7.99033V7.99112V7.99191V7.9927V7.99349V7.99429V7.99509V7.9959V7.99671V7.99752V7.99833V7.99915V7.99997H11.1122L11.1135 8.00814L11.2524 8.8464C11.2552 9.0246 11.4306 9.17278 11.721 9.17278H11.721H11.721H11.721H11.721H11.721H11.721H11.721H11.721H11.721H11.721H11.721H11.721H11.721H11.721H11.721H11.721H11.721H11.721H11.721H11.721H11.721H11.721H11.721H11.721H11.721H11.721H11.721H11.7211H11.7211H11.7211H11.7211H11.7211H11.7211H11.7211H11.7211H11.7211H11.7211H11.7211H11.7211H11.7211H11.7211H11.7212H11.7212H11.7212H11.7212H11.7212H11.7212H11.7212H11.7212H11.7212H11.7213H11.7213H11.7213H11.7213H11.7213H11.7213H11.7213H11.7214H11.7214H11.7214H11.7214H11.7214H11.7214H11.7215H11.7215H11.7215H11.7215H11.7215H11.7216H11.7216H11.7216H11.7216H11.7216H11.7217H11.7217H11.7217H11.7217H11.7218H11.7218H11.7218H11.7218H11.7219H11.7219H11.7219H11.722H11.722H11.722H11.7221H11.7221H11.7221H11.7221H11.7222H11.7222H11.7223H11.7223H11.7223H11.7224H11.7224H11.7224H11.7225H11.7225H11.7226H11.7226H11.7226H11.7227H11.7227H11.7228H11.7228H11.7229H11.7229H11.723H11.723H11.7231H11.7231H11.7232H11.7232H11.7233H11.7233H11.7234H11.7234H11.7235H11.7235H11.7236H11.7237H11.7237H11.7238H11.7238H11.7239H11.724H11.724H11.7241H11.7241H11.7242H11.7243H11.7243H11.7244H11.7245H11.7246H11.7246H11.7247H11.7248H11.7249H11.7249H11.725H11.7251H11.7252H11.7252H11.7253H11.7254H11.7255H11.7256H11.7256H11.7257H11.7258H11.7259H11.726H11.7261H11.7262H11.7263H11.7264H11.7265H11.7266H11.7266H11.7267H11.7268H11.7269H11.727H11.7271H11.7272H11.7274H11.7275H11.7276H11.7277H11.7278H11.7279H11.728H11.7281H11.7282H11.7283H11.7285H11.7286H11.7287H11.7288H11.7289H11.729H11.7292H11.7293H11.7294H11.7295H11.7297H11.7298H11.7299H11.7301H11.7302H11.7303H11.7305H11.7306H11.7307H11.7309H11.731H11.7312H11.7313H11.7315H11.7316H11.7318H11.7319H11.732H11.7322H11.7324H11.7325H11.7327H11.7328H11.733H11.7331H11.7333H11.7335H11.7336H11.7338H11.734H11.7341H11.7343H11.7345H11.7346H11.7348H11.735H11.7352H11.7354H11.7355H11.7357H11.7359H11.7361H11.7363H11.7365H11.7366H11.7368H11.737H11.7372H11.7374H11.7376H11.7378H11.738H11.7382H11.7384H11.7386H11.7388H11.739H11.7393H11.7395H11.7397H11.7399H11.7401H11.7403H11.7405H11.7408H11.741H11.7412H11.7414H11.7417H11.7419H11.7421H11.7424H11.7426H11.7428H11.7431H11.7433H11.7436H11.7438H11.744H11.7443H11.7445H11.7448H11.745H11.7453H11.7456H11.7458H11.7461H11.7463H11.7466H11.7469H11.7471H11.7474H11.7477H11.7479H11.7482H11.7485H11.7488H11.749H11.7493H11.7496H11.7499H11.7502H11.7505H11.7508H11.7511H11.7514H11.7517H11.752H11.7523H11.7526H11.7529H11.7532H11.7535H11.7538H11.7541H11.7544H11.7547H11.755H11.7554H11.7557H11.756H11.7563H11.7567H11.757H11.7573H11.7577H11.758H11.7583H11.7587H11.759H11.7594H11.7597H11.7601H11.7604H11.7608H11.7611H11.7615H11.7618H11.7622H11.7626H11.7629H11.7633H11.7637H11.764H11.7644H11.7648H11.7652H11.7656H11.7659H11.7663H11.7667H11.7671H11.7675H11.7679H11.7683H11.7687H11.7691H11.7695H11.7699H11.7703H11.7707H11.7711H11.7715H11.772H11.7724H11.7728H11.7732H11.7736H11.7741H11.7745H11.7749H11.7754H11.7758H11.7762H11.7767H11.7771H11.7776H11.778H11.7785H11.7789H11.7794H11.7798H11.7803H11.7808H11.7812H11.7817H11.7822H11.7826H11.7831H11.7836H11.7841H11.7846H11.7851H11.7855H11.786H11.7865H11.787H11.7875H11.788H11.7885H11.789H11.7895H11.79H11.7906H11.7911H11.7916H11.7921H11.7926H11.7932H11.7937H11.7942H11.7947H11.7953H11.7958H11.7964H11.7969H11.7975H11.798H11.7986H11.7991H11.7997H11.8002H11.8008H11.8014H11.8019H11.8025H11.8031H11.8036H11.8042H11.8048H11.8054H11.806H11.8066H11.8071H11.8077H11.8083H11.8089H11.8095H11.8101H11.8108H11.8114H11.812H11.8126H11.8132H11.8138H11.8145H11.8151H11.8157H11.8163H11.817H11.8176H11.8183H11.8189H11.8196H11.8202H11.8209H11.8215H11.8222H11.8228H11.8235H11.8242H11.8248H11.8255H11.8262H11.8269H11.8275H11.8282H11.8289H11.8296H11.8303H11.831H11.8317H11.8324H11.8331H11.8338H11.8345H11.8352H11.836H11.8367H11.8374H11.8381H11.8389H11.8396H11.8403H11.8411H11.8418H11.8425H11.8433H11.844H11.8448H11.8455H11.8463H11.8471H11.8478H11.8486H11.8494H11.8502H11.8509H11.8517H11.8525H11.8533H11.8541H11.8549H11.8557H11.8565H11.8573H11.8581H11.8589H11.8597H11.8605C11.939 9.17278 12.0021 9.15288 12.0512 9.11718C12.1 9.08172 12.1312 9.03353 12.1512 8.98336C12.1896 8.88669 12.1896 8.77353 12.1896 8.70472L12.1896 8.70173H12.1916L12.1877 8.68806L11.9104 7.71194C11.9079 7.62583 11.862 7.57962 11.8276 7.54507C11.8271 7.5446 11.8267 7.54413 11.8262 7.54367C11.7919 7.50915 11.771 7.48687 11.771 7.43857V7.38857H11.721H11.7202H11.7194H11.7185H11.7177H11.7169H11.7161H11.7153H11.7145H11.7137H11.713H11.7122H11.7114H11.7106H11.7098H11.7091H11.7083H11.7075H11.7068H11.706H11.7052H11.7045H11.7037H11.703H11.7022H11.7015H11.7008H11.7H11.6993H11.6986H11.6978H11.6971H11.6964H11.6957H11.6949H11.6942H11.6935H11.6928H11.6921H11.6914H11.6907H11.69H11.6893H11.6886H11.6879H11.6872H11.6865H11.6859H11.6852H11.6845H11.6838H11.6832H11.6825H11.6818H11.6812H11.6805H11.6798H11.6792H11.6785H11.6779H11.6772H11.6766H11.6759H11.6753H11.6746H11.674H11.6734H11.6727H11.6721H11.6715H11.6709H11.6702H11.6696H11.669H11.6684H11.6678H11.6672H11.6665H11.6659H11.6653H11.6647H11.6641H11.6635H11.6629H11.6623H11.6617H11.6612H11.6606H11.66H11.6594H11.6588H11.6582H11.6577H11.6571H11.6565H11.6559H11.6554H11.6548H11.6542H11.6537H11.6531H11.6526H11.652H11.6514H11.6509H11.6503H11.6498H11.6492H11.6487H11.6481H11.6476H11.6471H11.6465H11.646H11.6454H11.6449H11.6444H11.6439H11.6433H11.6428H11.6423H11.6417H11.6412H11.6407H11.6402H11.6397H11.6392H11.6386H11.6381H11.6376H11.6371H11.6366H11.6361H11.6356H11.6351H11.6346H11.6341H11.6336H11.6331H11.6326H11.6321H11.6316H11.6311H11.6306H11.6302H11.6297H11.6292H11.6287H11.6282H11.6277H11.6273H11.6268H11.6263H11.6258H11.6253H11.6249H11.6244H11.6239H11.6235H11.623H11.6225H11.6221H11.6216H11.6211H11.6207H11.6202H11.6198H11.6193H11.6188H11.6184H11.6179H11.6175H11.617H11.6166H11.6161H11.6157H11.6152H11.6148H11.6143H11.6139H11.6134H11.613H11.6125H11.6121H11.6117H11.6112H11.6108H11.6103H11.6099H11.6095H11.609H11.6086H11.6082H11.6077H11.6073H11.6069H11.6064H11.606H11.6056H11.6051H11.6047H11.6043H11.6038H11.6034H11.603H11.6026H11.6021H11.6017H11.6013H11.6009H11.6005H11.6H11.5996H11.5992H11.5988H11.5983H11.5979H11.5975H11.5971H11.5967H11.5963H11.5958H11.5954H11.595H11.5946H11.5942H11.5938H11.5934H11.5929H11.5925H11.5921H11.5917H11.5913H11.5909H11.5905H11.59H11.5896H11.5892H11.5888H11.5884H11.588H11.5876H11.5872H11.5868H11.5864H11.5859H11.5855H11.5851H11.5847H11.5843H11.5839H11.5835H11.5831H11.5827H11.5823H11.5819H11.5814H11.581H11.5806H11.5802H11.5798H11.5794H11.579H11.5786H11.5782H11.5778H11.5774H11.5769H11.5765H11.5761H11.5757H11.5753H11.5749H11.5745H11.5741H11.5737H11.5733H11.5728H11.5724H11.572H11.5716H11.5712H11.5708H11.5704H11.57H11.5695H11.5691H11.5687H11.5683H11.5679H11.5675H11.567H11.5666H11.5662H11.5658H11.5654H11.565H11.5645H11.5641H11.5637H11.5633H11.5629H11.5624H11.562H11.5616H11.5612H11.5607H11.5603H11.5599H11.5595H11.559H11.5586H11.5582H11.5578H11.5573H11.5569H11.5565H11.556H11.5556H11.5552H11.5547H11.5543H11.5539H11.5534H11.553H11.5526H11.5521H11.5517H11.5512H11.5508H11.5504H11.5499H11.5495H11.549H11.5486H11.5481H11.5477H11.5472H11.5468H11.5463H11.5459H11.5454H11.545H11.5445H11.5441H11.5436H11.5431H11.5427H11.5422H11.5418H11.5413H11.5408H11.5404H11.5399H11.5394H11.539H11.5385H11.538H11.5375H11.5371H11.5366H11.5361H11.5356H11.5352H11.5347H11.5342H11.5337H11.5332H11.5327H11.5323H11.5318H11.5313H11.5308H11.5303H11.5298H11.5293H11.5288H11.5283H11.5278H11.5273H11.5268H11.5263H11.5258H11.5253H11.5248H11.5242H11.5237H11.5232H11.5227H11.5222H11.5217H11.5211H11.5206H11.5201H11.5196H11.519H11.5185H11.518H11.5174H11.5169H11.5164H11.5158H11.5153H11.5147H11.5142H11.5137H11.5131H11.5126H11.512H11.5115H11.5109H11.5103H11.5098H11.5092H11.5087H11.5081H11.5075H11.507H11.5064H11.5058H11.5052H11.5047H11.5041H11.5035H11.5029H11.5023H11.5017H11.5011H11.5006H11.5H11.4994H11.4988H11.4982H11.4976H11.497H11.4963H11.4957H11.4951H11.4945H11.4939H11.4933H11.4927H11.492H11.4914H11.4908H11.4901H11.4895H11.4889H11.4882H11.4876H11.487H11.4863H11.4857H11.485H11.4844H11.4837H11.4831H11.4824H11.4817H11.4811H11.4804H11.4797H11.4791H11.4784H11.4777H11.477H11.4763H11.4757H11.475H11.4743H11.4736H11.4729H11.4722H11.4715H11.4708H11.4701H11.4694H11.4687H11.4679H11.4672H11.4665H11.4658H11.4651H11.4643H11.4636H11.4629H11.4621H11.4614H11.4606H11.4599H11.4591H11.4584H11.4576H11.4569H11.4561H11.4554H11.4546H11.4538H11.453H11.4523H11.4515H11.4507H11.4499H11.4491H11.4484H11.4476H11.4468H11.446H11.4452H11.4443H11.4435H11.4427H11.4419C11.3977 7.38857 11.3613 7.39999 11.3303 7.42181C11.3007 7.44263 11.2791 7.47089 11.2607 7.49866C11.2511 7.51322 11.242 7.52801 11.2327 7.54302C11.2051 7.58795 11.1762 7.63492 11.1274 7.68402Z" fill="#444D56" stroke="#444D56" stroke-width="0.1"/>
<path d="M11.6709 10.1053H11.6696L11.6723 10.1166L12.2304 12.5026L12.2336 12.5164L12.2436 12.5265L12.2452 12.528C12.3138 12.5971 12.3857 12.6693 12.4583 12.7241C12.5309 12.7789 12.6115 12.8219 12.6977 12.8219H12.6977H12.6977H12.6977H12.6977H12.6977H12.6977H12.6977H12.6977H12.6977H12.6977H12.6977H12.6977H12.6977H12.6977H12.6977H12.6977H12.6977H12.6977H12.6977H12.6978H12.6978H12.6978H12.6978H12.6978H12.6978H12.6978H12.6978H12.6978H12.6978H12.6978H12.6978H12.6978H12.6978H12.6978H12.6978H12.6979H12.6979H12.6979H12.6979H12.6979H12.6979H12.6979H12.6979H12.6979H12.698H12.698H12.698H12.698H12.698H12.698H12.698H12.698H12.6981H12.6981H12.6981H12.6981H12.6981H12.6981H12.6982H12.6982H12.6982H12.6982H12.6982H12.6983H12.6983H12.6983H12.6983H12.6984H12.6984H12.6984H12.6984H12.6985H12.6985H12.6985H12.6985H12.6986H12.6986H12.6986H12.6986H12.6987H12.6987H12.6987H12.6988H12.6988H12.6988H12.6989H12.6989H12.6989H12.699H12.699H12.699H12.6991H12.6991H12.6992H12.6992H12.6992H12.6993H12.6993H12.6994H12.6994H12.6994H12.6995H12.6995H12.6996H12.6996H12.6997H12.6997H12.6998H12.6998H12.6999H12.6999H12.7H12.7H12.7001H12.7001H12.7002H12.7003H12.7003H12.7004H12.7004H12.7005H12.7005H12.7006H12.7007H12.7007H12.7008H12.7009H12.7009H12.701H12.7011H12.7011H12.7012H12.7013H12.7013H12.7014H12.7015H12.7016H12.7016H12.7017H12.7018H12.7019H12.702H12.702H12.7021H12.7022H12.7023H12.7024H12.7024H12.7025H12.7026H12.7027H12.7028H12.7029H12.703H12.7031H12.7032H12.7033H12.7034H12.7035H12.7036H12.7037H12.7038H12.7039H12.704H12.7041H12.7042H12.7043H12.7044H12.7045H12.7046H12.7047H12.7048H12.7049H12.7051H12.7052H12.7053H12.7054H12.7055H12.7056H12.7058H12.7059H12.706H12.7061H12.7063H12.7064H12.7065H12.7066H12.7068H12.7069H12.707H12.7072H12.7073H12.7075H12.7076H12.7077H12.7079H12.708H12.7082H12.7083H12.7085H12.7086H12.7088H12.7089H12.7091H12.7092H12.7094H12.7095H12.7097H12.7099H12.71H12.7102H12.7103H12.7105H12.7107H12.7108H12.711H12.7112H12.7114H12.7115H12.7117H12.7119H12.7121H12.7122H12.7124H12.7126H12.7128H12.713H12.7132H12.7134H12.7135H12.7137H12.7139H12.7141H12.7143H12.7145H12.7147H12.7149H12.7151H12.7153H12.7155H12.7158H12.716H12.7162H12.7164H12.7166H12.7168H12.717H12.7173H12.7175H12.7177H12.7179H12.7182H12.7184H12.7186H12.7188H12.7191H12.7193H12.7196H12.7198H12.72H12.7203H12.7205H12.7208H12.721H12.7213H12.7215H12.7218H12.722H12.7223H12.7225H12.7228H12.723H12.7233H12.7236H12.7238H12.7241H12.7244H12.7247H12.7249H12.7252H12.7255H12.7258H12.726H12.7263H12.7266H12.7269H12.7272H12.7275H12.7278H12.7281H12.7284H12.7287H12.729H12.7293H12.7296H12.7299H12.7302H12.7305H12.7308H12.7311H12.7314H12.7318H12.7321H12.7324H12.7327H12.7331H12.7334H12.7337H12.734H12.7344H12.7347H12.7351H12.7354H12.7357H12.7361H12.7364H12.7368H12.7371H12.7375H12.7378H12.7382H12.7386H12.7389H12.7393H12.7396H12.74H12.7404H12.7408H12.7411H12.7415H12.7419H12.7423H12.7426H12.743H12.7434H12.7438H12.7442H12.7446H12.745H12.7454H12.7458H12.7462H12.7466H12.747H12.7474H12.7478H12.7482H12.7487H12.7491H12.7495H12.7499H12.7504H12.7508H12.7512H12.7516H12.7521H12.7525H12.753H12.7534H12.7538H12.7543H12.7547H12.7552H12.7556H12.7561H12.7566H12.757H12.7575H12.7579H12.7584H12.7589H12.7594H12.7598H12.7603H12.7608H12.7613H12.7618H12.7623H12.7627H12.7632H12.7637H12.7642H12.7647H12.7652H12.7657H12.7662H12.7668H12.7673H12.7678H12.7683H12.7688H12.7693H12.7699H12.7704H12.7709H12.7715H12.772H12.7725H12.7731H12.7736H12.7742H12.7747H12.7753H12.7758H12.7764H12.7769H12.7775H12.7781H12.7786H12.7792H12.7798H12.7803H12.7809H12.7815H12.7821H12.7827H12.7833H12.7839H12.7845H12.785H12.7856H12.7863H12.7869H12.7875H12.7881H12.7887H12.7893H12.7899H12.7905H12.7912H12.7918H12.7924H12.7931H12.7937H12.7943H12.795H12.7956H12.7963H12.7969H12.7976H12.7982H12.7989H12.7995H12.8002H12.8009H12.8015H12.8022H12.8029H12.8036H12.8043H12.8049H12.8056H12.8063H12.807H12.8077H12.8084H12.8091H12.8098H12.8105H12.8112H12.8119H12.8127H12.8134H12.8141H12.8148H12.8156H12.8163H12.817H12.8178H12.8185H12.8193H12.82H12.8208H12.8215H12.8223H12.823H12.8238H12.8246H12.8253H12.8261H12.8269H12.8276H12.8284H12.8292H12.83H12.8308H12.8316H12.8324H12.8332H12.834H12.8348H12.8356H12.8364H12.8372C12.9157 12.8219 12.9788 12.802 13.028 12.7663C13.0768 12.7309 13.1079 12.6827 13.1279 12.6325C13.1663 12.5358 13.1663 12.4227 13.1663 12.3539L13.1663 12.3509H13.1675L13.1651 12.3401L12.6081 9.81882C12.6063 9.73458 12.5644 9.65467 12.5064 9.59632C12.4471 9.53666 12.3652 9.49385 12.2791 9.49385L12.2767 9.49385C12.137 9.49385 11.9792 9.49384 11.825 9.64895C11.6709 9.80394 11.6709 9.96236 11.6709 10.1028L11.6709 10.1053Z" fill="#444D56" stroke="#444D56" stroke-width="0.1"/>
</g>
<defs>
<clipPath id="clip0">
<rect width="24" height="24" fill="white"/>
</clipPath>
</defs>
</svg>
