<svg width="18" height="18" viewBox="0 0 18 18" fill="none" xmlns="http://www.w3.org/2000/svg">
<g clip-path="url(#clip0)">
<path d="M7.37684 5.0721L7.37702 5.07203C7.41638 5.05744 7.45805 5.04997 7.50005 5.05001M7.37684 5.0721L9.85 5.10001V5.05001M7.37684 5.0721L5.03633 5.95001M7.37684 5.0721L5.0454 6.00001M7.50005 5.05001L7.5 5.10001V5.05001H7.50005ZM7.50005 5.05001H9.85M9.85 5.05001H9.9V4.55001H9.85M9.85 5.05001V4.55001M9.85 4.55001V4.50001H8.7C8.53433 4.50001 8.4 4.36569 8.4 4.20001V3.00001C8.4 2.83434 8.53433 2.70001 8.7 2.70001H13.8C13.9657 2.70001 14.1 2.83434 14.1 3.00001V4.20001C14.1 4.36569 13.9657 4.50001 13.8 4.50001H12.65V4.55001M9.85 4.55001H8.7C8.50671 4.55001 8.35 4.3933 8.35 4.20001V3.00001C8.35 2.80672 8.50671 2.65001 8.7 2.65001H13.8C13.9933 2.65001 14.15 2.80672 14.15 3.00001V4.20001C14.15 4.3933 13.9933 4.55001 13.8 4.55001H12.65M12.65 4.55001H12.6V5.05001H12.65M12.65 4.55001V5.05001M12.65 5.05001V5.10001H15.3C15.4657 5.10001 15.6 5.23434 15.6 5.40001V7.15001H15.65M12.65 5.05001H15.3C15.4933 5.05001 15.65 5.20672 15.65 5.40001V7.15001M15.65 7.15001V7.20001H16.15V7.15001M15.65 7.15001H16.15M16.15 7.15001H16.2L7.5 15.3C7.43509 15.3 7.37194 15.279 7.32 15.24L5.0001 13.5M16.15 7.15001V6.30001C16.15 6.10672 16.3067 5.95001 16.5 5.95001H17.1C17.6247 5.95001 18.05 6.37534 18.05 6.90001V12.6C18.05 13.1247 17.6247 13.55 17.1 13.55H16.5C16.3067 13.55 16.15 13.3933 16.15 13.2V12.35H15.65V13.8C15.65 13.8 15.65 13.8 15.65 13.8C15.65 13.9063 15.6017 14.0069 15.5188 14.0733L15.5187 14.0734L14.0187 15.2734L13.9875 15.2343L14.0187 15.2734C13.9566 15.323 13.8795 15.3501 13.8 15.35M13.8 15.35L13.8 15.3V15.35H13.8ZM13.8 15.35H7.5C7.42427 15.35 7.35059 15.3255 7.29 15.28L4.98343 13.55M4.98343 13.55H5.0001V13.5M4.98343 13.55L4.9701 13.54L5.0001 13.5M4.98343 13.55H2.7C2.50671 13.55 2.35 13.3933 2.35 13.2V10.85M5.0001 13.5H2.7C2.53433 13.5 2.4 13.3657 2.4 13.2V10.85H2.35M2.35 10.85V10.8H1.85V10.85M2.35 10.85H1.85M1.85 10.85H1.8V13.2C1.8 13.3657 1.66568 13.5 1.5 13.5H0.3C0.134325 13.5 0 13.3657 0 13.2V6.30001C0 6.13434 0.134325 6.00001 0.3 6.00001H1.5C1.66568 6.00001 1.8 6.13434 1.8 6.30001V8.65001H1.85M1.85 10.85V13.2C1.85 13.3933 1.69329 13.55 1.5 13.55H0.3C0.106711 13.55 -0.05 13.3933 -0.05 13.2V6.30001C-0.05 6.10672 0.106711 5.95001 0.3 5.95001H1.5C1.69329 5.95001 1.85 6.10672 1.85 6.30001V8.65001M1.85 8.65001V8.70001H2.35V8.65001M1.85 8.65001H2.35M2.35 8.65001H2.4V6.30001C2.4 6.13434 2.53433 6.00001 2.7 6.00001H5.0454M2.35 8.65001V6.30001C2.35 6.10672 2.50671 5.95001 2.7 5.95001H5.03633M5.03633 5.95001L5.02784 5.9532L5.0454 6.00001M5.03633 5.95001H5.0454V6.00001M5.22316 6.62793L5.22298 6.628C5.18363 6.64258 5.14195 6.65006 5.09995 6.65001M5.22316 6.62793L3.05 6.60001V6.65001M5.22316 6.62793L7.56367 5.75001H14.95V7.50001C14.95 7.6933 15.1067 7.85001 15.3 7.85001H16.5C16.6933 7.85001 16.85 7.6933 16.85 7.50001V6.65001H17.1C17.2381 6.65001 17.35 6.76195 17.35 6.90001V12.6C17.35 12.7381 17.2381 12.85 17.1 12.85H16.85V12C16.85 11.8067 16.6933 11.65 16.5 11.65H15.3C15.1067 11.65 14.95 11.8067 14.95 12V13.632L13.6772 14.65H7.61657L5.31 12.92C5.24941 12.8746 5.17573 12.85 5.1 12.85H3.05M5.22316 6.62793L3.05 12.9V12.85M5.09995 6.65001L5.1 6.60001V6.65001H5.09995ZM5.09995 6.65001H3.05M3.05 6.65001H3V12.85H3.05M3.05 6.65001V12.85M1.15 9.00001V12.85H0.65V6.65001H1.15V9.00001ZM2.35 10.15H1.85V9.35001H2.35V10.15ZM9.05 3.85001V3.35001H13.45V3.85001H9.05ZM11.95 4.55001V5.05001H10.55V4.55001H11.95Z" fill="white" stroke="white" stroke-width="0.1"/>
<path d="M12.5387 8.74368L12.5387 8.74369C12.6802 8.87532 12.6883 9.09676 12.5567 9.2383L12.5387 8.74368ZM12.5387 8.74368C12.4739 8.68349 12.3888 8.65002 12.3004 8.64998H12.3004H11.4038L12.5387 8.74368ZM10.8005 9.34998C10.7388 9.35011 10.6782 9.33392 10.6248 9.30308C10.4575 9.20645 10.4001 8.99243 10.4967 8.82505C10.4967 8.82503 10.4967 8.825 10.4967 8.82498L11.397 7.24998H9.86082L9.17082 9.54998H9.90042H9.9005C9.94974 9.55006 9.9984 9.56057 10.0433 9.58073L10.0433 9.58074C10.2196 9.66001 10.2983 9.86716 10.219 10.0435L10.2189 10.0437L9.61132 11.3804L11.4978 9.34998H10.8005ZM10.8005 9.34998H10.8004V9.29998L10.8005 9.34998ZM8.65665 13.4383L12.5566 9.23833L12.0004 6.59998V6.54998L12.0003 6.54998L9.60042 6.54998C9.44581 6.54998 9.30949 6.65142 9.26512 6.79951C9.26512 6.79952 9.26512 6.79952 9.26512 6.79953L8.36512 9.79951L8.36512 9.79953C8.30964 9.98468 8.41477 10.1798 8.59993 10.2352L8.59994 10.2352C8.6325 10.245 8.66636 10.25 8.70041 10.25H9.35687L8.0819 13.0551L8.08187 13.0551C8.00207 13.2312 8.08013 13.4386 8.25617 13.5184L8.25618 13.5184C8.39298 13.5804 8.55411 13.5482 8.65657 13.4384L8.65665 13.4383Z" fill="white" stroke="white" stroke-width="0.1"/>
</g>
<defs>
<clipPath id="clip0">
<rect width="18" height="18" fill="white"/>
</clipPath>
</defs>
</svg>
