<svg width="16" height="16" viewBox="0 0 16 16" fill="none" xmlns="http://www.w3.org/2000/svg">
<path d="M6.83337 7.5H0.5C0.223999 7.5 0 7.276 0 7C0 6.724 0.223999 6.5 0.5 6.5H6.83337C7.10938 6.5 7.33337 6.724 7.33337 7C7.33337 7.276 7.10938 7.5 6.83337 7.5Z" fill="white"/>
<path d="M4.33386 10C4.20581 10 4.07788 9.95129 3.98047 9.85339C3.78516 9.65796 3.78516 9.34131 3.98047 9.146L6.1272 6.99939L3.98047 4.85339C3.78516 4.65796 3.78516 4.34131 3.98047 4.146C4.17578 3.95068 4.49243 3.95068 4.68787 4.146L7.18787 6.646C7.38318 6.84131 7.38318 7.15796 7.18787 7.35339L4.68787 9.85339C4.58984 9.95129 4.46179 10 4.33386 10Z" fill="white"/>
<path d="M10.6663 16C9.93091 16 9.33301 15.402 9.33301 14.6666V2.66663C9.33301 2.09668 9.69568 1.58802 10.2356 1.40064L14.241 0.0653119C15.137 -0.209346 15.9996 0.455327 15.9996 1.33338V13.3334C15.9996 13.9027 15.637 14.4106 15.0977 14.5986L11.0909 15.9347C10.9449 15.98 10.8097 16 10.6663 16ZM14.6663 1C14.6229 1 14.5863 1.00538 14.547 1.01734L10.5583 2.34729C10.4276 2.3927 10.333 2.52466 10.333 2.66663V14.6666C10.333 14.894 10.5796 15.0474 10.7856 14.9827L14.7743 13.6527C14.9043 13.6073 14.9996 13.4753 14.9996 13.3334V1.33338C14.9996 1.15003 14.8503 1 14.6663 1Z" fill="white"/>
<path d="M5.83301 3.33337C5.55701 3.33337 5.33301 3.10938 5.33301 2.83337V1.83337C5.33301 0.822021 6.15491 0 7.16626 0H14.6663C14.9423 0 15.1663 0.223999 15.1663 0.5C15.1663 0.776001 14.9423 1 14.6663 1H7.16626C6.70691 1 6.33301 1.37402 6.33301 1.83337V2.83337C6.33301 3.10938 6.10901 3.33337 5.83301 3.33337Z" fill="white"/>
<path d="M9.83301 14H7.16626C6.15491 14 5.33301 13.178 5.33301 12.1666V11.1666C5.33301 10.8906 5.55701 10.6666 5.83301 10.6666C6.10901 10.6666 6.33301 10.8906 6.33301 11.1666V12.1666C6.33301 12.626 6.70691 13 7.16626 13H9.83301C10.109 13 10.333 13.224 10.333 13.5C10.333 13.776 10.109 14 9.83301 14Z" fill="white"/>
</svg>
