<svg width="69" height="22" viewBox="0 0 69 22" fill="none" xmlns="http://www.w3.org/2000/svg">
<path d="M2.94922 18.8535H12.3828V21H0.310547V1.09375H2.94922V18.8535ZM29.7871 11.6895C29.7871 13.64 29.459 15.3444 28.8027 16.8027C28.1465 18.252 27.2168 19.3594 26.0137 20.125C24.8105 20.8906 23.4069 21.2734 21.8027 21.2734C20.235 21.2734 18.8451 20.8906 17.6328 20.125C16.4206 19.3503 15.4772 18.252 14.8027 16.8301C14.1374 15.3991 13.7956 13.7448 13.7773 11.8672V10.4316C13.7773 8.51758 14.11 6.82682 14.7754 5.35938C15.4408 3.89193 16.3796 2.77083 17.5918 1.99609C18.8132 1.21224 20.2077 0.820312 21.7754 0.820312C23.3704 0.820312 24.7741 1.20768 25.9863 1.98242C27.2077 2.74805 28.1465 3.86458 28.8027 5.33203C29.459 6.79036 29.7871 8.49023 29.7871 10.4316V11.6895ZM27.1758 10.4043C27.1758 8.04362 26.7018 6.23438 25.7539 4.97656C24.806 3.70964 23.4798 3.07617 21.7754 3.07617C20.1165 3.07617 18.8086 3.70964 17.8516 4.97656C16.9036 6.23438 16.416 7.98438 16.3887 10.2266V11.6895C16.3887 13.9772 16.8672 15.7773 17.8242 17.0898C18.7904 18.3932 20.1165 19.0449 21.8027 19.0449C23.498 19.0449 24.8105 18.4297 25.7402 17.1992C26.6699 15.9596 27.1484 14.1868 27.1758 11.8809V10.4043ZM48.4219 18.3887C47.7474 19.3548 46.804 20.0794 45.5918 20.5625C44.3887 21.0365 42.985 21.2734 41.3809 21.2734C39.7585 21.2734 38.3184 20.8952 37.0605 20.1387C35.8027 19.373 34.8275 18.2884 34.1348 16.8848C33.4512 15.4811 33.1003 13.8542 33.082 12.0039V10.2676C33.082 7.26888 33.7793 4.94466 35.1738 3.29492C36.5775 1.64518 38.5462 0.820312 41.0801 0.820312C43.1582 0.820312 44.8307 1.35352 46.0977 2.41992C47.3646 3.47721 48.1393 4.98112 48.4219 6.93164H45.7969C45.3047 4.29753 43.737 2.98047 41.0938 2.98047C39.3346 2.98047 37.9993 3.60026 37.0879 4.83984C36.1855 6.07031 35.7298 7.85677 35.7207 10.1992V11.8262C35.7207 14.0592 36.2311 15.8366 37.252 17.1582C38.2728 18.4707 39.6536 19.127 41.3945 19.127C42.3789 19.127 43.2402 19.0176 43.9785 18.7988C44.7168 18.5801 45.3275 18.2109 45.8105 17.6914V13.2207H41.2031V11.0879H48.4219V18.3887ZM68.123 11.6895C68.123 13.64 67.7949 15.3444 67.1387 16.8027C66.4824 18.252 65.5527 19.3594 64.3496 20.125C63.1465 20.8906 61.7428 21.2734 60.1387 21.2734C58.571 21.2734 57.181 20.8906 55.9688 20.125C54.7565 19.3503 53.8132 18.252 53.1387 16.8301C52.4733 15.3991 52.1315 13.7448 52.1133 11.8672V10.4316C52.1133 8.51758 52.446 6.82682 53.1113 5.35938C53.7767 3.89193 54.7155 2.77083 55.9277 1.99609C57.1491 1.21224 58.5436 0.820312 60.1113 0.820312C61.7064 0.820312 63.11 1.20768 64.3223 1.98242C65.5436 2.74805 66.4824 3.86458 67.1387 5.33203C67.7949 6.79036 68.123 8.49023 68.123 10.4316V11.6895ZM65.5117 10.4043C65.5117 8.04362 65.0378 6.23438 64.0898 4.97656C63.1419 3.70964 61.8158 3.07617 60.1113 3.07617C58.4525 3.07617 57.1445 3.70964 56.1875 4.97656C55.2396 6.23438 54.752 7.98438 54.7246 10.2266V11.6895C54.7246 13.9772 55.2031 15.7773 56.1602 17.0898C57.1263 18.3932 58.4525 19.0449 60.1387 19.0449C61.834 19.0449 63.1465 18.4297 64.0762 17.1992C65.0059 15.9596 65.4844 14.1868 65.5117 11.8809V10.4043Z" fill="white"/>
</svg>
