<svg width="18" height="14" viewBox="0 0 18 14" fill="none" xmlns="http://www.w3.org/2000/svg">
<path d="M9.31982 9.37065C8.97245 9.37065 8.68438 9.09953 8.6632 8.75215V8.72674L6.43066 5.95197L9.29441 8.0574H9.32406C9.68838 8.0574 9.98069 8.34971 9.98069 8.71403C9.97645 9.07835 9.67991 9.37065 9.31982 9.37065Z" fill="white"/>
<path d="M12.6197 11.7346H5.37988V13.3232H12.6197V11.7346Z" fill="white"/>
<path d="M1.10144 13.3231C0.381266 12.0099 0 10.5187 0 9.00212C0 6.59591 0.93622 4.33796 2.63497 2.63921C4.33796 0.93622 6.59591 0 9.00212 0C11.4083 0 13.6663 0.93622 15.365 2.63497C17.0638 4.33373 18 6.5959 18 8.99788C18 10.5145 17.6187 12.0056 16.8986 13.3189H15.2718L14.1238 12.6538L14.5855 11.8489L16.1869 12.7724L16.2292 12.6919C16.8223 11.5397 17.1231 10.2942 17.1231 8.99365C17.1231 8.76489 17.1146 8.53189 17.0934 8.29466L17.085 8.20146L15.1744 8.54036L15.0134 7.62532L16.9452 7.28642L16.924 7.20169C16.5808 5.69357 15.8183 4.31678 14.7084 3.22382L14.6449 3.16027L13.3358 4.72346L12.6241 4.12615L13.9416 2.55448L13.8696 2.49941C12.6114 1.55472 11.1203 0.999765 9.55707 0.893857L9.46811 0.889621V2.97811H8.54036V0.889621L8.4514 0.893857C6.88821 0.999765 5.39703 1.55472 4.13886 2.49941L4.06684 2.55448L5.38009 4.12615L4.66839 4.72346L3.35938 3.16027L3.29583 3.22382C2.18593 4.31678 1.42339 5.69357 1.08025 7.20169L1.05907 7.28642L2.99082 7.62532L2.82984 8.54036L0.919275 8.20146L0.910803 8.29466C0.889621 8.53189 0.881149 8.76489 0.881149 8.99365C0.881149 10.2942 1.18193 11.5397 1.77501 12.6919L1.81737 12.7724L3.41869 11.8489L3.88044 12.6538L2.73241 13.3189H1.10144V13.3231Z" fill="white"/>
</svg>
